<svg width="84" height="83" viewBox="0 0 84 83" fill="none" xmlns="http://www.w3.org/2000/svg">
<path fill-rule="evenodd" clip-rule="evenodd" d="M72.5914 0.341313C71.203 0.340867 69.8281 0.614069 68.5454 1.1453C67.2626 1.67653 66.0972 2.45538 65.1156 3.43731L50.1393 18.5856L18.5712 3.99017C17.2774 3.36861 15.8705 3.01718 14.4364 2.95734C13.0023 2.89749 11.571 3.13047 10.2299 3.64208C8.88882 4.15368 7.66604 4.93317 6.63617 5.93298C5.6063 6.93279 4.79095 8.13196 4.23987 9.45731C3.0248 11.796 2.73893 14.5076 3.4396 17.0482C4.14027 19.5889 5.77566 21.7706 8.01773 23.1559L31.2992 37.4933L24.0444 44.7542H10.4196C7.79703 44.9707 5.35291 46.1694 3.57609 48.1104C1.79928 50.0515 0.820778 52.5918 0.836303 55.2232C0.851827 57.8547 1.86024 60.3832 3.65983 62.3032C5.45942 64.2231 7.91751 65.3929 10.5424 65.5785H17.9139V72.9499L17.92 73.0727C18.1366 75.6953 19.3352 78.1394 21.2763 79.9162C23.2173 81.693 25.7576 82.6715 28.3891 82.656C31.0205 82.6405 33.5491 81.6321 35.469 79.8325C37.3889 78.0329 38.5587 75.5748 38.7443 72.9499V59.4602L46.0052 52.1932L60.3487 75.4746C61.7339 77.7151 63.9145 79.3556 66.4537 80.0561C68.9929 80.7567 71.7031 80.4719 74.0412 79.2586C75.3304 78.7109 76.4972 77.9111 77.4731 76.9063C78.449 75.9015 79.2144 74.7118 79.7242 73.4072C80.2341 72.1025 80.4781 70.7091 80.4421 69.3089C80.4061 67.9086 80.0907 66.5296 79.5144 65.2529L64.9129 33.3592L80.055 18.389H80.0612C81.5425 16.912 82.552 15.0286 82.9619 12.9773C83.3718 10.926 83.1635 8.79924 82.3636 6.86642C81.5636 4.9336 80.2079 3.28173 78.4682 2.12012C76.7286 0.958502 74.6833 0.339421 72.5914 0.341313Z" fill="#D5D5D5"/>
</svg>
