<svg width="205" height="60" viewBox="0 0 205 60" fill="none" xmlns="http://www.w3.org/2000/svg">
<path d="M203.502 53.0137C203.502 56.1579 200.902 58.7047 197.687 58.7047H7.36423C4.14994 58.7047 1.54089 56.1579 1.54089 53.0137V7.62961C1.54089 4.48691 4.14994 1.93115 7.36423 1.93115H197.685C200.902 1.93115 203.501 4.48691 203.501 7.62961L203.502 53.0137Z" fill="black"/>
<path d="M197.073 1.99972C200.575 1.99972 203.425 4.77825 203.425 8.19288V52.4429C203.425 55.8575 200.575 58.636 197.073 58.636H7.97035C4.46817 58.636 1.6184 55.8575 1.6184 52.4429V8.19288C1.6184 4.77825 4.46817 1.99972 7.97035 1.99972H197.073ZM197.073 0.817877H7.97035C3.81199 0.817877 0.40625 4.13847 0.40625 8.19288V52.4429C0.40625 56.4973 3.81199 59.8179 7.97035 59.8179H197.073C201.231 59.8179 204.637 56.4973 204.637 52.4429V8.19288C204.637 4.13847 201.231 0.817877 197.073 0.817877Z" fill="#A6A6A6"/>
<path d="M45.9845 29.9994C45.9406 25.2454 49.9769 22.9326 50.1614 22.825C47.8755 19.5755 44.3325 19.1316 43.0875 19.0962C40.1117 18.7908 37.2253 20.8322 35.7094 20.8322C34.1633 20.8322 31.8291 19.1257 29.3132 19.1758C26.0758 19.2245 23.0471 21.052 21.3861 23.8899C17.958 29.6763 20.5147 38.1797 23.799 42.8569C25.4419 45.1476 27.3617 47.7053 29.8745 47.6153C32.3328 47.5165 33.2511 46.0872 36.2178 46.0872C39.1572 46.0872 40.0195 47.6153 42.5822 47.5578C45.2205 47.5165 46.8816 45.2568 48.4671 42.9454C50.3656 40.3199 51.1281 37.7343 51.1584 37.6015C51.0963 37.5809 46.0344 35.6973 45.9845 29.9994Z" fill="white"/>
<path d="M41.1435 16.0193C42.4657 14.4071 43.3704 12.2138 43.1192 9.98804C41.2055 10.0706 38.8122 11.2787 37.4341 12.8554C36.2147 14.2449 35.1255 16.5223 35.4069 18.664C37.5566 18.8203 39.7638 17.6064 41.1435 16.0193Z" fill="white"/>
<path d="M81.5615 47.2863H78.1259L76.2439 41.5205H69.7025L67.9098 47.2863H64.565L71.0459 27.657H75.0488L81.5615 47.2863ZM75.6766 39.1015L73.9747 33.9759C73.7947 33.4523 73.4573 32.2192 72.9596 30.2781H72.8991C72.7009 31.1129 72.3817 32.346 71.943 33.9759L70.2713 39.1015H75.6766V39.1015Z" fill="white"/>
<path d="M98.2282 40.0351C98.2282 42.4423 97.5611 44.3451 96.2268 45.7419C95.0316 46.9853 93.5476 47.6063 91.7761 47.6063C89.8638 47.6063 88.4902 46.9367 87.6536 45.5974H87.5931V53.0535H84.3678V37.7917C84.3678 36.2783 84.3269 34.7251 84.2483 33.1321H87.0848L87.2648 35.3756H87.3253C88.401 33.6853 90.0333 32.8416 92.2238 32.8416C93.9364 32.8416 95.366 33.5009 96.5097 34.821C97.6564 36.1426 98.2282 37.8802 98.2282 40.0351ZM94.9424 40.1502C94.9424 38.7725 94.6247 37.6368 93.9863 36.7429C93.2889 35.8107 92.3524 35.3446 91.1785 35.3446C90.3827 35.3446 89.6596 35.6042 89.0136 36.1161C88.3662 36.6323 87.9426 37.3064 87.7444 38.1412C87.6445 38.5306 87.5946 38.8492 87.5946 39.1V41.46C87.5946 42.4895 87.9184 43.3583 88.5659 44.0678C89.2133 44.7773 90.0545 45.1313 91.0892 45.1313C92.304 45.1313 93.2495 44.674 93.9258 43.7625C94.6035 42.8494 94.9424 41.6458 94.9424 40.1502Z" fill="white"/>
<path d="M114.925 40.0351C114.925 42.4423 114.258 44.3451 112.922 45.7419C111.729 46.9853 110.245 47.6063 108.473 47.6063C106.561 47.6063 105.187 46.9367 104.352 45.5974H104.292V53.0535H101.066V37.7917C101.066 36.2783 101.025 34.7251 100.947 33.1321H103.783L103.963 35.3756H104.024C105.098 33.6853 106.73 32.8416 108.922 32.8416C110.633 32.8416 112.063 33.5009 113.21 34.821C114.352 36.1426 114.925 37.8802 114.925 40.0351ZM111.639 40.1502C111.639 38.7725 111.32 37.6368 110.682 36.7429C109.984 35.8107 109.051 35.3446 107.876 35.3446C107.078 35.3446 106.357 35.6042 105.709 36.1161C105.062 36.6323 104.64 37.3064 104.441 38.1412C104.343 38.5306 104.292 38.8492 104.292 39.1V41.46C104.292 42.4895 104.615 43.3583 105.26 44.0678C105.907 44.7758 106.748 45.1313 107.786 45.1313C109.001 45.1313 109.947 44.674 110.623 43.7625C111.301 42.8494 111.639 41.6458 111.639 40.1502Z" fill="white"/>
<path d="M133.593 41.7816C133.593 43.4513 132.999 44.8098 131.805 45.8585C130.494 47.0046 128.668 47.5769 126.321 47.5769C124.155 47.5769 122.418 47.1698 121.104 46.3541L121.851 43.733C123.267 44.5679 124.821 44.9868 126.513 44.9868C127.728 44.9868 128.674 44.7183 129.353 44.1844C130.029 43.6504 130.367 42.9336 130.367 42.0397C130.367 41.2432 130.088 40.5721 129.53 40.0278C128.975 39.4836 128.047 38.9776 126.752 38.5101C123.228 37.2283 121.467 35.3506 121.467 32.8815C121.467 31.2678 122.084 29.9447 123.32 28.9152C124.551 27.8842 126.194 27.3694 128.249 27.3694C130.081 27.3694 131.603 27.6806 132.817 28.3016L132.011 30.8651C130.876 30.2633 129.594 29.9624 128.158 29.9624C127.023 29.9624 126.137 30.2353 125.501 30.7781C124.964 31.2634 124.695 31.8549 124.695 32.5555C124.695 33.3313 125.002 33.973 125.619 34.4774C126.156 34.9435 127.132 35.448 128.548 35.9922C130.28 36.6722 131.553 37.4672 132.371 38.3788C133.186 39.2874 133.593 40.4246 133.593 41.7816Z" fill="white"/>
<path d="M144.257 35.4922H140.702V42.3642C140.702 44.1121 141.329 44.9853 142.584 44.9853C143.161 44.9853 143.639 44.9366 144.017 44.8393L144.106 47.2273C143.471 47.4589 142.634 47.5754 141.598 47.5754C140.324 47.5754 139.329 47.1963 138.61 46.4396C137.894 45.6815 137.534 44.41 137.534 42.6238V35.4892H135.416V33.1292H137.534V30.5377L140.702 29.6055V33.1292H144.257V35.4922Z" fill="white"/>
<path d="M160.298 40.0926C160.298 42.2683 159.659 44.0545 158.386 45.4513C157.05 46.8894 155.277 47.6063 153.066 47.6063C150.936 47.6063 149.241 46.9175 147.976 45.5398C146.711 44.1622 146.079 42.4231 146.079 40.3272C146.079 38.1338 146.729 36.3373 148.035 34.9405C149.337 33.5422 151.095 32.843 153.305 32.843C155.436 32.843 157.15 33.5318 158.443 34.911C159.68 36.2488 160.298 37.976 160.298 40.0926ZM156.951 40.1944C156.951 38.889 156.665 37.7695 156.086 36.8358C155.41 35.706 154.443 35.1425 153.19 35.1425C151.894 35.1425 150.909 35.7075 150.233 36.8358C149.654 37.771 149.368 38.9082 149.368 40.2534C149.368 41.5588 149.654 42.6783 150.233 43.6105C150.93 44.7404 151.905 45.3038 153.162 45.3038C154.393 45.3038 155.36 44.7286 156.057 43.581C156.652 42.6296 156.951 41.4983 156.951 40.1944Z" fill="white"/>
<path d="M170.782 35.8978C170.462 35.8402 170.122 35.8107 169.765 35.8107C168.63 35.8107 167.753 36.2282 167.136 37.0645C166.599 37.802 166.329 38.7342 166.329 39.8596V47.2862H163.106L163.136 37.5896C163.136 35.9582 163.095 34.4729 163.015 33.1336H165.824L165.942 35.8417H166.031C166.372 34.911 166.909 34.1617 167.644 33.5997C168.363 33.0938 169.139 32.8416 169.975 32.8416C170.273 32.8416 170.543 32.8622 170.782 32.8991V35.8978Z" fill="white"/>
<path d="M185.206 39.5397C185.206 40.1032 185.169 40.5781 185.088 40.966H175.412C175.45 42.3643 175.918 43.4337 176.816 44.1712C177.632 44.8305 178.686 45.1609 179.981 45.1609C181.414 45.1609 182.721 44.9382 183.896 44.4913L184.402 46.6743C183.028 47.2584 181.406 47.549 179.535 47.549C177.284 47.549 175.517 46.9029 174.231 45.6123C172.948 44.3217 172.305 42.5885 172.305 40.4144C172.305 38.2801 172.903 36.5027 174.099 35.0852C175.352 33.5719 177.045 32.8152 179.175 32.8152C181.267 32.8152 182.851 33.5719 183.926 35.0852C184.778 36.2873 185.206 37.7741 185.206 39.5397ZM182.131 38.724C182.152 37.7918 181.942 36.9865 181.504 36.3065C180.946 35.4318 180.088 34.9952 178.934 34.9952C177.88 34.9952 177.022 35.4215 176.367 36.277C175.83 36.957 175.511 37.7727 175.412 38.7226H182.131V38.724Z" fill="white"/>
<path d="M74.6101 15.5812C74.6101 17.3173 74.0761 18.6241 73.0095 19.5017C72.0217 20.3115 70.6178 20.7171 68.7994 20.7171C67.8977 20.7171 67.1262 20.6788 66.4802 20.6021V11.1164C67.3228 10.9836 68.2305 10.9158 69.2108 10.9158C70.943 10.9158 72.2486 11.283 73.129 12.0176C74.1154 12.848 74.6101 14.0354 74.6101 15.5812ZM72.9384 15.624C72.9384 14.4985 72.6328 13.6357 72.0217 13.0339C71.4105 12.4335 70.5179 12.1326 69.3425 12.1326C68.8432 12.1326 68.4181 12.1651 68.0656 12.2329V19.4442C68.2608 19.4737 68.6178 19.487 69.1367 19.487C70.35 19.487 71.2864 19.1581 71.946 18.5002C72.6056 17.8424 72.9384 16.8836 72.9384 15.624Z" fill="white"/>
<path d="M83.4737 17.0975C83.4737 18.1669 83.1606 19.043 82.5343 19.7304C81.8777 20.4369 81.0078 20.7894 79.9216 20.7894C78.8748 20.7894 78.0412 20.4517 77.4194 19.7732C76.7992 19.0961 76.489 18.2421 76.489 17.2126C76.489 16.1358 76.8082 15.2523 77.4497 14.5664C78.0911 13.8805 78.9534 13.5369 80.0396 13.5369C81.0865 13.5369 81.9276 13.8746 82.5645 14.5517C83.1697 15.2095 83.4737 16.0591 83.4737 17.0975ZM81.8293 17.1477C81.8293 16.506 81.6871 15.9559 81.4042 15.4971C81.0714 14.9425 80.5979 14.6652 79.9822 14.6652C79.3453 14.6652 78.8611 14.9425 78.5283 15.4971C78.2439 15.9559 78.1032 16.5149 78.1032 17.1757C78.1032 17.8173 78.2454 18.3675 78.5283 18.8262C78.8717 19.3808 79.3498 19.6581 79.967 19.6581C80.5721 19.6581 81.0472 19.3764 81.3891 18.8115C81.6826 18.3439 81.8293 17.7893 81.8293 17.1477Z" fill="white"/>
<path d="M95.3585 13.6785L93.1271 20.6316H91.6748L90.7504 17.6123C90.5159 16.8586 90.3253 16.1093 90.1771 15.3659H90.1483C90.0106 16.1299 89.82 16.8777 89.575 17.6123L88.5931 20.6316H87.1242L85.0259 13.6785H86.6552L87.4615 16.9839C87.6567 17.7657 87.8171 18.5106 87.9457 19.2156H87.9744C88.0924 18.6345 88.2875 17.894 88.5629 16.9987L89.575 13.6799H90.8669L91.8366 16.9279C92.0711 17.72 92.2617 18.4825 92.4085 19.2171H92.4523C92.5598 18.5017 92.7216 17.7391 92.9364 16.9279L93.8018 13.6799H95.3585V13.6785Z" fill="white"/>
<path d="M103.578 20.6316H101.992V16.6491C101.992 15.4219 101.514 14.8083 100.555 14.8083C100.085 14.8083 99.7048 14.9765 99.4098 15.3143C99.1178 15.652 98.9696 16.0503 98.9696 16.5061V20.6302H97.3841V15.6653C97.3841 15.0547 97.3645 14.3924 97.3267 13.6755H98.72L98.7941 14.7626H98.838C99.0225 14.4248 99.2979 14.1461 99.6594 13.9233C100.089 13.6637 100.57 13.5325 101.097 13.5325C101.762 13.5325 102.316 13.7419 102.756 14.1623C103.304 14.6771 103.578 15.4455 103.578 16.4662V20.6316V20.6316Z" fill="white"/>
<path d="M107.95 20.6316H106.366V10.488H107.95V20.6316Z" fill="white"/>
<path d="M117.284 17.0975C117.284 18.1669 116.971 19.043 116.344 19.7304C115.688 20.4369 114.816 20.7894 113.732 20.7894C112.683 20.7894 111.85 20.4517 111.229 19.7732C110.609 19.0961 110.299 18.2421 110.299 17.2126C110.299 16.1358 110.618 15.2523 111.26 14.5664C111.901 13.8805 112.763 13.5369 113.848 13.5369C114.897 13.5369 115.736 13.8746 116.375 14.5517C116.98 15.2095 117.284 16.0591 117.284 17.0975ZM115.638 17.1477C115.638 16.506 115.496 15.9559 115.213 15.4971C114.881 14.9425 114.406 14.6652 113.792 14.6652C113.154 14.6652 112.67 14.9425 112.338 15.4971C112.054 15.9559 111.913 16.5149 111.913 17.1757C111.913 17.8173 112.055 18.3675 112.338 18.8262C112.682 19.3808 113.16 19.6581 113.777 19.6581C114.382 19.6581 114.856 19.3764 115.198 18.8115C115.493 18.3439 115.638 17.7893 115.638 17.1477Z" fill="white"/>
<path d="M124.957 20.6316H123.533L123.415 19.8307H123.371C122.884 20.4694 122.19 20.7894 121.288 20.7894C120.615 20.7894 120.07 20.5785 119.66 20.1596C119.288 19.7791 119.102 19.3056 119.102 18.7436C119.102 17.894 119.465 17.2465 120.196 16.7981C120.925 16.3497 121.951 16.1299 123.272 16.1402V16.0104C123.272 15.0945 122.778 14.6372 121.79 14.6372C121.087 14.6372 120.467 14.8098 119.931 15.152L119.609 14.1372C120.272 13.7375 121.09 13.5369 122.055 13.5369C123.919 13.5369 124.854 14.4956 124.854 16.4131V18.9737C124.854 19.6684 124.889 20.2216 124.957 20.6316ZM123.311 18.2421V17.1698C121.562 17.1403 120.688 17.6079 120.688 18.571C120.688 18.9339 120.787 19.2053 120.992 19.3867C121.196 19.5681 121.456 19.6581 121.766 19.6581C122.114 19.6581 122.439 19.5504 122.736 19.3366C123.034 19.1212 123.217 18.8483 123.285 18.5135C123.302 18.4383 123.311 18.3468 123.311 18.2421Z" fill="white"/>
<path d="M133.966 20.6316H132.559L132.485 19.515H132.441C131.991 20.3646 131.226 20.7894 130.15 20.7894C129.291 20.7894 128.575 20.4605 128.008 19.8027C127.441 19.1448 127.158 18.2908 127.158 17.2421C127.158 16.1166 127.465 15.2051 128.082 14.5089C128.68 13.8599 129.412 13.5354 130.283 13.5354C131.241 13.5354 131.911 13.8496 132.292 14.4794H132.323V10.488H133.91V18.7584C133.91 19.4354 133.928 20.0593 133.966 20.6316ZM132.323 17.6993V16.54C132.323 16.3394 132.308 16.1771 132.279 16.0532C132.19 15.6815 131.997 15.3688 131.705 15.1166C131.41 14.8644 131.055 14.7375 130.645 14.7375C130.053 14.7375 129.591 14.9661 129.25 15.4249C128.913 15.8836 128.742 16.4692 128.742 17.1845C128.742 17.8719 128.904 18.4294 129.229 18.8587C129.572 19.3159 130.035 19.5445 130.615 19.5445C131.135 19.5445 131.551 19.3543 131.867 18.9722C132.173 18.6197 132.323 18.1949 132.323 17.6993Z" fill="white"/>
<path d="M147.525 17.0975C147.525 18.1669 147.212 19.043 146.586 19.7304C145.929 20.4369 145.061 20.7894 143.973 20.7894C142.928 20.7894 142.094 20.4517 141.471 19.7732C140.85 19.0961 140.54 18.2421 140.54 17.2126C140.54 16.1358 140.86 15.2523 141.501 14.5664C142.142 13.8805 143.005 13.5369 144.092 13.5369C145.138 13.5369 145.98 13.8746 146.616 14.5517C147.221 15.2095 147.525 16.0591 147.525 17.0975ZM145.882 17.1477C145.882 16.506 145.74 15.9559 145.457 15.4971C145.123 14.9425 144.651 14.6652 144.033 14.6652C143.398 14.6652 142.914 14.9425 142.58 15.4971C142.295 15.9559 142.155 16.5149 142.155 17.1757C142.155 17.8173 142.297 18.3675 142.58 18.8262C142.923 19.3808 143.401 19.6581 144.018 19.6581C144.623 19.6581 145.1 19.3764 145.442 18.8115C145.734 18.3439 145.882 17.7893 145.882 17.1477Z" fill="white"/>
<path d="M156.05 20.6316H154.466V16.6491C154.466 15.4219 153.988 14.8083 153.027 14.8083C152.557 14.8083 152.177 14.9765 151.884 15.3143C151.59 15.652 151.443 16.0503 151.443 16.5061V20.6302H149.856V15.6653C149.856 15.0547 149.838 14.3924 149.8 13.6755H151.192L151.266 14.7626H151.31C151.496 14.4248 151.772 14.1461 152.132 13.9233C152.563 13.6637 153.042 13.5325 153.57 13.5325C154.234 13.5325 154.788 13.7419 155.228 14.1623C155.777 14.6771 156.05 15.4455 156.05 16.4662V20.6316V20.6316Z" fill="white"/>
<path d="M166.72 14.8363H164.974V18.2141C164.974 19.0725 165.284 19.5017 165.898 19.5017C166.183 19.5017 166.419 19.4781 166.605 19.4295L166.646 20.6021C166.332 20.7171 165.921 20.7747 165.414 20.7747C164.788 20.7747 164.301 20.5888 163.948 20.2171C163.594 19.8454 163.419 19.22 163.419 18.3424V14.8363H162.376V13.6784H163.419V12.404L164.972 11.9468V13.677H166.718V14.8363H166.72Z" fill="white"/>
<path d="M175.113 20.6316H173.526V16.6786C173.526 15.4322 173.048 14.8083 172.09 14.8083C171.355 14.8083 170.853 15.1697 170.577 15.8924C170.531 16.0444 170.503 16.2302 170.503 16.4485V20.6301H168.919V10.488H170.503V14.6785H170.534C171.033 13.9159 171.748 13.5354 172.676 13.5354C173.332 13.5354 173.875 13.7448 174.307 14.1652C174.844 14.6888 175.113 15.4676 175.113 16.4972V20.6316V20.6316Z" fill="white"/>
<path d="M183.771 16.8262C183.771 17.1035 183.75 17.3366 183.712 17.5268H178.957C178.978 18.2142 179.205 18.7378 179.645 19.1007C180.048 19.4252 180.567 19.5874 181.202 19.5874C181.905 19.5874 182.547 19.4783 183.125 19.2585L183.373 20.3323C182.697 20.6184 181.901 20.7615 180.98 20.7615C179.875 20.7615 179.005 20.4444 178.376 19.8101C177.744 19.1759 177.43 18.3248 177.43 17.2569C177.43 16.2082 177.722 15.335 178.311 14.6388C178.925 13.8954 179.756 13.5237 180.804 13.5237C181.83 13.5237 182.609 13.8954 183.135 14.6388C183.56 15.2288 183.771 15.9589 183.771 16.8262ZM182.258 16.4265C182.27 15.9678 182.166 15.5725 181.951 15.2391C181.675 14.8099 181.256 14.5945 180.689 14.5945C180.172 14.5945 179.75 14.804 179.427 15.2244C179.164 15.5592 179.008 15.9589 178.957 16.4265H182.258Z" fill="white"/>
</svg>
