<svg width="66" height="67" viewBox="0 0 66 67" fill="none" xmlns="http://www.w3.org/2000/svg">
<path d="M8.39062 0.686035C2.92188 3.42041 2.23828 4.7876 2.23828 4.7876C7.70703 26.6626 2.92188 42.3853 0.1875 56.0571C0.1875 56.0571 1.55469 59.4751 12.4922 62.2095V33.4985C12.4922 22.561 8.39062 0.686035 8.39062 0.686035ZM57.6094 0.686035C57.6094 0.686035 53.5078 22.561 53.5078 33.4985V62.2095C64.4453 59.4751 65.8125 56.0571 65.8125 56.0571C63.0781 42.3853 58.293 26.6626 63.7617 4.7876C63.7617 4.7876 63.0781 3.42041 57.6094 0.686035ZM28.8984 25.2954C23.4297 25.2954 16.5938 27.3462 16.5938 27.3462V64.2603C16.5938 64.2603 23.4297 66.311 28.8984 66.311H37.1016C42.5703 66.311 49.4062 64.2603 49.4062 64.2603V27.3462C49.4062 27.3462 42.5703 25.2954 37.1016 25.2954H28.8984Z" fill="#D5D5D5"/>
</svg>
