<svg width="72" height="69" viewBox="0 0 72 69" fill="none" xmlns="http://www.w3.org/2000/svg">
<path fill-rule="evenodd" clip-rule="evenodd" d="M38.4008 1.44278L68.8591 18.4636C69.7532 18.91 70.5052 19.5968 71.0306 20.4469C71.5559 21.297 71.8339 22.2767 71.8333 23.276V28.436C71.8333 30.9085 69.8266 32.9152 67.3541 32.9152H64.6666V61.5819H68.25C69.2003 61.5819 70.1118 61.9594 70.7838 62.6314C71.4558 63.3034 71.8333 64.2148 71.8333 65.1652C71.8333 66.1155 71.4558 67.027 70.7838 67.699C70.1118 68.371 69.2003 68.7485 68.25 68.7485H3.74996C2.7996 68.7485 1.88817 68.371 1.21616 67.699C0.544154 67.027 0.166626 66.1155 0.166626 65.1652C0.166626 64.2148 0.544154 63.3034 1.21616 62.6314C1.88817 61.9594 2.7996 61.5819 3.74996 61.5819H7.33329V32.9152H4.64579C2.17329 32.9152 0.166626 30.9085 0.166626 28.436V23.276C0.166626 21.4055 1.13413 19.6855 2.69646 18.7109L33.5955 1.44278C34.3421 1.06939 35.1653 0.875 36 0.875C36.8346 0.875 37.6543 1.06939 38.4008 1.44278ZM53.9166 32.9152H18.0833V61.5819H25.25V40.0819H32.4166V61.5819H39.5833V40.0819H46.75V61.5819H53.9166V32.9152ZM36 14.9985C35.0496 14.9985 34.1382 15.3761 33.4662 16.0481C32.7942 16.7201 32.4166 17.6315 32.4166 18.5819C32.4166 19.5322 32.7942 20.4437 33.4662 21.1157C34.1382 21.7877 35.0496 22.1652 36 22.1652C36.9503 22.1652 37.8618 21.7877 38.5338 21.1157C39.2058 20.4437 39.5833 19.5322 39.5833 18.5819C39.5833 17.6315 39.2058 16.7201 38.5338 16.0481C37.8618 15.3761 36.9503 14.9985 36 14.9985Z" fill="#D5D5D5"/>
</svg>
