<svg width="444" height="666" viewBox="0 0 444 666" fill="none" xmlns="http://www.w3.org/2000/svg">
<path d="M272.909 298.232C275.963 298.232 278.438 295.756 278.438 292.702C278.438 289.648 275.963 287.173 272.909 287.173C269.855 287.173 267.379 289.648 267.379 292.702C267.379 295.756 269.855 298.232 272.909 298.232Z" fill="#80C34E"/>
<path d="M437.964 219.399C441.018 219.399 443.493 216.923 443.493 213.869C443.493 210.815 441.018 208.34 437.964 208.34C434.91 208.34 432.435 210.815 432.435 213.869C432.435 216.923 434.91 219.399 437.964 219.399Z" fill="#80C34E"/>
<path d="M352.529 365.059C355.583 365.059 358.059 362.583 358.059 359.529C358.059 356.476 355.583 354 352.529 354C349.476 354 347 356.476 347 359.529C347 362.583 349.476 365.059 352.529 365.059Z" fill="#80C34E"/>
<path d="M82.5293 65.0587C85.5831 65.0587 88.0587 62.5831 88.0587 59.5294C88.0587 56.4756 85.5831 54 82.5293 54C79.4756 54 77 56.4756 77 59.5294C77 62.5831 79.4756 65.0587 82.5293 65.0587Z" fill="#80C34E"/>
<path d="M5.52933 161.059C8.5831 161.059 11.0587 158.583 11.0587 155.529C11.0587 152.476 8.5831 150 5.52933 150C2.47557 150 0 152.476 0 155.529C0 158.583 2.47557 161.059 5.52933 161.059Z" fill="#80C34E"/>
<path d="M28.5293 442.059C31.5831 442.059 34.0587 439.583 34.0587 436.529C34.0587 433.476 31.5831 431 28.5293 431C25.4756 431 23 433.476 23 436.529C23 439.583 25.4756 442.059 28.5293 442.059Z" fill="#80C34E"/>
<mask id="mask0_60_153" style="mask-type:luminance" maskUnits="userSpaceOnUse" x="237" y="318" width="55" height="56">
<path d="M264.639 373.112C279.72 373.112 291.946 360.886 291.946 345.805C291.946 330.724 279.72 318.498 264.639 318.498C249.557 318.498 237.332 330.724 237.332 345.805C237.332 360.886 249.557 373.112 264.639 373.112Z" fill="white"/>
</mask>
<g mask="url(#mask0_60_153)">
<path d="M238.642 320.187C238.986 320.187 239.264 319.909 239.264 319.565C239.264 319.221 238.986 318.942 238.642 318.942C238.298 318.942 238.02 319.221 238.02 319.565C238.02 319.909 238.298 320.187 238.642 320.187Z" fill="#80C34E"/>
<path d="M245.141 320.187C245.485 320.187 245.763 319.909 245.763 319.565C245.763 319.221 245.485 318.942 245.141 318.942C244.797 318.942 244.519 319.221 244.519 319.565C244.519 319.909 244.797 320.187 245.141 320.187Z" fill="#80C34E"/>
<path d="M251.641 320.187C251.984 320.187 252.263 319.909 252.263 319.565C252.263 319.221 251.984 318.942 251.641 318.942C251.297 318.942 251.018 319.221 251.018 319.565C251.018 319.909 251.297 320.187 251.641 320.187Z" fill="#80C34E"/>
<path d="M258.14 320.187C258.484 320.187 258.763 319.909 258.763 319.565C258.763 319.221 258.484 318.942 258.14 318.942C257.796 318.942 257.518 319.221 257.518 319.565C257.518 319.909 257.796 320.187 258.14 320.187Z" fill="#80C34E"/>
<path d="M264.64 320.187C264.983 320.187 265.262 319.909 265.262 319.565C265.262 319.221 264.983 318.942 264.64 318.942C264.296 318.942 264.017 319.221 264.017 319.565C264.017 319.909 264.296 320.187 264.64 320.187Z" fill="#80C34E"/>
<path d="M271.147 320.187C271.491 320.187 271.769 319.909 271.769 319.565C271.769 319.221 271.491 318.942 271.147 318.942C270.803 318.942 270.524 319.221 270.524 319.565C270.524 319.909 270.803 320.187 271.147 320.187Z" fill="#80C34E"/>
<path d="M277.646 320.187C277.99 320.187 278.269 319.909 278.269 319.565C278.269 319.221 277.99 318.942 277.646 318.942C277.303 318.942 277.024 319.221 277.024 319.565C277.024 319.909 277.303 320.187 277.646 320.187Z" fill="#80C34E"/>
<path d="M284.146 320.187C284.49 320.187 284.768 319.909 284.768 319.565C284.768 319.221 284.49 318.942 284.146 318.942C283.802 318.942 283.523 319.221 283.523 319.565C283.523 319.909 283.802 320.187 284.146 320.187Z" fill="#80C34E"/>
<path d="M290.645 320.187C290.989 320.187 291.267 319.909 291.267 319.565C291.267 319.221 290.989 318.942 290.645 318.942C290.301 318.942 290.022 319.221 290.022 319.565C290.022 319.909 290.301 320.187 290.645 320.187Z" fill="#80C34E"/>
<path d="M238.642 326.023C238.986 326.023 239.264 325.745 239.264 325.401C239.264 325.057 238.986 324.778 238.642 324.778C238.298 324.778 238.02 325.057 238.02 325.401C238.02 325.745 238.298 326.023 238.642 326.023Z" fill="#80C34E"/>
<path d="M245.141 326.023C245.485 326.023 245.763 325.745 245.763 325.401C245.763 325.057 245.485 324.778 245.141 324.778C244.797 324.778 244.519 325.057 244.519 325.401C244.519 325.745 244.797 326.023 245.141 326.023Z" fill="#80C34E"/>
<path d="M251.641 326.023C251.984 326.023 252.263 325.745 252.263 325.401C252.263 325.057 251.984 324.778 251.641 324.778C251.297 324.778 251.018 325.057 251.018 325.401C251.018 325.745 251.297 326.023 251.641 326.023Z" fill="#80C34E"/>
<path d="M258.14 326.023C258.484 326.023 258.763 325.745 258.763 325.401C258.763 325.057 258.484 324.778 258.14 324.778C257.796 324.778 257.518 325.057 257.518 325.401C257.518 325.745 257.796 326.023 258.14 326.023Z" fill="#80C34E"/>
<path d="M264.64 326.023C264.983 326.023 265.262 325.745 265.262 325.401C265.262 325.057 264.983 324.778 264.64 324.778C264.296 324.778 264.017 325.057 264.017 325.401C264.017 325.745 264.296 326.023 264.64 326.023Z" fill="#80C34E"/>
<path d="M271.147 326.023C271.491 326.023 271.769 325.745 271.769 325.401C271.769 325.057 271.491 324.778 271.147 324.778C270.803 324.778 270.524 325.057 270.524 325.401C270.524 325.745 270.803 326.023 271.147 326.023Z" fill="#80C34E"/>
<path d="M277.646 326.023C277.99 326.023 278.269 325.745 278.269 325.401C278.269 325.057 277.99 324.778 277.646 324.778C277.303 324.778 277.024 325.057 277.024 325.401C277.024 325.745 277.303 326.023 277.646 326.023Z" fill="#80C34E"/>
<path d="M284.146 326.023C284.49 326.023 284.768 325.745 284.768 325.401C284.768 325.057 284.49 324.778 284.146 324.778C283.802 324.778 283.523 325.057 283.523 325.401C283.523 325.745 283.802 326.023 284.146 326.023Z" fill="#80C34E"/>
<path d="M290.645 326.023C290.989 326.023 291.267 325.745 291.267 325.401C291.267 325.057 290.989 324.778 290.645 324.778C290.301 324.778 290.022 325.057 290.022 325.401C290.022 325.745 290.301 326.023 290.645 326.023Z" fill="#80C34E"/>
<path d="M238.642 331.851C238.986 331.851 239.264 331.573 239.264 331.229C239.264 330.885 238.986 330.606 238.642 330.606C238.298 330.606 238.02 330.885 238.02 331.229C238.02 331.573 238.298 331.851 238.642 331.851Z" fill="#80C34E"/>
<path d="M245.141 331.851C245.485 331.851 245.763 331.573 245.763 331.229C245.763 330.885 245.485 330.606 245.141 330.606C244.797 330.606 244.519 330.885 244.519 331.229C244.519 331.573 244.797 331.851 245.141 331.851Z" fill="#80C34E"/>
<path d="M251.641 331.851C251.984 331.851 252.263 331.573 252.263 331.229C252.263 330.885 251.984 330.606 251.641 330.606C251.297 330.606 251.018 330.885 251.018 331.229C251.018 331.573 251.297 331.851 251.641 331.851Z" fill="#80C34E"/>
<path d="M258.14 331.851C258.484 331.851 258.763 331.573 258.763 331.229C258.763 330.885 258.484 330.606 258.14 330.606C257.796 330.606 257.518 330.885 257.518 331.229C257.518 331.573 257.796 331.851 258.14 331.851Z" fill="#80C34E"/>
<path d="M264.64 331.851C264.983 331.851 265.262 331.573 265.262 331.229C265.262 330.885 264.983 330.606 264.64 330.606C264.296 330.606 264.017 330.885 264.017 331.229C264.017 331.573 264.296 331.851 264.64 331.851Z" fill="#80C34E"/>
<path d="M271.147 331.851C271.491 331.851 271.769 331.573 271.769 331.229C271.769 330.885 271.491 330.606 271.147 330.606C270.803 330.606 270.524 330.885 270.524 331.229C270.524 331.573 270.803 331.851 271.147 331.851Z" fill="#80C34E"/>
<path d="M277.646 331.851C277.99 331.851 278.269 331.573 278.269 331.229C278.269 330.885 277.99 330.606 277.646 330.606C277.303 330.606 277.024 330.885 277.024 331.229C277.024 331.573 277.303 331.851 277.646 331.851Z" fill="#80C34E"/>
<path d="M284.146 331.851C284.49 331.851 284.768 331.573 284.768 331.229C284.768 330.885 284.49 330.606 284.146 330.606C283.802 330.606 283.523 330.885 283.523 331.229C283.523 331.573 283.802 331.851 284.146 331.851Z" fill="#80C34E"/>
<path d="M290.645 331.851C290.989 331.851 291.267 331.573 291.267 331.229C291.267 330.885 290.989 330.606 290.645 330.606C290.301 330.606 290.022 330.885 290.022 331.229C290.022 331.573 290.301 331.851 290.645 331.851Z" fill="#80C34E"/>
<path d="M238.642 337.68C238.986 337.68 239.264 337.402 239.264 337.058C239.264 336.714 238.986 336.436 238.642 336.436C238.298 336.436 238.02 336.714 238.02 337.058C238.02 337.402 238.298 337.68 238.642 337.68Z" fill="#80C34E"/>
<path d="M245.141 337.68C245.485 337.68 245.763 337.402 245.763 337.058C245.763 336.714 245.485 336.436 245.141 336.436C244.797 336.436 244.519 336.714 244.519 337.058C244.519 337.402 244.797 337.68 245.141 337.68Z" fill="#80C34E"/>
<path d="M251.641 337.68C251.984 337.68 252.263 337.402 252.263 337.058C252.263 336.714 251.984 336.436 251.641 336.436C251.297 336.436 251.018 336.714 251.018 337.058C251.018 337.402 251.297 337.68 251.641 337.68Z" fill="#80C34E"/>
<path d="M258.14 337.68C258.484 337.68 258.763 337.402 258.763 337.058C258.763 336.714 258.484 336.436 258.14 336.436C257.796 336.436 257.518 336.714 257.518 337.058C257.518 337.402 257.796 337.68 258.14 337.68Z" fill="#80C34E"/>
<path d="M264.64 337.68C264.983 337.68 265.262 337.402 265.262 337.058C265.262 336.714 264.983 336.436 264.64 336.436C264.296 336.436 264.017 336.714 264.017 337.058C264.017 337.402 264.296 337.68 264.64 337.68Z" fill="#80C34E"/>
<path d="M271.147 337.68C271.491 337.68 271.769 337.402 271.769 337.058C271.769 336.714 271.491 336.436 271.147 336.436C270.803 336.436 270.524 336.714 270.524 337.058C270.524 337.402 270.803 337.68 271.147 337.68Z" fill="#80C34E"/>
<path d="M277.646 337.68C277.99 337.68 278.269 337.402 278.269 337.058C278.269 336.714 277.99 336.436 277.646 336.436C277.303 336.436 277.024 336.714 277.024 337.058C277.024 337.402 277.303 337.68 277.646 337.68Z" fill="#80C34E"/>
<path d="M284.146 337.68C284.49 337.68 284.768 337.402 284.768 337.058C284.768 336.714 284.49 336.436 284.146 336.436C283.802 336.436 283.523 336.714 283.523 337.058C283.523 337.402 283.802 337.68 284.146 337.68Z" fill="#80C34E"/>
<path d="M290.645 337.68C290.989 337.68 291.267 337.402 291.267 337.058C291.267 336.714 290.989 336.436 290.645 336.436C290.301 336.436 290.022 336.714 290.022 337.058C290.022 337.402 290.301 337.68 290.645 337.68Z" fill="#80C34E"/>
<path d="M238.642 343.509C238.986 343.509 239.264 343.23 239.264 342.886C239.264 342.542 238.986 342.264 238.642 342.264C238.298 342.264 238.02 342.542 238.02 342.886C238.02 343.23 238.298 343.509 238.642 343.509Z" fill="#80C34E"/>
<path d="M245.141 343.509C245.485 343.509 245.763 343.23 245.763 342.886C245.763 342.542 245.485 342.264 245.141 342.264C244.797 342.264 244.519 342.542 244.519 342.886C244.519 343.23 244.797 343.509 245.141 343.509Z" fill="#80C34E"/>
<path d="M251.641 343.509C251.984 343.509 252.263 343.23 252.263 342.886C252.263 342.542 251.984 342.264 251.641 342.264C251.297 342.264 251.018 342.542 251.018 342.886C251.018 343.23 251.297 343.509 251.641 343.509Z" fill="#80C34E"/>
<path d="M258.14 343.509C258.484 343.509 258.763 343.23 258.763 342.886C258.763 342.542 258.484 342.264 258.14 342.264C257.796 342.264 257.518 342.542 257.518 342.886C257.518 343.23 257.796 343.509 258.14 343.509Z" fill="#80C34E"/>
<path d="M264.64 343.509C264.983 343.509 265.262 343.23 265.262 342.886C265.262 342.542 264.983 342.264 264.64 342.264C264.296 342.264 264.017 342.542 264.017 342.886C264.017 343.23 264.296 343.509 264.64 343.509Z" fill="#80C34E"/>
<path d="M271.147 343.509C271.491 343.509 271.769 343.23 271.769 342.886C271.769 342.542 271.491 342.264 271.147 342.264C270.803 342.264 270.524 342.542 270.524 342.886C270.524 343.23 270.803 343.509 271.147 343.509Z" fill="#80C34E"/>
<path d="M277.646 343.509C277.99 343.509 278.269 343.23 278.269 342.886C278.269 342.542 277.99 342.264 277.646 342.264C277.303 342.264 277.024 342.542 277.024 342.886C277.024 343.23 277.303 343.509 277.646 343.509Z" fill="#80C34E"/>
<path d="M284.146 343.509C284.49 343.509 284.768 343.23 284.768 342.886C284.768 342.542 284.49 342.264 284.146 342.264C283.802 342.264 283.523 342.542 283.523 342.886C283.523 343.23 283.802 343.509 284.146 343.509Z" fill="#80C34E"/>
<path d="M290.645 343.509C290.989 343.509 291.267 343.23 291.267 342.886C291.267 342.542 290.989 342.264 290.645 342.264C290.301 342.264 290.022 342.542 290.022 342.886C290.022 343.23 290.301 343.509 290.645 343.509Z" fill="#80C34E"/>
<path d="M238.642 349.337C238.986 349.337 239.264 349.058 239.264 348.714C239.264 348.37 238.986 348.092 238.642 348.092C238.298 348.092 238.02 348.37 238.02 348.714C238.02 349.058 238.298 349.337 238.642 349.337Z" fill="#80C34E"/>
<path d="M245.141 349.337C245.485 349.337 245.763 349.058 245.763 348.714C245.763 348.37 245.485 348.092 245.141 348.092C244.797 348.092 244.519 348.37 244.519 348.714C244.519 349.058 244.797 349.337 245.141 349.337Z" fill="#80C34E"/>
<path d="M251.641 349.337C251.984 349.337 252.263 349.058 252.263 348.714C252.263 348.37 251.984 348.092 251.641 348.092C251.297 348.092 251.018 348.37 251.018 348.714C251.018 349.058 251.297 349.337 251.641 349.337Z" fill="#80C34E"/>
<path d="M258.14 349.337C258.484 349.337 258.763 349.058 258.763 348.714C258.763 348.37 258.484 348.092 258.14 348.092C257.796 348.092 257.518 348.37 257.518 348.714C257.518 349.058 257.796 349.337 258.14 349.337Z" fill="#80C34E"/>
<path d="M264.64 349.337C264.983 349.337 265.262 349.058 265.262 348.714C265.262 348.37 264.983 348.092 264.64 348.092C264.296 348.092 264.017 348.37 264.017 348.714C264.017 349.058 264.296 349.337 264.64 349.337Z" fill="#80C34E"/>
<path d="M271.147 349.337C271.491 349.337 271.769 349.058 271.769 348.714C271.769 348.37 271.491 348.092 271.147 348.092C270.803 348.092 270.524 348.37 270.524 348.714C270.524 349.058 270.803 349.337 271.147 349.337Z" fill="#80C34E"/>
<path d="M277.646 349.337C277.99 349.337 278.269 349.058 278.269 348.714C278.269 348.37 277.99 348.092 277.646 348.092C277.303 348.092 277.024 348.37 277.024 348.714C277.024 349.058 277.303 349.337 277.646 349.337Z" fill="#80C34E"/>
<path d="M284.146 349.337C284.49 349.337 284.768 349.058 284.768 348.714C284.768 348.37 284.49 348.092 284.146 348.092C283.802 348.092 283.523 348.37 283.523 348.714C283.523 349.058 283.802 349.337 284.146 349.337Z" fill="#80C34E"/>
<path d="M290.645 349.337C290.989 349.337 291.267 349.058 291.267 348.714C291.267 348.37 290.989 348.092 290.645 348.092C290.301 348.092 290.022 348.37 290.022 348.714C290.022 349.058 290.301 349.337 290.645 349.337Z" fill="#80C34E"/>
<path d="M238.642 355.174C238.986 355.174 239.264 354.895 239.264 354.551C239.264 354.207 238.986 353.929 238.642 353.929C238.298 353.929 238.02 354.207 238.02 354.551C238.02 354.895 238.298 355.174 238.642 355.174Z" fill="#80C34E"/>
<path d="M245.141 355.174C245.485 355.174 245.763 354.895 245.763 354.551C245.763 354.207 245.485 353.929 245.141 353.929C244.797 353.929 244.519 354.207 244.519 354.551C244.519 354.895 244.797 355.174 245.141 355.174Z" fill="#80C34E"/>
<path d="M251.641 355.174C251.984 355.174 252.263 354.895 252.263 354.551C252.263 354.207 251.984 353.929 251.641 353.929C251.297 353.929 251.018 354.207 251.018 354.551C251.018 354.895 251.297 355.174 251.641 355.174Z" fill="#80C34E"/>
<path d="M258.14 355.174C258.484 355.174 258.763 354.895 258.763 354.551C258.763 354.207 258.484 353.929 258.14 353.929C257.796 353.929 257.518 354.207 257.518 354.551C257.518 354.895 257.796 355.174 258.14 355.174Z" fill="#80C34E"/>
<path d="M264.64 355.174C264.983 355.174 265.262 354.895 265.262 354.551C265.262 354.207 264.983 353.929 264.64 353.929C264.296 353.929 264.017 354.207 264.017 354.551C264.017 354.895 264.296 355.174 264.64 355.174Z" fill="#80C34E"/>
<path d="M271.147 355.174C271.491 355.174 271.769 354.895 271.769 354.551C271.769 354.207 271.491 353.929 271.147 353.929C270.803 353.929 270.524 354.207 270.524 354.551C270.524 354.895 270.803 355.174 271.147 355.174Z" fill="#80C34E"/>
<path d="M277.646 355.174C277.99 355.174 278.269 354.895 278.269 354.551C278.269 354.207 277.99 353.929 277.646 353.929C277.303 353.929 277.024 354.207 277.024 354.551C277.024 354.895 277.303 355.174 277.646 355.174Z" fill="#80C34E"/>
<path d="M284.146 355.174C284.49 355.174 284.768 354.895 284.768 354.551C284.768 354.207 284.49 353.929 284.146 353.929C283.802 353.929 283.523 354.207 283.523 354.551C283.523 354.895 283.802 355.174 284.146 355.174Z" fill="#80C34E"/>
<path d="M290.645 355.174C290.989 355.174 291.267 354.895 291.267 354.551C291.267 354.207 290.989 353.929 290.645 353.929C290.301 353.929 290.022 354.207 290.022 354.551C290.022 354.895 290.301 355.174 290.645 355.174Z" fill="#80C34E"/>
<path d="M238.642 361.003C238.986 361.003 239.264 360.724 239.264 360.38C239.264 360.037 238.986 359.758 238.642 359.758C238.298 359.758 238.02 360.037 238.02 360.38C238.02 360.724 238.298 361.003 238.642 361.003Z" fill="#80C34E"/>
<path d="M245.141 361.003C245.485 361.003 245.763 360.724 245.763 360.38C245.763 360.037 245.485 359.758 245.141 359.758C244.797 359.758 244.519 360.037 244.519 360.38C244.519 360.724 244.797 361.003 245.141 361.003Z" fill="#80C34E"/>
<path d="M251.641 361.003C251.984 361.003 252.263 360.724 252.263 360.38C252.263 360.037 251.984 359.758 251.641 359.758C251.297 359.758 251.018 360.037 251.018 360.38C251.018 360.724 251.297 361.003 251.641 361.003Z" fill="#80C34E"/>
<path d="M258.14 361.003C258.484 361.003 258.763 360.724 258.763 360.38C258.763 360.037 258.484 359.758 258.14 359.758C257.796 359.758 257.518 360.037 257.518 360.38C257.518 360.724 257.796 361.003 258.14 361.003Z" fill="#80C34E"/>
<path d="M264.64 361.003C264.983 361.003 265.262 360.724 265.262 360.38C265.262 360.037 264.983 359.758 264.64 359.758C264.296 359.758 264.017 360.037 264.017 360.38C264.017 360.724 264.296 361.003 264.64 361.003Z" fill="#80C34E"/>
<path d="M271.147 361.003C271.491 361.003 271.769 360.724 271.769 360.38C271.769 360.037 271.491 359.758 271.147 359.758C270.803 359.758 270.524 360.037 270.524 360.38C270.524 360.724 270.803 361.003 271.147 361.003Z" fill="#80C34E"/>
<path d="M277.646 361.003C277.99 361.003 278.269 360.724 278.269 360.38C278.269 360.037 277.99 359.758 277.646 359.758C277.303 359.758 277.024 360.037 277.024 360.38C277.024 360.724 277.303 361.003 277.646 361.003Z" fill="#80C34E"/>
<path d="M284.146 361.003C284.49 361.003 284.768 360.724 284.768 360.38C284.768 360.037 284.49 359.758 284.146 359.758C283.802 359.758 283.523 360.037 283.523 360.38C283.523 360.724 283.802 361.003 284.146 361.003Z" fill="#80C34E"/>
<path d="M290.645 361.003C290.989 361.003 291.267 360.724 291.267 360.38C291.267 360.037 290.989 359.758 290.645 359.758C290.301 359.758 290.022 360.037 290.022 360.38C290.022 360.724 290.301 361.003 290.645 361.003Z" fill="#80C34E"/>
<path d="M238.642 366.831C238.986 366.831 239.264 366.552 239.264 366.208C239.264 365.865 238.986 365.586 238.642 365.586C238.298 365.586 238.02 365.865 238.02 366.208C238.02 366.552 238.298 366.831 238.642 366.831Z" fill="#80C34E"/>
<path d="M245.141 366.831C245.485 366.831 245.763 366.552 245.763 366.208C245.763 365.865 245.485 365.586 245.141 365.586C244.797 365.586 244.519 365.865 244.519 366.208C244.519 366.552 244.797 366.831 245.141 366.831Z" fill="#80C34E"/>
<path d="M251.641 366.831C251.984 366.831 252.263 366.552 252.263 366.208C252.263 365.865 251.984 365.586 251.641 365.586C251.297 365.586 251.018 365.865 251.018 366.208C251.018 366.552 251.297 366.831 251.641 366.831Z" fill="#80C34E"/>
<path d="M258.14 366.831C258.484 366.831 258.763 366.552 258.763 366.208C258.763 365.865 258.484 365.586 258.14 365.586C257.796 365.586 257.518 365.865 257.518 366.208C257.518 366.552 257.796 366.831 258.14 366.831Z" fill="#80C34E"/>
<path d="M264.64 366.831C264.983 366.831 265.262 366.552 265.262 366.208C265.262 365.865 264.983 365.586 264.64 365.586C264.296 365.586 264.017 365.865 264.017 366.208C264.017 366.552 264.296 366.831 264.64 366.831Z" fill="#80C34E"/>
<path d="M271.147 366.831C271.491 366.831 271.769 366.552 271.769 366.208C271.769 365.865 271.491 365.586 271.147 365.586C270.803 365.586 270.524 365.865 270.524 366.208C270.524 366.552 270.803 366.831 271.147 366.831Z" fill="#80C34E"/>
<path d="M277.646 366.831C277.99 366.831 278.269 366.552 278.269 366.208C278.269 365.865 277.99 365.586 277.646 365.586C277.303 365.586 277.024 365.865 277.024 366.208C277.024 366.552 277.303 366.831 277.646 366.831Z" fill="#80C34E"/>
<path d="M284.146 366.831C284.49 366.831 284.768 366.552 284.768 366.208C284.768 365.865 284.49 365.586 284.146 365.586C283.802 365.586 283.523 365.865 283.523 366.208C283.523 366.552 283.802 366.831 284.146 366.831Z" fill="#80C34E"/>
<path d="M290.645 366.831C290.989 366.831 291.267 366.552 291.267 366.208C291.267 365.865 290.989 365.586 290.645 365.586C290.301 365.586 290.022 365.865 290.022 366.208C290.022 366.552 290.301 366.831 290.645 366.831Z" fill="#80C34E"/>
<path d="M238.642 372.659C238.986 372.659 239.264 372.38 239.264 372.037C239.264 371.693 238.986 371.414 238.642 371.414C238.298 371.414 238.02 371.693 238.02 372.037C238.02 372.38 238.298 372.659 238.642 372.659Z" fill="#80C34E"/>
<path d="M245.141 372.659C245.485 372.659 245.763 372.38 245.763 372.037C245.763 371.693 245.485 371.414 245.141 371.414C244.797 371.414 244.519 371.693 244.519 372.037C244.519 372.38 244.797 372.659 245.141 372.659Z" fill="#80C34E"/>
<path d="M251.641 372.659C251.984 372.659 252.263 372.38 252.263 372.037C252.263 371.693 251.984 371.414 251.641 371.414C251.297 371.414 251.018 371.693 251.018 372.037C251.018 372.38 251.297 372.659 251.641 372.659Z" fill="#80C34E"/>
<path d="M258.14 372.659C258.484 372.659 258.763 372.38 258.763 372.037C258.763 371.693 258.484 371.414 258.14 371.414C257.796 371.414 257.518 371.693 257.518 372.037C257.518 372.38 257.796 372.659 258.14 372.659Z" fill="#80C34E"/>
<path d="M264.64 372.659C264.983 372.659 265.262 372.38 265.262 372.037C265.262 371.693 264.983 371.414 264.64 371.414C264.296 371.414 264.017 371.693 264.017 372.037C264.017 372.38 264.296 372.659 264.64 372.659Z" fill="#80C34E"/>
<path d="M271.147 372.659C271.491 372.659 271.769 372.38 271.769 372.037C271.769 371.693 271.491 371.414 271.147 371.414C270.803 371.414 270.524 371.693 270.524 372.037C270.524 372.38 270.803 372.659 271.147 372.659Z" fill="#80C34E"/>
<path d="M277.646 372.659C277.99 372.659 278.269 372.38 278.269 372.037C278.269 371.693 277.99 371.414 277.646 371.414C277.303 371.414 277.024 371.693 277.024 372.037C277.024 372.38 277.303 372.659 277.646 372.659Z" fill="#80C34E"/>
<path d="M284.146 372.659C284.49 372.659 284.768 372.38 284.768 372.037C284.768 371.693 284.49 371.414 284.146 371.414C283.802 371.414 283.523 371.693 283.523 372.037C283.523 372.38 283.802 372.659 284.146 372.659Z" fill="#80C34E"/>
<path d="M290.645 372.659C290.989 372.659 291.267 372.38 291.267 372.037C291.267 371.693 290.989 371.414 290.645 371.414C290.301 371.414 290.022 371.693 290.022 372.037C290.022 372.38 290.301 372.659 290.645 372.659Z" fill="#80C34E"/>
</g>
<path d="M348.109 203.089C347.875 203.105 347.64 203.129 347.406 203.154L320.374 255.044C320.487 255.246 320.608 255.448 320.729 255.65L348.117 203.089H348.109Z" fill="#80C34E"/>
<path d="M339.37 204.892C339.095 204.989 338.821 205.086 338.546 205.191L316.962 246.612C317.035 246.895 317.115 247.178 317.188 247.461L339.362 204.9L339.37 204.892Z" fill="#80C34E"/>
<path d="M343.905 203.663C343.654 203.712 343.404 203.768 343.153 203.825L318.481 251.172C318.578 251.406 318.684 251.649 318.781 251.883L343.905 203.671V203.663Z" fill="#80C34E"/>
<path d="M355.764 203.348C355.554 203.315 355.344 203.291 355.141 203.259L324.9 261.309C325.037 261.462 325.183 261.616 325.328 261.769L355.772 203.348H355.764Z" fill="#80C34E"/>
<path d="M359.305 204.043C359.111 203.994 358.909 203.946 358.707 203.897L327.463 263.863C327.616 264.001 327.77 264.138 327.924 264.267L359.305 204.043Z" fill="#80C34E"/>
<path d="M378.981 217.356L350.105 272.771C350.324 272.771 350.542 272.779 350.76 272.779C350.76 272.779 350.76 272.779 350.768 272.779L379.369 217.898C379.24 217.712 379.11 217.534 378.981 217.356Z" fill="#80C34E"/>
<path d="M334.326 207.098C334.011 207.268 333.695 207.437 333.38 207.615L316 240.969C316.032 241.333 316.065 241.689 316.113 242.044L334.326 207.09V207.098Z" fill="#80C34E"/>
<path d="M374.398 263.556C374.867 263.128 375.319 262.683 375.756 262.231L385.044 244.398C385.157 243.783 385.262 243.161 385.343 242.53L374.39 263.548L374.398 263.556Z" fill="#80C34E"/>
<path d="M328.296 211.188C327.875 211.544 327.455 211.908 327.051 212.288L316.186 233.144C316.113 233.686 316.049 234.235 316 234.785L328.296 211.188Z" fill="#80C34E"/>
<path d="M352.046 203.016C351.827 203.016 351.609 203 351.383 203L322.523 258.39C322.653 258.568 322.782 258.746 322.92 258.924L352.046 203.024V203.016Z" fill="#80C34E"/>
<path d="M381.479 221.327C381.366 221.116 381.253 220.906 381.131 220.704L354.075 272.626C354.309 272.602 354.552 272.578 354.786 272.554L381.479 221.327Z" fill="#80C34E"/>
<path d="M383.314 225.295C383.217 225.052 383.12 224.81 383.023 224.567L358.327 271.963C358.585 271.906 358.836 271.85 359.087 271.785L383.314 225.295Z" fill="#80C34E"/>
<path d="M385.602 235.869C385.578 235.489 385.553 235.117 385.521 234.745L368.092 268.188C368.424 268.002 368.747 267.808 369.062 267.606L385.602 235.869Z" fill="#80C34E"/>
<path d="M377.025 214.915C376.887 214.754 376.742 214.6 376.604 214.438L346.347 272.505C346.557 272.529 346.767 272.553 346.977 272.577L377.025 214.915Z" fill="#80C34E"/>
<path d="M384.761 229.991C384.696 229.7 384.623 229.409 384.542 229.118L362.926 270.604C363.209 270.499 363.492 270.394 363.767 270.281L384.753 229.999L384.761 229.991Z" fill="#80C34E"/>
<path d="M371.778 210.025C371.617 209.903 371.455 209.782 371.293 209.669L339.395 270.888C339.58 270.952 339.774 271.017 339.968 271.082L371.778 210.033V210.025Z" fill="#80C34E"/>
<path d="M365.861 206.42C365.683 206.331 365.505 206.25 365.32 206.169L333.105 267.994C333.275 268.091 333.445 268.196 333.623 268.293L365.861 206.42Z" fill="#80C34E"/>
<path d="M374.486 212.305C374.333 212.167 374.187 212.03 374.034 211.893L342.782 271.875C342.984 271.923 343.186 271.963 343.38 272.012L374.486 212.313V212.305Z" fill="#80C34E"/>
<path d="M368.901 208.068C368.731 207.963 368.561 207.866 368.391 207.761L336.177 269.586C336.355 269.667 336.541 269.747 336.719 269.828L368.901 208.06V208.068Z" fill="#80C34E"/>
<path d="M362.66 205.078C362.474 205.013 362.28 204.941 362.094 204.876L330.203 266.087C330.365 266.208 330.526 266.321 330.688 266.434L362.66 205.07V205.078Z" fill="#80C34E"/>
<path d="M52.1091 380.089C51.8747 380.105 51.6403 380.129 51.4058 380.154L24.3735 432.044C24.4867 432.246 24.608 432.448 24.7292 432.65L52.1172 380.089H52.1091Z" fill="#80C34E"/>
<path d="M43.3786 381.899C43.1037 381.996 42.8289 382.093 42.554 382.199L20.9702 423.62C21.043 423.903 21.1238 424.186 21.1966 424.469L43.3705 381.908L43.3786 381.899Z" fill="#80C34E"/>
<path d="M47.9134 380.671C47.6628 380.719 47.4122 380.776 47.1616 380.833L22.4897 428.18C22.5868 428.414 22.6918 428.656 22.7888 428.891L47.9134 380.679V380.671Z" fill="#80C34E"/>
<path d="M59.7722 380.356C59.562 380.323 59.3519 380.299 59.1498 380.267L28.9082 438.317C29.0456 438.47 29.1911 438.624 29.3366 438.777L59.7803 380.356H59.7722Z" fill="#80C34E"/>
<path d="M63.3051 381.051C63.111 381.002 62.9089 380.954 62.7069 380.905L31.4629 440.871C31.6165 441.008 31.7701 441.146 31.9237 441.275L63.3051 381.051Z" fill="#80C34E"/>
<path d="M82.9809 394.356L54.1055 449.771C54.3237 449.771 54.542 449.779 54.7603 449.779C54.7603 449.779 54.7603 449.779 54.7683 449.779L83.3689 394.898C83.2396 394.712 83.1102 394.534 82.9809 394.356Z" fill="#80C34E"/>
<path d="M38.326 384.098C38.0108 384.268 37.6955 384.437 37.3802 384.615L20 417.969C20.0323 418.333 20.0647 418.689 20.1132 419.044L38.326 384.09V384.098Z" fill="#80C34E"/>
<path d="M78.4055 440.564C78.8744 440.136 79.3271 439.691 79.7636 439.238L89.0519 421.405C89.1651 420.791 89.2702 420.169 89.351 419.538L78.3975 440.556L78.4055 440.564Z" fill="#80C34E"/>
<path d="M32.3033 388.188C31.8829 388.544 31.4626 388.908 31.0584 389.288L20.1937 410.144C20.121 410.686 20.0563 411.235 20.0078 411.785L32.3033 388.188Z" fill="#80C34E"/>
<path d="M56.0455 380.016C55.8273 380.016 55.609 380 55.3827 380L26.5234 435.39C26.6528 435.568 26.7821 435.746 26.9195 435.924L56.0455 380.024V380.016Z" fill="#80C34E"/>
<path d="M85.4872 398.327C85.374 398.116 85.2608 397.906 85.1395 397.704L58.083 449.627C58.3174 449.602 58.56 449.578 58.7944 449.554L85.4872 398.327Z" fill="#80C34E"/>
<path d="M87.3137 402.295C87.2167 402.052 87.1197 401.81 87.0227 401.567L62.3267 448.963C62.5853 448.906 62.8359 448.85 63.0865 448.785L87.3137 402.295Z" fill="#80C34E"/>
<path d="M89.6018 412.869C89.5776 412.489 89.5533 412.117 89.521 411.745L72.0923 445.188C72.4237 445.002 72.7471 444.808 73.0623 444.606L89.6018 412.869Z" fill="#80C34E"/>
<path d="M81.0326 391.915C80.8952 391.754 80.7497 391.6 80.6122 391.438L50.3545 449.505C50.5647 449.529 50.7748 449.553 50.985 449.577L81.0326 391.915Z" fill="#80C34E"/>
<path d="M88.769 406.991C88.7043 406.7 88.6315 406.409 88.5507 406.118L66.9346 447.604C67.2175 447.499 67.5004 447.394 67.7753 447.281L88.7609 406.999L88.769 406.991Z" fill="#80C34E"/>
<path d="M75.7783 387.032C75.6166 386.911 75.455 386.79 75.2933 386.677L43.3945 447.896C43.5805 447.96 43.7745 448.025 43.9685 448.09L75.7783 387.041V387.032Z" fill="#80C34E"/>
<path d="M69.8689 383.42C69.6911 383.331 69.5132 383.25 69.3273 383.169L37.1133 444.994C37.283 445.091 37.4528 445.196 37.6306 445.293L69.8689 383.42Z" fill="#80C34E"/>
<path d="M78.4948 389.305C78.3412 389.167 78.1957 389.03 78.0421 388.893L46.79 448.875C46.9921 448.923 47.1942 448.963 47.3882 449.012L78.4948 389.313V389.305Z" fill="#80C34E"/>
<path d="M72.9005 385.068C72.7308 384.963 72.561 384.866 72.3913 384.761L40.1772 446.586C40.3551 446.667 40.541 446.747 40.7189 446.828L72.9005 385.06V385.068Z" fill="#80C34E"/>
<path d="M66.668 382.078C66.482 382.013 66.288 381.941 66.1021 381.876L34.2114 443.087C34.3731 443.208 34.5348 443.321 34.6965 443.434L66.668 382.07V382.078Z" fill="#80C34E"/>
<g opacity="0.35">
<path d="M220.316 75.3046C219.823 72.5804 219.12 69.8803 217.98 67.3501C215.806 62.4998 211.966 58.757 206.711 57.5283C201.344 56.2672 195.628 57.4394 190.519 59.2178C179.865 62.9202 169.93 69.0315 161.418 76.3797C152.881 83.7441 145.63 92.6201 140.19 102.499C134.919 112.062 131.96 122.732 126.382 132.134C123.707 136.645 120.336 140.832 115.89 143.694C111.274 146.66 105.898 147.881 100.45 147.833C89.3666 147.744 78.8334 143.484 67.896 142.222C62.8274 141.64 57.6134 141.737 52.7146 143.322C47.5814 144.979 43.1272 148.229 39.6835 152.343C31.6482 161.939 29.8374 174.816 30.476 186.95C31.058 198.106 33.6206 212.891 21.3655 218.873C14.4943 222.236 7.21885 221.5 0 219.851V220.627C8.52843 222.495 17.8329 223.182 24.9709 217.572C34.2511 210.272 31.8098 197.192 31.2763 186.95C30.5973 174.097 32.7314 160.201 42.238 150.751C46.288 146.717 51.3969 144.017 57.0475 143.104C62.5688 142.214 68.2113 142.885 73.6598 143.936C83.8858 145.901 94.3139 149.651 104.863 148.407C114.968 147.21 122.357 140.662 127.328 132.126C132.696 122.902 135.638 112.506 140.755 103.153C146.309 92.992 153.787 83.9138 162.614 76.4282C171.361 69.0072 181.821 62.5887 192.88 59.3148C198.652 57.6091 205.41 56.8008 210.826 60.0343C216.266 63.284 218.481 69.6216 219.557 75.539C220.365 80.2599 220.599 85.0456 220.244 89.8231C218.797 109.321 208.069 127.17 194.4 140.678C179.428 155.456 160.237 165.011 140.966 172.892C131.095 176.926 121.079 180.564 111.12 184.355C101.824 187.888 92.301 191.332 83.6514 196.311C76.0607 200.693 68.6963 206.675 64.9777 214.815C61.8816 221.614 61.1056 229.883 63.8541 236.924C66.7723 244.402 73.587 249.034 81.5334 249.616C91.0319 250.311 100.11 246.148 108.218 241.686C117.345 236.666 126.989 230.667 137.805 231.08C147.19 231.435 155.5 237.029 161.022 244.378C172.032 259.042 170.924 279.437 161.272 294.481C156.26 302.282 149.025 308.45 140.4 311.918C130.538 315.871 119.624 316.429 109.188 314.99C86.7475 311.902 67.1685 299.663 46.6517 290.973C31.9877 284.764 15.7473 280.116 0 281.943V282.638C0.258682 282.606 0.525448 282.574 0.792214 282.549C24.2353 280.157 46.1667 291.385 66.6915 301.11C85.7693 310.148 106.343 318.862 127.935 315.968C137.247 314.723 146.212 311.166 153.334 304.942C159.647 299.428 164.376 292.169 167.109 284.263C172.703 268.087 169.275 249.171 155.937 237.773C149.462 232.236 141.224 229.39 132.72 230.554C122.446 231.953 113.61 238.008 104.637 242.729C96.0519 247.239 85.0175 251.176 75.4382 247.514C66.8694 244.232 62.7789 235.615 63.0134 226.811C63.5792 205.907 84.3708 195.786 101.234 189.06C121.007 181.17 141.362 174.59 160.431 165.027C178.378 156.03 194.82 144.203 206.542 127.68C217.277 112.531 223.526 93.9539 220.341 75.3369L220.316 75.3046Z" fill="#80C34E"/>
</g>
<path d="M312.44 586.39C312.44 586.39 312.407 586.405 312.39 586.412C309.383 587.791 306.192 588.693 302.907 589.111C288.219 590.973 274.357 583.978 262.529 576.051C249.76 567.486 237.265 556.246 221.433 554.205C215.047 553.38 208.333 554.379 203.244 558.567C196.748 563.921 194.764 572.62 190.633 579.616C184.757 589.573 173.82 593.797 162.831 593.185L161.77 592.312C162.969 592.419 164.186 592.467 165.419 592.456C172.385 592.386 179.49 590.327 184.789 585.653C191.098 580.082 193.101 571.588 197.271 564.571C200.523 559.102 205.284 555.095 211.576 553.718C217.34 552.45 223.382 553.337 228.95 555.081C244.37 559.913 256.331 571.854 270.063 579.871C282.516 587.141 298.267 592.004 312.116 585.664C316.017 583.785 319.449 581.165 322.321 577.927C328.204 571.295 331.563 562.732 333.568 554.197C335.52 545.88 336.42 537.138 336.139 528.596C335.603 512.361 328.623 494.605 312.166 488.679C298.506 483.756 285.717 491.722 274.756 499.118C264.759 505.864 253.869 513.811 241.173 513.01C224.854 511.981 213.852 497.856 202.321 488.079C196.424 483.083 189.743 478.404 182.1 476.65C174.228 474.845 166.523 476.933 160.078 481.639C147.848 490.567 141.356 505.218 128.738 513.765C123.318 517.44 116.886 519.738 110.279 518.71C102.184 517.443 95.9183 511.673 90.3704 506.074C84.2757 499.931 78.3014 494.023 70.7341 489.684C63.3423 485.436 55.1768 482.561 46.7555 481.246C40.0789 480.213 33.3275 480.239 26.722 481.233L25.9041 480.561C36.1024 478.952 46.6333 479.638 56.632 482.701C64.6592 485.158 72.2464 489.054 78.8926 494.195C85.8862 499.602 91.2588 506.763 98.2257 512.189C104.907 517.402 112.968 519.729 121.149 516.807C128.386 514.218 134.311 508.719 139.3 503.047C148.933 492.098 157.982 476.514 174.139 475.232C189.875 473.992 202.075 486.736 212.65 496.48C218.776 502.115 225.401 507.752 233.36 510.572C240.517 513.108 247.982 512.57 254.965 509.794C267.339 504.878 277.027 495.135 289.124 489.678C294.768 487.13 300.976 485.703 307.175 486.616C314.848 487.735 321.645 492.247 326.585 498.089C337.424 510.897 338.057 528.771 336.055 544.645C334.04 560.687 328.017 578.865 312.416 586.381L312.44 586.39Z" fill="#80C34E"/>
<g opacity="0.35">
<path d="M413.587 29.964C419.796 42.0412 419.674 57.069 410.475 67.6022C406.409 72.2747 400.912 75.6537 394.752 76.648C389.142 77.5534 383.467 76.4864 378.164 74.6028C367.509 70.8196 358.165 64.1019 347.454 60.4561C342.458 58.7585 337.155 57.8208 331.892 58.516C326.177 59.2759 320.963 61.9436 316.598 65.6459C305.935 74.6998 301.489 88.2887 296.477 100.859C291.578 113.155 285.014 124.69 275.976 134.439C267.294 143.8 256.511 151.351 244.247 155.166C243.504 155.401 242.752 155.611 242 155.813V156.629C253.584 153.606 264.166 147.05 272.799 138.796C283.907 128.19 291.724 114.965 297.358 100.778C303.381 85.613 309.613 66.8019 326.508 60.6421C340.235 55.6382 353.759 63.7381 365.642 69.8172C376.895 75.5809 390.031 81.2073 402.343 74.9827C415.576 68.2893 421.073 52.6876 417.702 38.7268C413.911 23.0119 401.122 11.7673 386.579 5.90649C369.741 -0.875831 351.019 -0.988963 333.275 1.45235C302.879 5.63977 272.751 17.8867 242 17.9918V18.7679C273.713 18.6628 303.534 6.10862 334.705 2.05055C350.178 0.0376745 366.24 0.0619202 381.236 4.82329C394.509 9.04304 407.064 17.2643 413.571 29.9235L413.587 29.964Z" fill="#80C34E"/>
</g>
<path d="M102.663 356.493C101.927 356.493 101.329 355.895 101.329 355.159C101.329 354.423 101.927 353.825 102.663 353.825C103.399 353.825 103.997 354.423 103.997 355.159C103.997 355.895 103.399 356.493 102.663 356.493ZM102.663 354.027C102.04 354.027 101.531 354.537 101.531 355.159C101.531 355.781 102.04 356.291 102.663 356.291C103.285 356.291 103.795 355.781 103.795 355.159C103.795 354.537 103.285 354.027 102.663 354.027Z" fill="#80C34E"/>
<path d="M96.1068 356.493C95.3711 356.493 94.7729 355.895 94.7729 355.159C94.7729 354.423 95.3711 353.825 96.1068 353.825C96.8424 353.825 97.4406 354.423 97.4406 355.159C97.4406 355.895 96.8424 356.493 96.1068 356.493ZM96.1068 354.027C95.4843 354.027 94.975 354.537 94.975 355.159C94.975 355.781 95.4843 356.291 96.1068 356.291C96.7292 356.291 97.2385 355.781 97.2385 355.159C97.2385 354.537 96.7292 354.027 96.1068 354.027Z" fill="#80C34E"/>
<path d="M89.5589 356.493C88.8233 356.493 88.2251 355.895 88.2251 355.159C88.2251 354.423 88.8233 353.825 89.5589 353.825C90.2946 353.825 90.8928 354.423 90.8928 355.159C90.8928 355.895 90.2946 356.493 89.5589 356.493ZM89.5589 354.027C88.9365 354.027 88.4272 354.537 88.4272 355.159C88.4272 355.781 88.9365 356.291 89.5589 356.291C90.1814 356.291 90.6907 355.781 90.6907 355.159C90.6907 354.537 90.1814 354.027 89.5589 354.027Z" fill="#80C34E"/>
<path d="M83.0033 356.493C82.2676 356.493 81.6694 355.895 81.6694 355.159C81.6694 354.423 82.2676 353.825 83.0033 353.825C83.7389 353.825 84.3371 354.423 84.3371 355.159C84.3371 355.895 83.7389 356.493 83.0033 356.493ZM83.0033 354.027C82.3808 354.027 81.8715 354.537 81.8715 355.159C81.8715 355.781 82.3808 356.291 83.0033 356.291C83.6257 356.291 84.135 355.781 84.135 355.159C84.135 354.537 83.6257 354.027 83.0033 354.027Z" fill="#80C34E"/>
<path d="M76.4471 356.493C75.7115 356.493 75.1133 355.895 75.1133 355.159C75.1133 354.423 75.7115 353.825 76.4471 353.825C77.1827 353.825 77.781 354.423 77.781 355.159C77.781 355.895 77.1827 356.493 76.4471 356.493ZM76.4471 354.027C75.8247 354.027 75.3154 354.537 75.3154 355.159C75.3154 355.781 75.8247 356.291 76.4471 356.291C77.0696 356.291 77.5789 355.781 77.5789 355.159C77.5789 354.537 77.0696 354.027 76.4471 354.027Z" fill="#80C34E"/>
<path d="M69.8993 356.493C69.1637 356.493 68.5654 355.895 68.5654 355.159C68.5654 354.423 69.1637 353.825 69.8993 353.825C70.6349 353.825 71.2331 354.423 71.2331 355.159C71.2331 355.895 70.6349 356.493 69.8993 356.493ZM69.8993 354.027C69.2768 354.027 68.7675 354.537 68.7675 355.159C68.7675 355.781 69.2768 356.291 69.8993 356.291C70.5217 356.291 71.031 355.781 71.031 355.159C71.031 354.537 70.5217 354.027 69.8993 354.027Z" fill="#80C34E"/>
<path d="M63.3436 356.493C62.608 356.493 62.0098 355.895 62.0098 355.159C62.0098 354.423 62.608 353.825 63.3436 353.825C64.0792 353.825 64.6774 354.423 64.6774 355.159C64.6774 355.895 64.0792 356.493 63.3436 356.493ZM63.3436 354.027C62.7211 354.027 62.2119 354.537 62.2119 355.159C62.2119 355.781 62.7211 356.291 63.3436 356.291C63.966 356.291 64.4753 355.781 64.4753 355.159C64.4753 354.537 63.966 354.027 63.3436 354.027Z" fill="#80C34E"/>
<path d="M56.787 356.493C56.0513 356.493 55.4531 355.895 55.4531 355.159C55.4531 354.423 56.0513 353.825 56.787 353.825C57.5226 353.825 58.1208 354.423 58.1208 355.159C58.1208 355.895 57.5226 356.493 56.787 356.493ZM56.787 354.027C56.1645 354.027 55.6552 354.537 55.6552 355.159C55.6552 355.781 56.1645 356.291 56.787 356.291C57.4094 356.291 57.9187 355.781 57.9187 355.159C57.9187 354.537 57.4094 354.027 56.787 354.027Z" fill="#80C34E"/>
<path d="M50.2313 356.493C49.4957 356.493 48.8975 355.895 48.8975 355.159C48.8975 354.423 49.4957 353.825 50.2313 353.825C50.9669 353.825 51.5651 354.423 51.5651 355.159C51.5651 355.895 50.9669 356.493 50.2313 356.493ZM50.2313 354.027C49.6088 354.027 49.0996 354.537 49.0996 355.159C49.0996 355.781 49.6088 356.291 50.2313 356.291C50.8537 356.291 51.363 355.781 51.363 355.159C51.363 354.537 50.8537 354.027 50.2313 354.027Z" fill="#80C34E"/>
<path d="M102.663 349.96C101.927 349.96 101.329 349.361 101.329 348.626C101.329 347.89 101.927 347.292 102.663 347.292C103.399 347.292 103.997 347.89 103.997 348.626C103.997 349.361 103.399 349.96 102.663 349.96ZM102.663 347.494C102.04 347.494 101.531 348.003 101.531 348.626C101.531 349.248 102.04 349.758 102.663 349.758C103.285 349.758 103.795 349.248 103.795 348.626C103.795 348.003 103.285 347.494 102.663 347.494Z" fill="#80C34E"/>
<path d="M96.1073 349.96C95.3716 349.96 94.7734 349.361 94.7734 348.626C94.7734 347.89 95.3716 347.292 96.1073 347.292C96.8429 347.292 97.4411 347.89 97.4411 348.626C97.4411 349.361 96.8429 349.96 96.1073 349.96ZM96.1073 347.494C95.4848 347.494 94.9755 348.003 94.9755 348.626C94.9755 349.248 95.4848 349.758 96.1073 349.758C96.7297 349.758 97.239 349.248 97.239 348.626C97.239 348.003 96.7297 347.494 96.1073 347.494Z" fill="#80C34E"/>
<path d="M89.5589 349.96C88.8233 349.96 88.2251 349.361 88.2251 348.626C88.2251 347.89 88.8233 347.292 89.5589 347.292C90.2946 347.292 90.8928 347.89 90.8928 348.626C90.8928 349.361 90.2946 349.96 89.5589 349.96ZM89.5589 347.494C88.9365 347.494 88.4272 348.003 88.4272 348.626C88.4272 349.248 88.9365 349.758 89.5589 349.758C90.1814 349.758 90.6907 349.248 90.6907 348.626C90.6907 348.003 90.1814 347.494 89.5589 347.494Z" fill="#80C34E"/>
<path d="M83.0033 349.96C82.2676 349.96 81.6694 349.361 81.6694 348.626C81.6694 347.89 82.2676 347.292 83.0033 347.292C83.7389 347.292 84.3371 347.89 84.3371 348.626C84.3371 349.361 83.7389 349.96 83.0033 349.96ZM83.0033 347.494C82.3808 347.494 81.8715 348.003 81.8715 348.626C81.8715 349.248 82.3808 349.758 83.0033 349.758C83.6257 349.758 84.135 349.248 84.135 348.626C84.135 348.003 83.6257 347.494 83.0033 347.494Z" fill="#80C34E"/>
<path d="M76.4471 349.96C75.7115 349.96 75.1133 349.361 75.1133 348.626C75.1133 347.89 75.7115 347.292 76.4471 347.292C77.1827 347.292 77.781 347.89 77.781 348.626C77.781 349.361 77.1827 349.96 76.4471 349.96ZM76.4471 347.494C75.8247 347.494 75.3154 348.003 75.3154 348.626C75.3154 349.248 75.8247 349.758 76.4471 349.758C77.0696 349.758 77.5789 349.248 77.5789 348.626C77.5789 348.003 77.0696 347.494 76.4471 347.494Z" fill="#80C34E"/>
<path d="M69.8993 349.96C69.1637 349.96 68.5654 349.361 68.5654 348.626C68.5654 347.89 69.1637 347.292 69.8993 347.292C70.6349 347.292 71.2331 347.89 71.2331 348.626C71.2331 349.361 70.6349 349.96 69.8993 349.96ZM69.8993 347.494C69.2768 347.494 68.7675 348.003 68.7675 348.626C68.7675 349.248 69.2768 349.758 69.8993 349.758C70.5217 349.758 71.031 349.248 71.031 348.626C71.031 348.003 70.5217 347.494 69.8993 347.494Z" fill="#80C34E"/>
<path d="M63.3431 349.96C62.6075 349.96 62.0093 349.361 62.0093 348.626C62.0093 347.89 62.6075 347.292 63.3431 347.292C64.0787 347.292 64.6769 347.89 64.6769 348.626C64.6769 349.361 64.0787 349.96 63.3431 349.96ZM63.3431 347.494C62.7206 347.494 62.2114 348.003 62.2114 348.626C62.2114 349.248 62.7206 349.758 63.3431 349.758C63.9656 349.758 64.4748 349.248 64.4748 348.626C64.4748 348.003 63.9656 347.494 63.3431 347.494Z" fill="#80C34E"/>
<path d="M56.7874 349.96C56.0518 349.96 55.4536 349.361 55.4536 348.626C55.4536 347.89 56.0518 347.292 56.7874 347.292C57.5231 347.292 58.1213 347.89 58.1213 348.626C58.1213 349.361 57.5231 349.96 56.7874 349.96ZM56.7874 347.494C56.165 347.494 55.6557 348.003 55.6557 348.626C55.6557 349.248 56.165 349.758 56.7874 349.758C57.4099 349.758 57.9192 349.248 57.9192 348.626C57.9192 348.003 57.4099 347.494 56.7874 347.494Z" fill="#80C34E"/>
<path d="M50.2313 349.96C49.4957 349.96 48.8975 349.361 48.8975 348.626C48.8975 347.89 49.4957 347.292 50.2313 347.292C50.9669 347.292 51.5651 347.89 51.5651 348.626C51.5651 349.361 50.9669 349.96 50.2313 349.96ZM50.2313 347.494C49.6088 347.494 49.0996 348.003 49.0996 348.626C49.0996 349.248 49.6088 349.758 50.2313 349.758C50.8537 349.758 51.363 349.248 51.363 348.626C51.363 348.003 50.8537 347.494 50.2313 347.494Z" fill="#80C34E"/>
<path d="M43.6834 349.96C42.9478 349.96 42.3496 349.361 42.3496 348.626C42.3496 347.89 42.9478 347.292 43.6834 347.292C44.4191 347.292 45.0173 347.89 45.0173 348.626C45.0173 349.361 44.4191 349.96 43.6834 349.96ZM43.6834 347.494C43.061 347.494 42.5517 348.003 42.5517 348.626C42.5517 349.248 43.061 349.758 43.6834 349.758C44.3059 349.758 44.8152 349.248 44.8152 348.626C44.8152 348.003 44.3059 347.494 43.6834 347.494Z" fill="#80C34E"/>
<path d="M96.1078 343.421C95.3721 343.421 94.7739 342.822 94.7739 342.087C94.7739 341.351 95.3721 340.753 96.1078 340.753C96.8434 340.753 97.4416 341.351 97.4416 342.087C97.4416 342.822 96.8434 343.421 96.1078 343.421ZM96.1078 340.955C95.4853 340.955 94.976 341.464 94.976 342.087C94.976 342.709 95.4853 343.219 96.1078 343.219C96.7302 343.219 97.2395 342.709 97.2395 342.087C97.2395 341.464 96.7302 340.955 96.1078 340.955Z" fill="#80C34E"/>
<path d="M89.5594 343.421C88.8238 343.421 88.2256 342.822 88.2256 342.087C88.2256 341.351 88.8238 340.753 89.5594 340.753C90.295 340.753 90.8933 341.351 90.8933 342.087C90.8933 342.822 90.295 343.421 89.5594 343.421ZM89.5594 340.955C88.937 340.955 88.4277 341.464 88.4277 342.087C88.4277 342.709 88.937 343.219 89.5594 343.219C90.1819 343.219 90.6912 342.709 90.6912 342.087C90.6912 341.464 90.1819 340.955 89.5594 340.955Z" fill="#80C34E"/>
<path d="M83.0037 343.421C82.2681 343.421 81.6699 342.822 81.6699 342.087C81.6699 341.351 82.2681 340.753 83.0037 340.753C83.7394 340.753 84.3376 341.351 84.3376 342.087C84.3376 342.822 83.7394 343.421 83.0037 343.421ZM83.0037 340.955C82.3813 340.955 81.872 341.464 81.872 342.087C81.872 342.709 82.3813 343.219 83.0037 343.219C83.6262 343.219 84.1355 342.709 84.1355 342.087C84.1355 341.464 83.6262 340.955 83.0037 340.955Z" fill="#80C34E"/>
<path d="M76.4476 343.421C75.712 343.421 75.1138 342.822 75.1138 342.087C75.1138 341.351 75.712 340.753 76.4476 340.753C77.1832 340.753 77.7814 341.351 77.7814 342.087C77.7814 342.822 77.1832 343.421 76.4476 343.421ZM76.4476 340.955C75.8251 340.955 75.3159 341.464 75.3159 342.087C75.3159 342.709 75.8251 343.219 76.4476 343.219C77.07 343.219 77.5793 342.709 77.5793 342.087C77.5793 341.464 77.07 340.955 76.4476 340.955Z" fill="#80C34E"/>
<path d="M69.8998 343.421C69.1641 343.421 68.5659 342.822 68.5659 342.087C68.5659 341.351 69.1641 340.753 69.8998 340.753C70.6354 340.753 71.2336 341.351 71.2336 342.087C71.2336 342.822 70.6354 343.421 69.8998 343.421ZM69.8998 340.955C69.2773 340.955 68.768 341.464 68.768 342.087C68.768 342.709 69.2773 343.219 69.8998 343.219C70.5222 343.219 71.0315 342.709 71.0315 342.087C71.0315 341.464 70.5222 340.955 69.8998 340.955Z" fill="#80C34E"/>
<path d="M63.3436 343.421C62.608 343.421 62.0098 342.822 62.0098 342.087C62.0098 341.351 62.608 340.753 63.3436 340.753C64.0792 340.753 64.6774 341.351 64.6774 342.087C64.6774 342.822 64.0792 343.421 63.3436 343.421ZM63.3436 340.955C62.7211 340.955 62.2119 341.464 62.2119 342.087C62.2119 342.709 62.7211 343.219 63.3436 343.219C63.966 343.219 64.4753 342.709 64.4753 342.087C64.4753 341.464 63.966 340.955 63.3436 340.955Z" fill="#80C34E"/>
<path d="M56.7879 343.421C56.0523 343.421 55.4541 342.822 55.4541 342.087C55.4541 341.351 56.0523 340.753 56.7879 340.753C57.5236 340.753 58.1218 341.351 58.1218 342.087C58.1218 342.822 57.5236 343.421 56.7879 343.421ZM56.7879 340.955C56.1655 340.955 55.6562 341.464 55.6562 342.087C55.6562 342.709 56.1655 343.219 56.7879 343.219C57.4104 343.219 57.9197 342.709 57.9197 342.087C57.9197 341.464 57.4104 340.955 56.7879 340.955Z" fill="#80C34E"/>
<path d="M50.2318 343.421C49.4961 343.421 48.8979 342.822 48.8979 342.087C48.8979 341.351 49.4961 340.753 50.2318 340.753C50.9674 340.753 51.5656 341.351 51.5656 342.087C51.5656 342.822 50.9674 343.421 50.2318 343.421ZM50.2318 340.955C49.6093 340.955 49.1 341.464 49.1 342.087C49.1 342.709 49.6093 343.219 50.2318 343.219C50.8542 343.219 51.3635 342.709 51.3635 342.087C51.3635 341.464 50.8542 340.955 50.2318 340.955Z" fill="#80C34E"/>
<path d="M43.6839 343.421C42.9483 343.421 42.3501 342.822 42.3501 342.087C42.3501 341.351 42.9483 340.753 43.6839 340.753C44.4196 340.753 45.0178 341.351 45.0178 342.087C45.0178 342.822 44.4196 343.421 43.6839 343.421ZM43.6839 340.955C43.0615 340.955 42.5522 341.464 42.5522 342.087C42.5522 342.709 43.0615 343.219 43.6839 343.219C44.3064 343.219 44.8157 342.709 44.8157 342.087C44.8157 341.464 44.3064 340.955 43.6839 340.955Z" fill="#80C34E"/>
<path d="M439.944 348.49C438.659 348.49 437.616 347.447 437.616 346.162C437.616 344.877 438.659 343.834 439.944 343.834C441.23 343.834 442.272 344.877 442.272 346.162C442.272 347.447 441.23 348.49 439.944 348.49ZM439.944 344.182C438.853 344.182 437.972 345.071 437.972 346.154C437.972 347.237 438.861 348.126 439.944 348.126C441.028 348.126 441.917 347.237 441.917 346.154C441.917 345.071 441.028 344.182 439.944 344.182Z" fill="#80C34E"/>
<path d="M428.481 348.49C427.196 348.49 426.153 347.447 426.153 346.162C426.153 344.877 427.196 343.834 428.481 343.834C429.767 343.834 430.81 344.877 430.81 346.162C430.81 347.447 429.767 348.49 428.481 348.49ZM428.481 344.182C427.39 344.182 426.509 345.071 426.509 346.154C426.509 347.237 427.398 348.126 428.481 348.126C429.565 348.126 430.454 347.237 430.454 346.154C430.454 345.071 429.565 344.182 428.481 344.182Z" fill="#80C34E"/>
<path d="M417.019 348.49C415.733 348.49 414.69 347.447 414.69 346.162C414.69 344.877 415.733 343.834 417.019 343.834C418.304 343.834 419.347 344.877 419.347 346.162C419.347 347.447 418.304 348.49 417.019 348.49ZM417.019 344.182C415.927 344.182 415.046 345.071 415.046 346.154C415.046 347.237 415.935 348.126 417.019 348.126C418.102 348.126 418.991 347.237 418.991 346.154C418.991 345.071 418.102 344.182 417.019 344.182Z" fill="#80C34E"/>
<path d="M405.556 348.49C404.27 348.49 403.228 347.447 403.228 346.162C403.228 344.877 404.27 343.834 405.556 343.834C406.841 343.834 407.884 344.877 407.884 346.162C407.884 347.447 406.841 348.49 405.556 348.49ZM405.556 344.182C404.464 344.182 403.583 345.071 403.583 346.154C403.583 347.237 404.472 348.126 405.556 348.126C406.639 348.126 407.528 347.237 407.528 346.154C407.528 345.071 406.639 344.182 405.556 344.182Z" fill="#80C34E"/>
<path d="M394.101 348.49C392.816 348.49 391.773 347.447 391.773 346.162C391.773 344.877 392.816 343.834 394.101 343.834C395.386 343.834 396.429 344.877 396.429 346.162C396.429 347.447 395.386 348.49 394.101 348.49ZM394.101 344.182C393.01 344.182 392.129 345.071 392.129 346.154C392.129 347.237 393.018 348.126 394.101 348.126C395.184 348.126 396.074 347.237 396.074 346.154C396.074 345.071 395.184 344.182 394.101 344.182Z" fill="#80C34E"/>
<path d="M382.638 348.49C381.353 348.49 380.31 347.447 380.31 346.162C380.31 344.877 381.353 343.834 382.638 343.834C383.924 343.834 384.966 344.877 384.966 346.162C384.966 347.447 383.924 348.49 382.638 348.49ZM382.638 344.182C381.547 344.182 380.666 345.071 380.666 346.154C380.666 347.237 381.555 348.126 382.638 348.126C383.721 348.126 384.611 347.237 384.611 346.154C384.611 345.071 383.721 344.182 382.638 344.182Z" fill="#80C34E"/>
<path d="M371.175 348.49C369.89 348.49 368.847 347.447 368.847 346.162C368.847 344.877 369.89 343.834 371.175 343.834C372.461 343.834 373.503 344.877 373.503 346.162C373.503 347.447 372.461 348.49 371.175 348.49ZM371.175 344.182C370.084 344.182 369.203 345.071 369.203 346.154C369.203 347.237 370.092 348.126 371.175 348.126C372.259 348.126 373.148 347.237 373.148 346.154C373.148 345.071 372.259 344.182 371.175 344.182Z" fill="#80C34E"/>
<path d="M359.712 348.49C358.427 348.49 357.384 347.447 357.384 346.162C357.384 344.877 358.427 343.834 359.712 343.834C360.998 343.834 362.041 344.877 362.041 346.162C362.041 347.447 360.998 348.49 359.712 348.49ZM359.712 344.182C358.621 344.182 357.74 345.071 357.74 346.154C357.74 347.237 358.629 348.126 359.712 348.126C360.796 348.126 361.685 347.237 361.685 346.154C361.685 345.071 360.796 344.182 359.712 344.182Z" fill="#80C34E"/>
<path d="M348.25 348.49C346.964 348.49 345.921 347.447 345.921 346.162C345.921 344.877 346.964 343.834 348.25 343.834C349.535 343.834 350.578 344.877 350.578 346.162C350.578 347.447 349.535 348.49 348.25 348.49ZM348.25 344.182C347.158 344.182 346.277 345.071 346.277 346.154C346.277 347.237 347.166 348.126 348.25 348.126C349.333 348.126 350.222 347.237 350.222 346.154C350.222 345.071 349.333 344.182 348.25 344.182Z" fill="#80C34E"/>
<path d="M439.944 337.059C438.659 337.059 437.616 336.016 437.616 334.73C437.616 333.445 438.659 332.402 439.944 332.402C441.23 332.402 442.272 333.445 442.272 334.73C442.272 336.016 441.23 337.059 439.944 337.059ZM439.944 332.758C438.853 332.758 437.972 333.647 437.972 334.73C437.972 335.814 438.861 336.703 439.944 336.703C441.028 336.703 441.917 335.814 441.917 334.73C441.917 333.647 441.028 332.758 439.944 332.758Z" fill="#80C34E"/>
<path d="M428.481 337.059C427.196 337.059 426.153 336.016 426.153 334.73C426.153 333.445 427.196 332.402 428.481 332.402C429.767 332.402 430.81 333.445 430.81 334.73C430.81 336.016 429.767 337.059 428.481 337.059ZM428.481 332.758C427.39 332.758 426.509 333.647 426.509 334.73C426.509 335.814 427.398 336.703 428.481 336.703C429.565 336.703 430.454 335.814 430.454 334.73C430.454 333.647 429.565 332.758 428.481 332.758Z" fill="#80C34E"/>
<path d="M417.019 337.059C415.733 337.059 414.69 336.016 414.69 334.73C414.69 333.445 415.733 332.402 417.019 332.402C418.304 332.402 419.347 333.445 419.347 334.73C419.347 336.016 418.304 337.059 417.019 337.059ZM417.019 332.758C415.927 332.758 415.046 333.647 415.046 334.73C415.046 335.814 415.935 336.703 417.019 336.703C418.102 336.703 418.991 335.814 418.991 334.73C418.991 333.647 418.102 332.758 417.019 332.758Z" fill="#80C34E"/>
<path d="M405.556 337.059C404.27 337.059 403.228 336.016 403.228 334.73C403.228 333.445 404.27 332.402 405.556 332.402C406.841 332.402 407.884 333.445 407.884 334.73C407.884 336.016 406.841 337.059 405.556 337.059ZM405.556 332.758C404.464 332.758 403.583 333.647 403.583 334.73C403.583 335.814 404.472 336.703 405.556 336.703C406.639 336.703 407.528 335.814 407.528 334.73C407.528 333.647 406.639 332.758 405.556 332.758Z" fill="#80C34E"/>
<path d="M394.101 337.059C392.816 337.059 391.773 336.016 391.773 334.73C391.773 333.445 392.816 332.402 394.101 332.402C395.386 332.402 396.429 333.445 396.429 334.73C396.429 336.016 395.386 337.059 394.101 337.059ZM394.101 332.758C393.01 332.758 392.129 333.647 392.129 334.73C392.129 335.814 393.018 336.703 394.101 336.703C395.184 336.703 396.074 335.814 396.074 334.73C396.074 333.647 395.184 332.758 394.101 332.758Z" fill="#80C34E"/>
<path d="M382.638 337.059C381.353 337.059 380.31 336.016 380.31 334.73C380.31 333.445 381.353 332.402 382.638 332.402C383.924 332.402 384.966 333.445 384.966 334.73C384.966 336.016 383.924 337.059 382.638 337.059ZM382.638 332.758C381.547 332.758 380.666 333.647 380.666 334.73C380.666 335.814 381.555 336.703 382.638 336.703C383.721 336.703 384.611 335.814 384.611 334.73C384.611 333.647 383.721 332.758 382.638 332.758Z" fill="#80C34E"/>
<path d="M371.175 337.059C369.889 337.059 368.847 336.016 368.847 334.73C368.847 333.445 369.889 332.402 371.175 332.402C372.46 332.402 373.503 333.445 373.503 334.73C373.503 336.016 372.46 337.059 371.175 337.059ZM371.175 332.758C370.084 332.758 369.202 333.647 369.202 334.73C369.202 335.814 370.092 336.703 371.175 336.703C372.258 336.703 373.147 335.814 373.147 334.73C373.147 333.647 372.258 332.758 371.175 332.758Z" fill="#80C34E"/>
<path d="M359.712 337.059C358.427 337.059 357.384 336.016 357.384 334.73C357.384 333.445 358.427 332.402 359.712 332.402C360.998 332.402 362.041 333.445 362.041 334.73C362.041 336.016 360.998 337.059 359.712 337.059ZM359.712 332.758C358.621 332.758 357.74 333.647 357.74 334.73C357.74 335.814 358.629 336.703 359.712 336.703C360.796 336.703 361.685 335.814 361.685 334.73C361.685 333.647 360.796 332.758 359.712 332.758Z" fill="#80C34E"/>
<path d="M348.25 337.059C346.964 337.059 345.921 336.016 345.921 334.73C345.921 333.445 346.964 332.402 348.25 332.402C349.535 332.402 350.578 333.445 350.578 334.73C350.578 336.016 349.535 337.059 348.25 337.059ZM348.25 332.758C347.158 332.758 346.277 333.647 346.277 334.73C346.277 335.814 347.166 336.703 348.25 336.703C349.333 336.703 350.222 335.814 350.222 334.73C350.222 333.647 349.333 332.758 348.25 332.758Z" fill="#80C34E"/>
<path d="M336.795 337.059C335.51 337.059 334.467 336.016 334.467 334.73C334.467 333.445 335.51 332.402 336.795 332.402C338.08 332.402 339.123 333.445 339.123 334.73C339.123 336.016 338.08 337.059 336.795 337.059ZM336.795 332.758C335.704 332.758 334.822 333.647 334.822 334.73C334.822 335.814 335.712 336.703 336.795 336.703C337.878 336.703 338.767 335.814 338.767 334.73C338.767 333.647 337.878 332.758 336.795 332.758Z" fill="#80C34E"/>
<path d="M428.481 325.636C427.196 325.636 426.153 324.593 426.153 323.308C426.153 322.022 427.196 320.979 428.481 320.979C429.767 320.979 430.81 322.022 430.81 323.308C430.81 324.593 429.767 325.636 428.481 325.636ZM428.481 321.327C427.39 321.327 426.509 322.216 426.509 323.3C426.509 324.383 427.398 325.272 428.481 325.272C429.565 325.272 430.454 324.383 430.454 323.3C430.454 322.216 429.565 321.327 428.481 321.327Z" fill="#80C34E"/>
<path d="M417.019 325.636C415.734 325.636 414.691 324.593 414.691 323.308C414.691 322.022 415.734 320.979 417.019 320.979C418.304 320.979 419.347 322.022 419.347 323.308C419.347 324.593 418.304 325.636 417.019 325.636ZM417.019 321.327C415.928 321.327 415.047 322.216 415.047 323.3C415.047 324.383 415.936 325.272 417.019 325.272C418.102 325.272 418.991 324.383 418.991 323.3C418.991 322.216 418.102 321.327 417.019 321.327Z" fill="#80C34E"/>
<path d="M405.556 325.636C404.271 325.636 403.228 324.593 403.228 323.308C403.228 322.022 404.271 320.979 405.556 320.979C406.841 320.979 407.884 322.022 407.884 323.308C407.884 324.593 406.841 325.636 405.556 325.636ZM405.556 321.327C404.465 321.327 403.584 322.216 403.584 323.3C403.584 324.383 404.473 325.272 405.556 325.272C406.639 325.272 407.529 324.383 407.529 323.3C407.529 322.216 406.639 321.327 405.556 321.327Z" fill="#80C34E"/>
<path d="M394.101 325.636C392.816 325.636 391.773 324.593 391.773 323.308C391.773 322.022 392.816 320.979 394.101 320.979C395.386 320.979 396.429 322.022 396.429 323.308C396.429 324.593 395.386 325.636 394.101 325.636ZM394.101 321.327C393.01 321.327 392.129 322.216 392.129 323.3C392.129 324.383 393.018 325.272 394.101 325.272C395.184 325.272 396.074 324.383 396.074 323.3C396.074 322.216 395.184 321.327 394.101 321.327Z" fill="#80C34E"/>
<path d="M382.638 325.636C381.353 325.636 380.31 324.593 380.31 323.308C380.31 322.022 381.353 320.979 382.638 320.979C383.924 320.979 384.966 322.022 384.966 323.308C384.966 324.593 383.924 325.636 382.638 325.636ZM382.638 321.327C381.547 321.327 380.666 322.216 380.666 323.3C380.666 324.383 381.555 325.272 382.638 325.272C383.721 325.272 384.611 324.383 384.611 323.3C384.611 322.216 383.721 321.327 382.638 321.327Z" fill="#80C34E"/>
<path d="M371.175 325.636C369.89 325.636 368.847 324.593 368.847 323.308C368.847 322.022 369.89 320.979 371.175 320.979C372.461 320.979 373.503 322.022 373.503 323.308C373.503 324.593 372.461 325.636 371.175 325.636ZM371.175 321.327C370.084 321.327 369.203 322.216 369.203 323.3C369.203 324.383 370.092 325.272 371.175 325.272C372.259 325.272 373.148 324.383 373.148 323.3C373.148 322.216 372.259 321.327 371.175 321.327Z" fill="#80C34E"/>
<path d="M359.712 325.636C358.427 325.636 357.384 324.593 357.384 323.308C357.384 322.022 358.427 320.979 359.712 320.979C360.998 320.979 362.041 322.022 362.041 323.308C362.041 324.593 360.998 325.636 359.712 325.636ZM359.712 321.327C358.621 321.327 357.74 322.216 357.74 323.3C357.74 324.383 358.629 325.272 359.712 325.272C360.796 325.272 361.685 324.383 361.685 323.3C361.685 322.216 360.796 321.327 359.712 321.327Z" fill="#80C34E"/>
<path d="M348.25 325.636C346.964 325.636 345.921 324.593 345.921 323.308C345.921 322.022 346.964 320.979 348.25 320.979C349.535 320.979 350.578 322.022 350.578 323.308C350.578 324.593 349.535 325.636 348.25 325.636ZM348.25 321.327C347.158 321.327 346.277 322.216 346.277 323.3C346.277 324.383 347.166 325.272 348.25 325.272C349.333 325.272 350.222 324.383 350.222 323.3C350.222 322.216 349.333 321.327 348.25 321.327Z" fill="#80C34E"/>
<path d="M336.795 325.636C335.51 325.636 334.467 324.593 334.467 323.308C334.467 322.022 335.51 320.979 336.795 320.979C338.08 320.979 339.123 322.022 339.123 323.308C339.123 324.593 338.08 325.636 336.795 325.636ZM336.795 321.327C335.704 321.327 334.822 322.216 334.822 323.3C334.822 324.383 335.712 325.272 336.795 325.272C337.878 325.272 338.767 324.383 338.767 323.3C338.767 322.216 337.878 321.327 336.795 321.327Z" fill="#80C34E"/>
</svg>
