<svg width="638" height="761" viewBox="0 0 638 761" fill="none" xmlns="http://www.w3.org/2000/svg">
<path d="M515.909 354.232C518.963 354.232 521.438 351.756 521.438 348.702C521.438 345.648 518.963 343.173 515.909 343.173C512.855 343.173 510.379 345.648 510.379 348.702C510.379 351.756 512.855 354.232 515.909 354.232Z" fill="#80C34E"/>
<path d="M64.5294 257.059C67.5831 257.059 70.0587 254.583 70.0587 251.529C70.0587 248.476 67.5831 246 64.5294 246C61.4756 246 59 248.476 59 251.529C59 254.583 61.4756 257.059 64.5294 257.059Z" fill="#80C34E"/>
<path d="M595.529 421.059C598.583 421.059 601.059 418.583 601.059 415.529C601.059 412.476 598.583 410 595.529 410C592.476 410 590 412.476 590 415.529C590 418.583 592.476 421.059 595.529 421.059Z" fill="#80C34E"/>
<path d="M303.529 98.0587C306.583 98.0587 309.059 95.5831 309.059 92.5294C309.059 89.4756 306.583 87 303.529 87C300.476 87 298 89.4756 298 92.5294C298 95.5831 300.476 98.0587 303.529 98.0587Z" fill="#80C34E"/>
<path d="M248.529 217.059C251.583 217.059 254.059 214.583 254.059 211.529C254.059 208.476 251.583 206 248.529 206C245.476 206 243 208.476 243 211.529C243 214.583 245.476 217.059 248.529 217.059Z" fill="#80C34E"/>
<path d="M271.529 498.059C274.583 498.059 277.059 495.583 277.059 492.529C277.059 489.476 274.583 487 271.529 487C268.476 487 266 489.476 266 492.529C266 495.583 268.476 498.059 271.529 498.059Z" fill="#80C34E"/>
<mask id="mask0_96_183" style="mask-type:luminance" maskUnits="userSpaceOnUse" x="0" y="464" width="55" height="56">
<path d="M27.6389 519.112C42.7202 519.112 54.9461 506.886 54.9461 491.805C54.9461 476.724 42.7202 464.498 27.6389 464.498C12.5576 464.498 0.331787 476.724 0.331787 491.805C0.331787 506.886 12.5576 519.112 27.6389 519.112Z" fill="white"/>
</mask>
<g mask="url(#mask0_96_183)">
<path d="M1.64225 466.187C1.98602 466.187 2.26472 465.909 2.26472 465.565C2.26472 465.221 1.98602 464.942 1.64225 464.942C1.29847 464.942 1.01978 465.221 1.01978 465.565C1.01978 465.909 1.29847 466.187 1.64225 466.187Z" fill="#80C34E"/>
<path d="M8.14122 466.187C8.48499 466.187 8.76369 465.909 8.76369 465.565C8.76369 465.221 8.48499 464.942 8.14122 464.942C7.79745 464.942 7.5188 465.221 7.5188 465.565C7.5188 465.909 7.79745 466.187 8.14122 466.187Z" fill="#80C34E"/>
<path d="M14.6408 466.187C14.9846 466.187 15.2632 465.909 15.2632 465.565C15.2632 465.221 14.9846 464.942 14.6408 464.942C14.297 464.942 14.0183 465.221 14.0183 465.565C14.0183 465.909 14.297 466.187 14.6408 466.187Z" fill="#80C34E"/>
<path d="M21.1403 466.187C21.4841 466.187 21.7628 465.909 21.7628 465.565C21.7628 465.221 21.4841 464.942 21.1403 464.942C20.7965 464.942 20.5178 465.221 20.5178 465.565C20.5178 465.909 20.7965 466.187 21.1403 466.187Z" fill="#80C34E"/>
<path d="M27.6398 466.187C27.9835 466.187 28.2622 465.909 28.2622 465.565C28.2622 465.221 27.9835 464.942 27.6398 464.942C27.296 464.942 27.0173 465.221 27.0173 465.565C27.0173 465.909 27.296 466.187 27.6398 466.187Z" fill="#80C34E"/>
<path d="M34.1471 466.187C34.4909 466.187 34.7695 465.909 34.7695 465.565C34.7695 465.221 34.4909 464.942 34.1471 464.942C33.8034 464.942 33.5247 465.221 33.5247 465.565C33.5247 465.909 33.8034 466.187 34.1471 466.187Z" fill="#80C34E"/>
<path d="M40.6466 466.187C40.9904 466.187 41.2691 465.909 41.2691 465.565C41.2691 465.221 40.9904 464.942 40.6466 464.942C40.3029 464.942 40.0242 465.221 40.0242 465.565C40.0242 465.909 40.3029 466.187 40.6466 466.187Z" fill="#80C34E"/>
<path d="M47.1461 466.187C47.4899 466.187 47.7686 465.909 47.7686 465.565C47.7686 465.221 47.4899 464.942 47.1461 464.942C46.8023 464.942 46.5237 465.221 46.5237 465.565C46.5237 465.909 46.8023 466.187 47.1461 466.187Z" fill="#80C34E"/>
<path d="M53.6452 466.187C53.9889 466.187 54.2676 465.909 54.2676 465.565C54.2676 465.221 53.9889 464.942 53.6452 464.942C53.3014 464.942 53.0227 465.221 53.0227 465.565C53.0227 465.909 53.3014 466.187 53.6452 466.187Z" fill="#80C34E"/>
<path d="M1.64212 472.023C1.9859 472.023 2.26459 471.745 2.26459 471.401C2.26459 471.057 1.9859 470.778 1.64212 470.778C1.29835 470.778 1.01965 471.057 1.01965 471.401C1.01965 471.745 1.29835 472.023 1.64212 472.023Z" fill="#80C34E"/>
<path d="M8.14146 472.023C8.48524 472.023 8.76393 471.745 8.76393 471.401C8.76393 471.057 8.48524 470.778 8.14146 470.778C7.79769 470.778 7.51904 471.057 7.51904 471.401C7.51904 471.745 7.79769 472.023 8.14146 472.023Z" fill="#80C34E"/>
<path d="M14.6409 472.023C14.9847 472.023 15.2633 471.745 15.2633 471.401C15.2633 471.057 14.9847 470.778 14.6409 470.778C14.2971 470.778 14.0184 471.057 14.0184 471.401C14.0184 471.745 14.2971 472.023 14.6409 472.023Z" fill="#80C34E"/>
<path d="M21.1403 472.023C21.4841 472.023 21.7628 471.745 21.7628 471.401C21.7628 471.057 21.4841 470.778 21.1403 470.778C20.7965 470.778 20.5178 471.057 20.5178 471.401C20.5178 471.745 20.7965 472.023 21.1403 472.023Z" fill="#80C34E"/>
<path d="M27.6398 472.023C27.9835 472.023 28.2622 471.745 28.2622 471.401C28.2622 471.057 27.9835 470.778 27.6398 470.778C27.296 470.778 27.0173 471.057 27.0173 471.401C27.0173 471.745 27.296 472.023 27.6398 472.023Z" fill="#80C34E"/>
<path d="M34.1471 472.023C34.4909 472.023 34.7695 471.745 34.7695 471.401C34.7695 471.057 34.4909 470.778 34.1471 470.778C33.8034 470.778 33.5247 471.057 33.5247 471.401C33.5247 471.745 33.8034 472.023 34.1471 472.023Z" fill="#80C34E"/>
<path d="M40.6465 472.023C40.9903 472.023 41.269 471.745 41.269 471.401C41.269 471.057 40.9903 470.778 40.6465 470.778C40.3027 470.778 40.024 471.057 40.024 471.401C40.024 471.745 40.3027 472.023 40.6465 472.023Z" fill="#80C34E"/>
<path d="M47.1459 472.023C47.4896 472.023 47.7683 471.745 47.7683 471.401C47.7683 471.057 47.4896 470.778 47.1459 470.778C46.8021 470.778 46.5234 471.057 46.5234 471.401C46.5234 471.745 46.8021 472.023 47.1459 472.023Z" fill="#80C34E"/>
<path d="M53.6453 472.023C53.9891 472.023 54.2677 471.745 54.2677 471.401C54.2677 471.057 53.9891 470.778 53.6453 470.778C53.3015 470.778 53.0228 471.057 53.0228 471.401C53.0228 471.745 53.3015 472.023 53.6453 472.023Z" fill="#80C34E"/>
<path d="M1.64212 477.852C1.9859 477.852 2.26459 477.573 2.26459 477.229C2.26459 476.885 1.9859 476.607 1.64212 476.607C1.29835 476.607 1.01965 476.885 1.01965 477.229C1.01965 477.573 1.29835 477.852 1.64212 477.852Z" fill="#80C34E"/>
<path d="M8.14146 477.852C8.48524 477.852 8.76393 477.573 8.76393 477.229C8.76393 476.885 8.48524 476.607 8.14146 476.607C7.79769 476.607 7.51904 476.885 7.51904 477.229C7.51904 477.573 7.79769 477.852 8.14146 477.852Z" fill="#80C34E"/>
<path d="M14.6409 477.852C14.9847 477.852 15.2633 477.573 15.2633 477.229C15.2633 476.885 14.9847 476.607 14.6409 476.607C14.2971 476.607 14.0184 476.885 14.0184 477.229C14.0184 477.573 14.2971 477.852 14.6409 477.852Z" fill="#80C34E"/>
<path d="M21.1403 477.852C21.4841 477.852 21.7628 477.573 21.7628 477.229C21.7628 476.885 21.4841 476.607 21.1403 476.607C20.7965 476.607 20.5178 476.885 20.5178 477.229C20.5178 477.573 20.7965 477.852 21.1403 477.852Z" fill="#80C34E"/>
<path d="M27.6398 477.852C27.9835 477.852 28.2622 477.573 28.2622 477.229C28.2622 476.885 27.9835 476.607 27.6398 476.607C27.296 476.607 27.0173 476.885 27.0173 477.229C27.0173 477.573 27.296 477.852 27.6398 477.852Z" fill="#80C34E"/>
<path d="M34.1471 477.852C34.4909 477.852 34.7695 477.573 34.7695 477.229C34.7695 476.885 34.4909 476.607 34.1471 476.607C33.8034 476.607 33.5247 476.885 33.5247 477.229C33.5247 477.573 33.8034 477.852 34.1471 477.852Z" fill="#80C34E"/>
<path d="M40.6465 477.852C40.9903 477.852 41.269 477.573 41.269 477.229C41.269 476.885 40.9903 476.607 40.6465 476.607C40.3027 476.607 40.024 476.885 40.024 477.229C40.024 477.573 40.3027 477.852 40.6465 477.852Z" fill="#80C34E"/>
<path d="M47.1459 477.852C47.4896 477.852 47.7683 477.573 47.7683 477.229C47.7683 476.885 47.4896 476.607 47.1459 476.607C46.8021 476.607 46.5234 476.885 46.5234 477.229C46.5234 477.573 46.8021 477.852 47.1459 477.852Z" fill="#80C34E"/>
<path d="M53.6453 477.852C53.9891 477.852 54.2677 477.573 54.2677 477.229C54.2677 476.885 53.9891 476.607 53.6453 476.607C53.3015 476.607 53.0228 476.885 53.0228 477.229C53.0228 477.573 53.3015 477.852 53.6453 477.852Z" fill="#80C34E"/>
<path d="M1.64225 483.68C1.98602 483.68 2.26472 483.402 2.26472 483.058C2.26472 482.714 1.98602 482.436 1.64225 482.436C1.29847 482.436 1.01978 482.714 1.01978 483.058C1.01978 483.402 1.29847 483.68 1.64225 483.68Z" fill="#80C34E"/>
<path d="M8.14122 483.68C8.48499 483.68 8.76369 483.402 8.76369 483.058C8.76369 482.714 8.48499 482.436 8.14122 482.436C7.79745 482.436 7.5188 482.714 7.5188 483.058C7.5188 483.402 7.79745 483.68 8.14122 483.68Z" fill="#80C34E"/>
<path d="M14.6408 483.68C14.9846 483.68 15.2632 483.402 15.2632 483.058C15.2632 482.714 14.9846 482.436 14.6408 482.436C14.297 482.436 14.0183 482.714 14.0183 483.058C14.0183 483.402 14.297 483.68 14.6408 483.68Z" fill="#80C34E"/>
<path d="M21.1403 483.68C21.4841 483.68 21.7628 483.402 21.7628 483.058C21.7628 482.714 21.4841 482.436 21.1403 482.436C20.7965 482.436 20.5178 482.714 20.5178 483.058C20.5178 483.402 20.7965 483.68 21.1403 483.68Z" fill="#80C34E"/>
<path d="M27.6398 483.68C27.9835 483.68 28.2622 483.402 28.2622 483.058C28.2622 482.714 27.9835 482.436 27.6398 482.436C27.296 482.436 27.0173 482.714 27.0173 483.058C27.0173 483.402 27.296 483.68 27.6398 483.68Z" fill="#80C34E"/>
<path d="M34.1471 483.68C34.4909 483.68 34.7695 483.402 34.7695 483.058C34.7695 482.714 34.4909 482.436 34.1471 482.436C33.8034 482.436 33.5247 482.714 33.5247 483.058C33.5247 483.402 33.8034 483.68 34.1471 483.68Z" fill="#80C34E"/>
<path d="M40.6466 483.68C40.9904 483.68 41.2691 483.402 41.2691 483.058C41.2691 482.714 40.9904 482.436 40.6466 482.436C40.3029 482.436 40.0242 482.714 40.0242 483.058C40.0242 483.402 40.3029 483.68 40.6466 483.68Z" fill="#80C34E"/>
<path d="M47.1461 483.68C47.4899 483.68 47.7686 483.402 47.7686 483.058C47.7686 482.714 47.4899 482.436 47.1461 482.436C46.8023 482.436 46.5237 482.714 46.5237 483.058C46.5237 483.402 46.8023 483.68 47.1461 483.68Z" fill="#80C34E"/>
<path d="M53.6452 483.68C53.9889 483.68 54.2676 483.402 54.2676 483.058C54.2676 482.714 53.9889 482.436 53.6452 482.436C53.3014 482.436 53.0227 482.714 53.0227 483.058C53.0227 483.402 53.3014 483.68 53.6452 483.68Z" fill="#80C34E"/>
<path d="M1.64212 489.508C1.9859 489.508 2.26459 489.23 2.26459 488.886C2.26459 488.542 1.9859 488.263 1.64212 488.263C1.29835 488.263 1.01965 488.542 1.01965 488.886C1.01965 489.23 1.29835 489.508 1.64212 489.508Z" fill="#80C34E"/>
<path d="M8.14146 489.508C8.48524 489.508 8.76393 489.23 8.76393 488.886C8.76393 488.542 8.48524 488.263 8.14146 488.263C7.79769 488.263 7.51904 488.542 7.51904 488.886C7.51904 489.23 7.79769 489.508 8.14146 489.508Z" fill="#80C34E"/>
<path d="M14.6409 489.508C14.9847 489.508 15.2633 489.23 15.2633 488.886C15.2633 488.542 14.9847 488.263 14.6409 488.263C14.2971 488.263 14.0184 488.542 14.0184 488.886C14.0184 489.23 14.2971 489.508 14.6409 489.508Z" fill="#80C34E"/>
<path d="M21.1403 489.508C21.4841 489.508 21.7628 489.23 21.7628 488.886C21.7628 488.542 21.4841 488.263 21.1403 488.263C20.7965 488.263 20.5178 488.542 20.5178 488.886C20.5178 489.23 20.7965 489.508 21.1403 489.508Z" fill="#80C34E"/>
<path d="M27.6398 489.508C27.9835 489.508 28.2622 489.23 28.2622 488.886C28.2622 488.542 27.9835 488.263 27.6398 488.263C27.296 488.263 27.0173 488.542 27.0173 488.886C27.0173 489.23 27.296 489.508 27.6398 489.508Z" fill="#80C34E"/>
<path d="M34.1471 489.508C34.4909 489.508 34.7695 489.23 34.7695 488.886C34.7695 488.542 34.4909 488.263 34.1471 488.263C33.8034 488.263 33.5247 488.542 33.5247 488.886C33.5247 489.23 33.8034 489.508 34.1471 489.508Z" fill="#80C34E"/>
<path d="M40.6465 489.508C40.9903 489.508 41.269 489.23 41.269 488.886C41.269 488.542 40.9903 488.263 40.6465 488.263C40.3027 488.263 40.024 488.542 40.024 488.886C40.024 489.23 40.3027 489.508 40.6465 489.508Z" fill="#80C34E"/>
<path d="M47.1459 489.508C47.4896 489.508 47.7683 489.23 47.7683 488.886C47.7683 488.542 47.4896 488.263 47.1459 488.263C46.8021 488.263 46.5234 488.542 46.5234 488.886C46.5234 489.23 46.8021 489.508 47.1459 489.508Z" fill="#80C34E"/>
<path d="M53.6453 489.508C53.9891 489.508 54.2677 489.23 54.2677 488.886C54.2677 488.542 53.9891 488.263 53.6453 488.263C53.3015 488.263 53.0228 488.542 53.0228 488.886C53.0228 489.23 53.3015 489.508 53.6453 489.508Z" fill="#80C34E"/>
<path d="M1.64212 495.337C1.9859 495.337 2.26459 495.058 2.26459 494.714C2.26459 494.371 1.9859 494.092 1.64212 494.092C1.29835 494.092 1.01965 494.371 1.01965 494.714C1.01965 495.058 1.29835 495.337 1.64212 495.337Z" fill="#80C34E"/>
<path d="M8.14146 495.337C8.48524 495.337 8.76393 495.058 8.76393 494.714C8.76393 494.371 8.48524 494.092 8.14146 494.092C7.79769 494.092 7.51904 494.371 7.51904 494.714C7.51904 495.058 7.79769 495.337 8.14146 495.337Z" fill="#80C34E"/>
<path d="M14.6409 495.337C14.9847 495.337 15.2633 495.058 15.2633 494.714C15.2633 494.371 14.9847 494.092 14.6409 494.092C14.2971 494.092 14.0184 494.371 14.0184 494.714C14.0184 495.058 14.2971 495.337 14.6409 495.337Z" fill="#80C34E"/>
<path d="M21.1403 495.337C21.4841 495.337 21.7628 495.058 21.7628 494.714C21.7628 494.371 21.4841 494.092 21.1403 494.092C20.7965 494.092 20.5178 494.371 20.5178 494.714C20.5178 495.058 20.7965 495.337 21.1403 495.337Z" fill="#80C34E"/>
<path d="M27.6398 495.337C27.9835 495.337 28.2622 495.058 28.2622 494.714C28.2622 494.371 27.9835 494.092 27.6398 494.092C27.296 494.092 27.0173 494.371 27.0173 494.714C27.0173 495.058 27.296 495.337 27.6398 495.337Z" fill="#80C34E"/>
<path d="M34.1471 495.337C34.4909 495.337 34.7695 495.058 34.7695 494.714C34.7695 494.371 34.4909 494.092 34.1471 494.092C33.8034 494.092 33.5247 494.371 33.5247 494.714C33.5247 495.058 33.8034 495.337 34.1471 495.337Z" fill="#80C34E"/>
<path d="M40.6465 495.337C40.9903 495.337 41.269 495.058 41.269 494.714C41.269 494.371 40.9903 494.092 40.6465 494.092C40.3027 494.092 40.024 494.371 40.024 494.714C40.024 495.058 40.3027 495.337 40.6465 495.337Z" fill="#80C34E"/>
<path d="M47.1459 495.337C47.4896 495.337 47.7683 495.058 47.7683 494.714C47.7683 494.371 47.4896 494.092 47.1459 494.092C46.8021 494.092 46.5234 494.371 46.5234 494.714C46.5234 495.058 46.8021 495.337 47.1459 495.337Z" fill="#80C34E"/>
<path d="M53.6453 495.337C53.9891 495.337 54.2677 495.058 54.2677 494.714C54.2677 494.371 53.9891 494.092 53.6453 494.092C53.3015 494.092 53.0228 494.371 53.0228 494.714C53.0228 495.058 53.3015 495.337 53.6453 495.337Z" fill="#80C34E"/>
<path d="M1.64225 501.174C1.98602 501.174 2.26472 500.895 2.26472 500.551C2.26472 500.207 1.98602 499.929 1.64225 499.929C1.29847 499.929 1.01978 500.207 1.01978 500.551C1.01978 500.895 1.29847 501.174 1.64225 501.174Z" fill="#80C34E"/>
<path d="M8.14122 501.174C8.48499 501.174 8.76369 500.895 8.76369 500.551C8.76369 500.207 8.48499 499.929 8.14122 499.929C7.79745 499.929 7.5188 500.207 7.5188 500.551C7.5188 500.895 7.79745 501.174 8.14122 501.174Z" fill="#80C34E"/>
<path d="M14.6408 501.174C14.9846 501.174 15.2632 500.895 15.2632 500.551C15.2632 500.207 14.9846 499.929 14.6408 499.929C14.297 499.929 14.0183 500.207 14.0183 500.551C14.0183 500.895 14.297 501.174 14.6408 501.174Z" fill="#80C34E"/>
<path d="M21.1403 501.174C21.4841 501.174 21.7628 500.895 21.7628 500.551C21.7628 500.207 21.4841 499.929 21.1403 499.929C20.7965 499.929 20.5178 500.207 20.5178 500.551C20.5178 500.895 20.7965 501.174 21.1403 501.174Z" fill="#80C34E"/>
<path d="M27.6398 501.174C27.9835 501.174 28.2622 500.895 28.2622 500.551C28.2622 500.207 27.9835 499.929 27.6398 499.929C27.296 499.929 27.0173 500.207 27.0173 500.551C27.0173 500.895 27.296 501.174 27.6398 501.174Z" fill="#80C34E"/>
<path d="M34.1471 501.174C34.4909 501.174 34.7695 500.895 34.7695 500.551C34.7695 500.207 34.4909 499.929 34.1471 499.929C33.8034 499.929 33.5247 500.207 33.5247 500.551C33.5247 500.895 33.8034 501.174 34.1471 501.174Z" fill="#80C34E"/>
<path d="M40.6466 501.174C40.9904 501.174 41.2691 500.895 41.2691 500.551C41.2691 500.207 40.9904 499.929 40.6466 499.929C40.3029 499.929 40.0242 500.207 40.0242 500.551C40.0242 500.895 40.3029 501.174 40.6466 501.174Z" fill="#80C34E"/>
<path d="M47.1461 501.174C47.4899 501.174 47.7686 500.895 47.7686 500.551C47.7686 500.207 47.4899 499.929 47.1461 499.929C46.8023 499.929 46.5237 500.207 46.5237 500.551C46.5237 500.895 46.8023 501.174 47.1461 501.174Z" fill="#80C34E"/>
<path d="M53.6452 501.174C53.9889 501.174 54.2676 500.895 54.2676 500.551C54.2676 500.207 53.9889 499.929 53.6452 499.929C53.3014 499.929 53.0227 500.207 53.0227 500.551C53.0227 500.895 53.3014 501.174 53.6452 501.174Z" fill="#80C34E"/>
<path d="M1.64225 507.003C1.98602 507.003 2.26472 506.724 2.26472 506.38C2.26472 506.037 1.98602 505.758 1.64225 505.758C1.29847 505.758 1.01978 506.037 1.01978 506.38C1.01978 506.724 1.29847 507.003 1.64225 507.003Z" fill="#80C34E"/>
<path d="M8.14122 507.003C8.48499 507.003 8.76369 506.724 8.76369 506.38C8.76369 506.037 8.48499 505.758 8.14122 505.758C7.79745 505.758 7.5188 506.037 7.5188 506.38C7.5188 506.724 7.79745 507.003 8.14122 507.003Z" fill="#80C34E"/>
<path d="M14.6408 507.003C14.9846 507.003 15.2632 506.724 15.2632 506.38C15.2632 506.037 14.9846 505.758 14.6408 505.758C14.297 505.758 14.0183 506.037 14.0183 506.38C14.0183 506.724 14.297 507.003 14.6408 507.003Z" fill="#80C34E"/>
<path d="M21.1403 507.003C21.4841 507.003 21.7628 506.724 21.7628 506.38C21.7628 506.037 21.4841 505.758 21.1403 505.758C20.7965 505.758 20.5178 506.037 20.5178 506.38C20.5178 506.724 20.7965 507.003 21.1403 507.003Z" fill="#80C34E"/>
<path d="M27.6398 507.003C27.9835 507.003 28.2622 506.724 28.2622 506.38C28.2622 506.037 27.9835 505.758 27.6398 505.758C27.296 505.758 27.0173 506.037 27.0173 506.38C27.0173 506.724 27.296 507.003 27.6398 507.003Z" fill="#80C34E"/>
<path d="M34.1471 507.003C34.4909 507.003 34.7695 506.724 34.7695 506.38C34.7695 506.037 34.4909 505.758 34.1471 505.758C33.8034 505.758 33.5247 506.037 33.5247 506.38C33.5247 506.724 33.8034 507.003 34.1471 507.003Z" fill="#80C34E"/>
<path d="M40.6466 507.003C40.9904 507.003 41.2691 506.724 41.2691 506.38C41.2691 506.037 40.9904 505.758 40.6466 505.758C40.3029 505.758 40.0242 506.037 40.0242 506.38C40.0242 506.724 40.3029 507.003 40.6466 507.003Z" fill="#80C34E"/>
<path d="M47.1461 507.003C47.4899 507.003 47.7686 506.724 47.7686 506.38C47.7686 506.037 47.4899 505.758 47.1461 505.758C46.8023 505.758 46.5237 506.037 46.5237 506.38C46.5237 506.724 46.8023 507.003 47.1461 507.003Z" fill="#80C34E"/>
<path d="M53.6452 507.003C53.9889 507.003 54.2676 506.724 54.2676 506.38C54.2676 506.037 53.9889 505.758 53.6452 505.758C53.3014 505.758 53.0227 506.037 53.0227 506.38C53.0227 506.724 53.3014 507.003 53.6452 507.003Z" fill="#80C34E"/>
<path d="M1.64212 512.831C1.9859 512.831 2.26459 512.552 2.26459 512.208C2.26459 511.864 1.9859 511.586 1.64212 511.586C1.29835 511.586 1.01965 511.864 1.01965 512.208C1.01965 512.552 1.29835 512.831 1.64212 512.831Z" fill="#80C34E"/>
<path d="M8.14146 512.831C8.48524 512.831 8.76393 512.552 8.76393 512.208C8.76393 511.864 8.48524 511.586 8.14146 511.586C7.79769 511.586 7.51904 511.864 7.51904 512.208C7.51904 512.552 7.79769 512.831 8.14146 512.831Z" fill="#80C34E"/>
<path d="M14.6409 512.831C14.9847 512.831 15.2633 512.552 15.2633 512.208C15.2633 511.864 14.9847 511.586 14.6409 511.586C14.2971 511.586 14.0184 511.864 14.0184 512.208C14.0184 512.552 14.2971 512.831 14.6409 512.831Z" fill="#80C34E"/>
<path d="M21.1403 512.831C21.4841 512.831 21.7628 512.552 21.7628 512.208C21.7628 511.864 21.4841 511.586 21.1403 511.586C20.7965 511.586 20.5178 511.864 20.5178 512.208C20.5178 512.552 20.7965 512.831 21.1403 512.831Z" fill="#80C34E"/>
<path d="M27.6398 512.831C27.9835 512.831 28.2622 512.552 28.2622 512.208C28.2622 511.864 27.9835 511.586 27.6398 511.586C27.296 511.586 27.0173 511.864 27.0173 512.208C27.0173 512.552 27.296 512.831 27.6398 512.831Z" fill="#80C34E"/>
<path d="M34.1471 512.831C34.4909 512.831 34.7695 512.552 34.7695 512.208C34.7695 511.864 34.4909 511.586 34.1471 511.586C33.8034 511.586 33.5247 511.864 33.5247 512.208C33.5247 512.552 33.8034 512.831 34.1471 512.831Z" fill="#80C34E"/>
<path d="M40.6465 512.831C40.9903 512.831 41.269 512.552 41.269 512.208C41.269 511.864 40.9903 511.586 40.6465 511.586C40.3027 511.586 40.024 511.864 40.024 512.208C40.024 512.552 40.3027 512.831 40.6465 512.831Z" fill="#80C34E"/>
<path d="M47.1459 512.831C47.4896 512.831 47.7683 512.552 47.7683 512.208C47.7683 511.864 47.4896 511.586 47.1459 511.586C46.8021 511.586 46.5234 511.864 46.5234 512.208C46.5234 512.552 46.8021 512.831 47.1459 512.831Z" fill="#80C34E"/>
<path d="M53.6453 512.831C53.9891 512.831 54.2677 512.552 54.2677 512.208C54.2677 511.864 53.9891 511.586 53.6453 511.586C53.3015 511.586 53.0228 511.864 53.0228 512.208C53.0228 512.552 53.3015 512.831 53.6453 512.831Z" fill="#80C34E"/>
<path d="M1.64212 518.659C1.9859 518.659 2.26459 518.38 2.26459 518.037C2.26459 517.693 1.9859 517.414 1.64212 517.414C1.29835 517.414 1.01965 517.693 1.01965 518.037C1.01965 518.38 1.29835 518.659 1.64212 518.659Z" fill="#80C34E"/>
<path d="M8.14146 518.659C8.48524 518.659 8.76393 518.38 8.76393 518.037C8.76393 517.693 8.48524 517.414 8.14146 517.414C7.79769 517.414 7.51904 517.693 7.51904 518.037C7.51904 518.38 7.79769 518.659 8.14146 518.659Z" fill="#80C34E"/>
<path d="M14.6409 518.659C14.9847 518.659 15.2633 518.38 15.2633 518.037C15.2633 517.693 14.9847 517.414 14.6409 517.414C14.2971 517.414 14.0184 517.693 14.0184 518.037C14.0184 518.38 14.2971 518.659 14.6409 518.659Z" fill="#80C34E"/>
<path d="M21.1403 518.659C21.4841 518.659 21.7628 518.38 21.7628 518.037C21.7628 517.693 21.4841 517.414 21.1403 517.414C20.7965 517.414 20.5178 517.693 20.5178 518.037C20.5178 518.38 20.7965 518.659 21.1403 518.659Z" fill="#80C34E"/>
<path d="M27.6398 518.659C27.9835 518.659 28.2622 518.38 28.2622 518.037C28.2622 517.693 27.9835 517.414 27.6398 517.414C27.296 517.414 27.0173 517.693 27.0173 518.037C27.0173 518.38 27.296 518.659 27.6398 518.659Z" fill="#80C34E"/>
<path d="M34.1471 518.659C34.4909 518.659 34.7695 518.38 34.7695 518.037C34.7695 517.693 34.4909 517.414 34.1471 517.414C33.8034 517.414 33.5247 517.693 33.5247 518.037C33.5247 518.38 33.8034 518.659 34.1471 518.659Z" fill="#80C34E"/>
<path d="M40.6465 518.659C40.9903 518.659 41.269 518.38 41.269 518.037C41.269 517.693 40.9903 517.414 40.6465 517.414C40.3027 517.414 40.024 517.693 40.024 518.037C40.024 518.38 40.3027 518.659 40.6465 518.659Z" fill="#80C34E"/>
<path d="M47.1459 518.659C47.4896 518.659 47.7683 518.38 47.7683 518.037C47.7683 517.693 47.4896 517.414 47.1459 517.414C46.8021 517.414 46.5234 517.693 46.5234 518.037C46.5234 518.38 46.8021 518.659 47.1459 518.659Z" fill="#80C34E"/>
<path d="M53.6453 518.659C53.9891 518.659 54.2677 518.38 54.2677 518.037C54.2677 517.693 53.9891 517.414 53.6453 517.414C53.3015 517.414 53.0228 517.693 53.0228 518.037C53.0228 518.38 53.3015 518.659 53.6453 518.659Z" fill="#80C34E"/>
</g>
<path d="M591.109 259.089C590.875 259.105 590.64 259.129 590.406 259.154L563.374 311.044C563.487 311.246 563.608 311.448 563.729 311.65L591.117 259.089H591.109Z" fill="#80C34E"/>
<path d="M582.37 260.891C582.095 260.988 581.821 261.085 581.546 261.191L559.962 302.612C560.035 302.895 560.115 303.178 560.188 303.461L582.362 260.9L582.37 260.891Z" fill="#80C34E"/>
<path d="M586.905 259.663C586.655 259.712 586.404 259.768 586.153 259.825L561.482 307.172C561.579 307.406 561.684 307.649 561.781 307.883L586.905 259.671V259.663Z" fill="#80C34E"/>
<path d="M598.764 259.348C598.554 259.316 598.344 259.291 598.142 259.259L567.9 317.309C568.038 317.462 568.183 317.616 568.329 317.77L598.772 259.348H598.764Z" fill="#80C34E"/>
<path d="M602.305 260.043C602.111 259.995 601.909 259.946 601.707 259.898L570.463 319.863C570.617 320.001 570.77 320.138 570.924 320.268L602.305 260.043Z" fill="#80C34E"/>
<path d="M621.981 273.357L593.105 328.771C593.324 328.771 593.542 328.779 593.76 328.779C593.76 328.779 593.76 328.779 593.768 328.779L622.369 273.898C622.24 273.712 622.11 273.535 621.981 273.357Z" fill="#80C34E"/>
<path d="M577.326 263.098C577.011 263.268 576.695 263.438 576.38 263.616L559 296.969C559.032 297.333 559.065 297.689 559.113 298.045L577.326 263.09V263.098Z" fill="#80C34E"/>
<path d="M617.397 319.556C617.866 319.128 618.319 318.683 618.756 318.23L628.044 300.398C628.157 299.783 628.262 299.161 628.343 298.53L617.389 319.548L617.397 319.556Z" fill="#80C34E"/>
<path d="M571.296 267.188C570.875 267.544 570.455 267.908 570.051 268.288L559.186 289.144C559.113 289.686 559.049 290.235 559 290.785L571.296 267.188Z" fill="#80C34E"/>
<path d="M595.046 259.016C594.827 259.016 594.609 259 594.383 259L565.524 314.39C565.653 314.568 565.782 314.746 565.92 314.924L595.046 259.024V259.016Z" fill="#80C34E"/>
<path d="M624.479 277.326C624.366 277.116 624.253 276.906 624.132 276.704L597.075 328.626C597.309 328.602 597.552 328.578 597.786 328.554L624.479 277.326Z" fill="#80C34E"/>
<path d="M626.314 281.295C626.217 281.052 626.12 280.81 626.023 280.567L601.327 327.963C601.585 327.906 601.836 327.85 602.087 327.785L626.314 281.295Z" fill="#80C34E"/>
<path d="M628.602 291.869C628.578 291.489 628.553 291.117 628.521 290.745L611.092 324.188C611.424 324.002 611.747 323.808 612.062 323.606L628.602 291.869Z" fill="#80C34E"/>
<path d="M620.025 270.915C619.887 270.754 619.742 270.6 619.604 270.438L589.347 328.505C589.557 328.529 589.767 328.553 589.977 328.577L620.025 270.915Z" fill="#80C34E"/>
<path d="M627.761 285.991C627.696 285.7 627.623 285.409 627.542 285.118L605.926 326.604C606.209 326.499 606.492 326.394 606.767 326.281L627.753 285.999L627.761 285.991Z" fill="#80C34E"/>
<path d="M614.778 266.025C614.617 265.904 614.455 265.782 614.293 265.669L582.395 326.888C582.58 326.953 582.774 327.017 582.968 327.082L614.778 266.033V266.025Z" fill="#80C34E"/>
<path d="M608.861 262.419C608.683 262.33 608.505 262.25 608.32 262.169L576.105 323.994C576.275 324.091 576.445 324.196 576.623 324.293L608.861 262.419Z" fill="#80C34E"/>
<path d="M617.486 268.305C617.333 268.167 617.187 268.03 617.034 267.893L585.782 327.875C585.984 327.923 586.186 327.963 586.38 328.012L617.486 268.313V268.305Z" fill="#80C34E"/>
<path d="M611.901 264.068C611.731 263.963 611.561 263.866 611.391 263.761L579.177 325.586C579.355 325.667 579.541 325.747 579.719 325.828L611.901 264.06V264.068Z" fill="#80C34E"/>
<path d="M605.66 261.078C605.474 261.013 605.28 260.941 605.094 260.876L573.203 322.087C573.365 322.208 573.526 322.321 573.688 322.434L605.66 261.07V261.078Z" fill="#80C34E"/>
<path d="M62.1091 594.089C61.8747 594.105 61.6403 594.129 61.4058 594.154L34.3735 646.044C34.4867 646.246 34.608 646.448 34.7292 646.65L62.1172 594.089H62.1091Z" fill="#80C34E"/>
<path d="M53.3786 595.899C53.1037 595.996 52.8289 596.093 52.554 596.198L30.9702 637.62C31.043 637.903 31.1238 638.186 31.1966 638.469L53.3705 595.907L53.3786 595.899Z" fill="#80C34E"/>
<path d="M57.9135 594.671C57.6629 594.72 57.4123 594.776 57.1617 594.833L32.4899 642.18C32.5869 642.414 32.692 642.657 32.789 642.891L57.9135 594.679V594.671Z" fill="#80C34E"/>
<path d="M69.7723 594.356C69.5622 594.323 69.352 594.299 69.1499 594.267L38.9083 652.317C39.0458 652.47 39.1913 652.624 39.3368 652.778L69.7804 594.356H69.7723Z" fill="#80C34E"/>
<path d="M73.3052 595.051C73.1112 595.002 72.9091 594.954 72.707 594.905L41.463 654.871C41.6166 655.009 41.7702 655.146 41.9238 655.275L73.3052 595.051Z" fill="#80C34E"/>
<path d="M92.981 608.357L64.1056 663.771C64.3239 663.771 64.5421 663.779 64.7604 663.779C64.7604 663.779 64.7604 663.779 64.7685 663.779L93.369 608.898C93.2397 608.712 93.1103 608.535 92.981 608.357Z" fill="#80C34E"/>
<path d="M48.326 598.098C48.0108 598.268 47.6955 598.438 47.3802 598.616L30 631.969C30.0323 632.333 30.0647 632.689 30.1132 633.045L48.326 598.09V598.098Z" fill="#80C34E"/>
<path d="M88.4055 654.564C88.8744 654.136 89.3271 653.691 89.7636 653.238L99.0519 635.405C99.1651 634.791 99.2702 634.169 99.351 633.538L88.3975 654.556L88.4055 654.564Z" fill="#80C34E"/>
<path d="M42.3033 602.188C41.8829 602.544 41.4626 602.908 41.0584 603.288L30.1937 624.144C30.121 624.686 30.0563 625.235 30.0078 625.785L42.3033 602.188Z" fill="#80C34E"/>
<path d="M66.0457 594.016C65.8274 594.016 65.6091 594 65.3828 594L36.5236 649.39C36.6529 649.568 36.7822 649.746 36.9197 649.924L66.0457 594.024V594.016Z" fill="#80C34E"/>
<path d="M95.4869 612.326C95.3737 612.116 95.2606 611.906 95.1393 611.704L68.0828 663.626C68.3172 663.602 68.5597 663.578 68.7941 663.553L95.4869 612.326Z" fill="#80C34E"/>
<path d="M97.3139 616.295C97.2169 616.052 97.1199 615.81 97.0228 615.567L72.3268 662.963C72.5855 662.906 72.8361 662.85 73.0867 662.785L97.3139 616.295Z" fill="#80C34E"/>
<path d="M99.6018 626.869C99.5776 626.489 99.5533 626.117 99.521 625.745L82.0923 659.188C82.4237 659.002 82.7471 658.808 83.0623 658.606L99.6018 626.869Z" fill="#80C34E"/>
<path d="M91.0326 605.915C90.8952 605.754 90.7497 605.6 90.6122 605.438L60.3545 663.505C60.5647 663.529 60.7748 663.553 60.985 663.577L91.0326 605.915Z" fill="#80C34E"/>
<path d="M98.769 620.991C98.7043 620.7 98.6315 620.409 98.5507 620.118L76.9346 661.604C77.2175 661.499 77.5004 661.394 77.7753 661.281L98.7609 620.999L98.769 620.991Z" fill="#80C34E"/>
<path d="M85.7783 601.032C85.6166 600.911 85.455 600.79 85.2933 600.677L53.3945 661.896C53.5805 661.96 53.7745 662.025 53.9685 662.09L85.7783 601.041V601.032Z" fill="#80C34E"/>
<path d="M79.869 597.419C79.6912 597.33 79.5134 597.25 79.3274 597.169L47.1134 658.994C47.2832 659.091 47.4529 659.196 47.6308 659.293L79.869 597.419Z" fill="#80C34E"/>
<path d="M88.4948 603.305C88.3412 603.167 88.1957 603.03 88.0421 602.893L56.79 662.875C56.9921 662.923 57.1942 662.963 57.3882 663.012L88.4948 603.313V603.305Z" fill="#80C34E"/>
<path d="M82.9005 599.068C82.7308 598.963 82.561 598.866 82.3913 598.761L50.1772 660.586C50.3551 660.667 50.541 660.747 50.7189 660.828L82.9005 599.06V599.068Z" fill="#80C34E"/>
<path d="M76.668 596.078C76.482 596.013 76.288 595.941 76.1021 595.876L44.2114 657.087C44.3731 657.208 44.5348 657.321 44.6965 657.434L76.668 596.07V596.078Z" fill="#80C34E"/>
<g opacity="0.35">
<path d="M268.316 18.3041C267.823 15.5799 267.12 12.8798 265.98 10.3496C263.806 5.49928 259.966 1.75656 254.711 0.527832C249.344 -0.733246 243.628 0.438873 238.519 2.21732C227.865 5.91969 217.93 12.0311 209.418 19.3792C200.881 26.7436 193.63 35.6196 188.19 45.4981C182.919 55.0612 179.96 65.7318 174.382 75.1333C171.707 79.6441 168.336 83.8315 163.89 86.6932C159.274 89.66 153.898 90.8806 148.45 90.8321C137.367 90.7432 126.833 86.483 115.896 85.222C110.827 84.6399 105.613 84.7369 100.715 86.3214C95.5814 87.9785 91.1272 91.2282 87.6835 95.3429C79.6482 104.938 77.8374 117.816 78.476 129.95C79.058 141.105 81.6206 155.891 69.3655 161.873C62.4943 165.236 55.2189 164.5 48 162.851V163.627C56.5284 165.494 65.8329 166.181 72.9709 160.571C82.2511 153.272 79.8098 140.192 79.2763 129.95C78.5973 117.096 80.7314 103.2 90.238 93.7504C94.288 89.7166 99.3969 87.0165 105.048 86.1031C110.569 85.2139 116.211 85.8848 121.66 86.9357C131.886 88.9001 142.314 92.651 152.863 91.4061C162.968 90.2096 170.357 83.6618 175.328 75.1253C180.696 65.9016 183.638 55.5058 188.755 46.1528C194.309 35.9915 201.787 26.9133 210.614 19.4277C219.361 12.0067 229.821 5.58826 240.88 2.3143C246.652 0.608612 253.41 -0.199738 258.826 3.03378C264.266 6.28348 266.481 12.6211 267.557 18.5385C268.365 23.2594 268.599 28.0451 268.244 32.8226C266.797 52.3208 256.069 70.1699 242.4 83.6779C227.428 98.4551 208.237 108.01 188.966 115.892C179.095 119.926 169.079 123.564 159.12 127.355C149.824 130.887 140.301 134.331 131.651 139.311C124.061 143.692 116.696 149.674 112.978 157.815C109.882 164.613 109.106 172.883 111.854 179.924C114.772 187.401 121.587 192.033 129.533 192.615C139.032 193.311 148.11 189.148 156.218 184.685C165.345 179.665 174.989 173.667 185.805 174.079C195.19 174.435 203.5 180.029 209.022 187.377C220.032 202.041 218.924 222.437 209.272 237.481C204.26 245.282 197.025 251.45 188.4 254.917C178.538 258.87 167.624 259.428 157.188 257.989C134.747 254.901 115.168 242.662 94.6517 233.972C79.9877 227.764 63.7473 223.116 48 224.943V225.638C48.2587 225.606 48.5254 225.573 48.7922 225.549C72.2353 223.156 94.1667 234.385 114.692 244.109C133.769 253.147 154.343 261.861 175.935 258.967C185.247 257.723 194.212 254.166 201.334 247.941C207.647 242.428 212.376 235.169 215.109 227.263C220.703 211.087 217.275 192.171 203.937 180.773C197.462 175.235 189.224 172.39 180.72 173.554C170.446 174.952 161.61 181.007 152.637 185.728C144.052 190.239 133.018 194.176 123.438 190.514C114.869 187.232 110.779 178.614 111.013 169.811C111.579 148.906 132.371 138.785 149.234 132.06C169.007 124.17 189.362 117.59 208.431 108.026C226.378 99.0291 242.82 87.2025 254.542 70.6792C265.277 55.5301 271.526 36.9534 268.341 18.3364L268.316 18.3041Z" fill="#80C34E"/>
</g>
<path d="M348.541 681.362C348.541 681.362 348.508 681.377 348.491 681.384C345.484 682.762 342.293 683.665 339.008 684.083C324.32 685.944 310.458 678.95 298.63 671.023C285.861 662.457 273.366 651.218 257.534 649.177C251.148 648.352 244.434 649.35 239.346 653.539C232.849 658.893 230.865 667.592 226.734 674.587C220.858 684.544 209.921 688.769 198.932 688.157L197.871 687.284C199.07 687.391 200.287 687.439 201.52 687.428C208.486 687.358 215.591 685.299 220.89 680.624C227.199 675.053 229.202 666.559 233.372 659.543C236.624 654.074 241.385 650.067 247.677 648.69C253.441 647.422 259.483 648.309 265.051 650.052C280.472 654.885 292.432 666.825 306.164 674.843C318.617 682.112 334.368 686.976 348.217 680.635C352.118 678.756 355.55 676.136 358.422 672.899C364.305 666.266 367.664 657.703 369.669 649.169C371.621 640.852 372.521 632.109 372.24 623.568C371.704 607.332 364.725 589.577 348.267 583.651C334.607 578.728 321.818 586.693 310.857 594.09C300.86 600.836 289.97 608.783 277.274 607.981C260.955 606.952 249.954 592.828 238.422 583.051C232.525 578.055 225.844 573.376 218.201 571.622C210.329 569.816 202.624 571.905 196.179 576.611C183.949 585.538 177.457 600.19 164.839 608.736C159.419 612.412 152.987 614.71 146.38 613.682C138.285 612.415 132.019 606.644 126.471 601.046C120.377 594.903 114.403 588.995 106.835 584.655C99.4433 580.408 91.2779 577.533 82.8565 576.217C76.18 575.185 69.4286 575.211 62.8231 576.205L62.0052 575.532C72.2035 573.924 82.7344 574.61 92.7331 577.673C100.76 580.13 108.347 584.025 114.994 589.167C121.987 594.573 127.36 601.734 134.327 607.16C141.009 612.373 149.069 614.701 157.25 611.779C164.487 609.19 170.412 603.691 175.401 598.018C185.034 587.069 194.083 571.485 210.24 570.204C225.977 568.964 238.176 581.708 248.751 591.452C254.877 597.086 261.502 602.724 269.462 605.544C276.618 608.08 284.083 607.542 291.066 604.765C303.441 599.85 313.128 590.107 325.225 584.65C330.869 582.101 337.077 580.675 343.276 581.587C350.949 582.706 357.747 587.219 362.686 593.061C373.525 605.868 374.158 623.743 372.156 639.617C370.141 655.659 364.118 673.837 348.517 681.353L348.541 681.362Z" fill="#80C34E"/>
<g opacity="0.35">
<path d="M584.587 153.964C590.796 166.041 590.674 181.069 581.475 191.602C577.409 196.275 571.912 199.654 565.752 200.648C560.142 201.553 554.467 200.486 549.164 198.603C538.509 194.82 529.165 188.102 518.454 184.456C513.458 182.759 508.155 181.821 502.892 182.516C497.177 183.276 491.963 185.944 487.598 189.646C476.935 198.7 472.489 212.289 467.477 224.859C462.578 237.155 456.014 248.69 446.976 258.439C438.294 267.8 427.511 275.351 415.247 279.166C414.504 279.401 413.752 279.611 413 279.813V280.629C424.584 277.606 435.166 271.05 443.799 262.796C454.907 252.19 462.724 238.965 468.358 224.778C474.381 209.613 480.613 190.802 497.508 184.642C511.235 179.638 524.759 187.738 536.642 193.817C547.895 199.581 561.031 205.207 573.343 198.983C586.576 192.289 592.073 176.688 588.702 162.727C584.911 147.012 572.122 135.767 557.579 129.906C540.741 123.124 522.019 123.011 504.275 125.452C473.879 129.64 443.751 141.887 413 141.992V142.768C444.713 142.663 474.534 130.109 505.705 126.051C521.178 124.038 537.24 124.062 552.236 128.823C565.509 133.043 578.064 141.264 584.571 153.924L584.587 153.964Z" fill="#80C34E"/>
</g>
<path d="M269.313 113.74C268.578 113.74 267.979 113.142 267.979 112.406C267.979 111.67 268.578 111.072 269.313 111.072C270.049 111.072 270.647 111.67 270.647 112.406C270.647 113.142 270.049 113.74 269.313 113.74ZM269.313 111.274C268.691 111.274 268.181 111.784 268.181 112.406C268.181 113.029 268.691 113.538 269.313 113.538C269.936 113.538 270.445 113.029 270.445 112.406C270.445 111.784 269.936 111.274 269.313 111.274Z" fill="#80C34E"/>
<path d="M262.757 113.74C262.022 113.74 261.424 113.142 261.424 112.406C261.424 111.67 262.022 111.072 262.757 111.072C263.493 111.072 264.091 111.67 264.091 112.406C264.091 113.142 263.493 113.74 262.757 113.74ZM262.757 111.274C262.135 111.274 261.626 111.784 261.626 112.406C261.626 113.029 262.135 113.538 262.757 113.538C263.38 113.538 263.889 113.029 263.889 112.406C263.889 111.784 263.38 111.274 262.757 111.274Z" fill="#80C34E"/>
<path d="M256.209 113.74C255.474 113.74 254.876 113.142 254.876 112.406C254.876 111.67 255.474 111.072 256.209 111.072C256.945 111.072 257.543 111.67 257.543 112.406C257.543 113.142 256.945 113.74 256.209 113.74ZM256.209 111.274C255.587 111.274 255.078 111.784 255.078 112.406C255.078 113.029 255.587 113.538 256.209 113.538C256.832 113.538 257.341 113.029 257.341 112.406C257.341 111.784 256.832 111.274 256.209 111.274Z" fill="#80C34E"/>
<path d="M249.654 113.74C248.918 113.74 248.32 113.142 248.32 112.406C248.32 111.67 248.918 111.072 249.654 111.072C250.389 111.072 250.987 111.67 250.987 112.406C250.987 113.142 250.389 113.74 249.654 113.74ZM249.654 111.274C249.031 111.274 248.522 111.784 248.522 112.406C248.522 113.029 249.031 113.538 249.654 113.538C250.276 113.538 250.785 113.029 250.785 112.406C250.785 111.784 250.276 111.274 249.654 111.274Z" fill="#80C34E"/>
<path d="M243.098 113.74C242.362 113.74 241.764 113.142 241.764 112.406C241.764 111.67 242.362 111.072 243.098 111.072C243.833 111.072 244.431 111.67 244.431 112.406C244.431 113.142 243.833 113.74 243.098 113.74ZM243.098 111.274C242.475 111.274 241.966 111.784 241.966 112.406C241.966 113.029 242.475 113.538 243.098 113.538C243.72 113.538 244.229 113.029 244.229 112.406C244.229 111.784 243.72 111.274 243.098 111.274Z" fill="#80C34E"/>
<path d="M236.55 113.74C235.814 113.74 235.216 113.142 235.216 112.406C235.216 111.67 235.814 111.072 236.55 111.072C237.285 111.072 237.883 111.67 237.883 112.406C237.883 113.142 237.285 113.74 236.55 113.74ZM236.55 111.274C235.927 111.274 235.418 111.784 235.418 112.406C235.418 113.029 235.927 113.538 236.55 113.538C237.172 113.538 237.681 113.029 237.681 112.406C237.681 111.784 237.172 111.274 236.55 111.274Z" fill="#80C34E"/>
<path d="M229.994 113.74C229.258 113.74 228.66 113.142 228.66 112.406C228.66 111.67 229.258 111.072 229.994 111.072C230.729 111.072 231.328 111.67 231.328 112.406C231.328 113.142 230.729 113.74 229.994 113.74ZM229.994 111.274C229.371 111.274 228.862 111.784 228.862 112.406C228.862 113.029 229.371 113.538 229.994 113.538C230.616 113.538 231.126 113.029 231.126 112.406C231.126 111.784 230.616 111.274 229.994 111.274Z" fill="#80C34E"/>
<path d="M223.438 113.74C222.702 113.74 222.104 113.142 222.104 112.406C222.104 111.67 222.702 111.072 223.438 111.072C224.173 111.072 224.771 111.67 224.771 112.406C224.771 113.142 224.173 113.74 223.438 113.74ZM223.438 111.274C222.815 111.274 222.306 111.784 222.306 112.406C222.306 113.029 222.815 113.538 223.438 113.538C224.06 113.538 224.569 113.029 224.569 112.406C224.569 111.784 224.06 111.274 223.438 111.274Z" fill="#80C34E"/>
<path d="M216.882 113.74C216.146 113.74 215.548 113.142 215.548 112.406C215.548 111.67 216.146 111.072 216.882 111.072C217.617 111.072 218.216 111.67 218.216 112.406C218.216 113.142 217.617 113.74 216.882 113.74ZM216.882 111.274C216.259 111.274 215.75 111.784 215.75 112.406C215.75 113.029 216.259 113.538 216.882 113.538C217.504 113.538 218.013 113.029 218.013 112.406C218.013 111.784 217.504 111.274 216.882 111.274Z" fill="#80C34E"/>
<path d="M269.313 107.207C268.578 107.207 267.979 106.609 267.979 105.873C267.979 105.137 268.578 104.539 269.313 104.539C270.049 104.539 270.647 105.137 270.647 105.873C270.647 106.609 270.049 107.207 269.313 107.207ZM269.313 104.741C268.691 104.741 268.182 105.25 268.182 105.873C268.182 106.495 268.691 107.005 269.313 107.005C269.936 107.005 270.445 106.495 270.445 105.873C270.445 105.25 269.936 104.741 269.313 104.741Z" fill="#80C34E"/>
<path d="M262.758 107.207C262.022 107.207 261.424 106.609 261.424 105.873C261.424 105.137 262.022 104.539 262.758 104.539C263.493 104.539 264.091 105.137 264.091 105.873C264.091 106.609 263.493 107.207 262.758 107.207ZM262.758 104.741C262.135 104.741 261.626 105.25 261.626 105.873C261.626 106.495 262.135 107.005 262.758 107.005C263.38 107.005 263.889 106.495 263.889 105.873C263.889 105.25 263.38 104.741 262.758 104.741Z" fill="#80C34E"/>
<path d="M256.21 107.207C255.474 107.207 254.876 106.609 254.876 105.873C254.876 105.137 255.474 104.539 256.21 104.539C256.945 104.539 257.543 105.137 257.543 105.873C257.543 106.609 256.945 107.207 256.21 107.207ZM256.21 104.741C255.587 104.741 255.078 105.25 255.078 105.873C255.078 106.495 255.587 107.005 256.21 107.005C256.832 107.005 257.341 106.495 257.341 105.873C257.341 105.25 256.832 104.741 256.21 104.741Z" fill="#80C34E"/>
<path d="M249.654 107.207C248.918 107.207 248.32 106.609 248.32 105.873C248.32 105.137 248.918 104.539 249.654 104.539C250.389 104.539 250.987 105.137 250.987 105.873C250.987 106.609 250.389 107.207 249.654 107.207ZM249.654 104.741C249.031 104.741 248.522 105.25 248.522 105.873C248.522 106.495 249.031 107.005 249.654 107.005C250.276 107.005 250.785 106.495 250.785 105.873C250.785 105.25 250.276 104.741 249.654 104.741Z" fill="#80C34E"/>
<path d="M243.097 107.207C242.362 107.207 241.764 106.609 241.764 105.873C241.764 105.137 242.362 104.539 243.097 104.539C243.833 104.539 244.431 105.137 244.431 105.873C244.431 106.609 243.833 107.207 243.097 107.207ZM243.097 104.741C242.475 104.741 241.966 105.25 241.966 105.873C241.966 106.495 242.475 107.005 243.097 107.005C243.72 107.005 244.229 106.495 244.229 105.873C244.229 105.25 243.72 104.741 243.097 104.741Z" fill="#80C34E"/>
<path d="M236.55 107.207C235.814 107.207 235.216 106.609 235.216 105.873C235.216 105.137 235.814 104.539 236.55 104.539C237.285 104.539 237.884 105.137 237.884 105.873C237.884 106.609 237.285 107.207 236.55 107.207ZM236.55 104.741C235.927 104.741 235.418 105.25 235.418 105.873C235.418 106.495 235.927 107.005 236.55 107.005C237.172 107.005 237.682 106.495 237.682 105.873C237.682 105.25 237.172 104.741 236.55 104.741Z" fill="#80C34E"/>
<path d="M229.993 107.207C229.258 107.207 228.66 106.609 228.66 105.873C228.66 105.137 229.258 104.539 229.993 104.539C230.729 104.539 231.327 105.137 231.327 105.873C231.327 106.609 230.729 107.207 229.993 107.207ZM229.993 104.741C229.371 104.741 228.862 105.25 228.862 105.873C228.862 106.495 229.371 107.005 229.993 107.005C230.616 107.005 231.125 106.495 231.125 105.873C231.125 105.25 230.616 104.741 229.993 104.741Z" fill="#80C34E"/>
<path d="M223.438 107.207C222.702 107.207 222.104 106.609 222.104 105.873C222.104 105.137 222.702 104.539 223.438 104.539C224.173 104.539 224.772 105.137 224.772 105.873C224.772 106.609 224.173 107.207 223.438 107.207ZM223.438 104.741C222.815 104.741 222.306 105.25 222.306 105.873C222.306 106.495 222.815 107.005 223.438 107.005C224.06 107.005 224.569 106.495 224.569 105.873C224.569 105.25 224.06 104.741 223.438 104.741Z" fill="#80C34E"/>
<path d="M216.882 107.207C216.146 107.207 215.548 106.609 215.548 105.873C215.548 105.137 216.146 104.539 216.882 104.539C217.617 104.539 218.216 105.137 218.216 105.873C218.216 106.609 217.617 107.207 216.882 107.207ZM216.882 104.741C216.259 104.741 215.75 105.25 215.75 105.873C215.75 106.495 216.259 107.005 216.882 107.005C217.504 107.005 218.014 106.495 218.014 105.873C218.014 105.25 217.504 104.741 216.882 104.741Z" fill="#80C34E"/>
<path d="M210.334 107.207C209.598 107.207 209 106.609 209 105.873C209 105.137 209.598 104.539 210.334 104.539C211.069 104.539 211.668 105.137 211.668 105.873C211.668 106.609 211.069 107.207 210.334 107.207ZM210.334 104.741C209.711 104.741 209.202 105.25 209.202 105.873C209.202 106.495 209.711 107.005 210.334 107.005C210.956 107.005 211.466 106.495 211.466 105.873C211.466 105.25 210.956 104.741 210.334 104.741Z" fill="#80C34E"/>
<path d="M262.758 100.668C262.022 100.668 261.424 100.07 261.424 99.3339C261.424 98.5983 262.022 98.0001 262.758 98.0001C263.494 98.0001 264.092 98.5983 264.092 99.3339C264.092 100.07 263.494 100.668 262.758 100.668ZM262.758 98.2022C262.136 98.2022 261.626 98.7115 261.626 99.3339C261.626 99.9564 262.136 100.466 262.758 100.466C263.38 100.466 263.89 99.9564 263.89 99.3339C263.89 98.7115 263.38 98.2022 262.758 98.2022Z" fill="#80C34E"/>
<path d="M256.21 100.668C255.474 100.668 254.876 100.07 254.876 99.3339C254.876 98.5983 255.474 98.0001 256.21 98.0001C256.946 98.0001 257.544 98.5983 257.544 99.3339C257.544 100.07 256.946 100.668 256.21 100.668ZM256.21 98.2022C255.588 98.2022 255.078 98.7115 255.078 99.3339C255.078 99.9564 255.588 100.466 256.21 100.466C256.833 100.466 257.342 99.9564 257.342 99.3339C257.342 98.7115 256.833 98.2022 256.21 98.2022Z" fill="#80C34E"/>
<path d="M249.654 100.668C248.919 100.668 248.32 100.07 248.32 99.3339C248.32 98.5983 248.919 98.0001 249.654 98.0001C250.39 98.0001 250.988 98.5983 250.988 99.3339C250.988 100.07 250.39 100.668 249.654 100.668ZM249.654 98.2022C249.032 98.2022 248.522 98.7115 248.522 99.3339C248.522 99.9564 249.032 100.466 249.654 100.466C250.277 100.466 250.786 99.9564 250.786 99.3339C250.786 98.7115 250.277 98.2022 249.654 98.2022Z" fill="#80C34E"/>
<path d="M243.098 100.668C242.362 100.668 241.764 100.07 241.764 99.3339C241.764 98.5983 242.362 98.0001 243.098 98.0001C243.833 98.0001 244.432 98.5983 244.432 99.3339C244.432 100.07 243.833 100.668 243.098 100.668ZM243.098 98.2022C242.475 98.2022 241.966 98.7115 241.966 99.3339C241.966 99.9564 242.475 100.466 243.098 100.466C243.72 100.466 244.23 99.9564 244.23 99.3339C244.23 98.7115 243.72 98.2022 243.098 98.2022Z" fill="#80C34E"/>
<path d="M236.55 100.668C235.815 100.668 235.216 100.07 235.216 99.3339C235.216 98.5983 235.815 98.0001 236.55 98.0001C237.286 98.0001 237.884 98.5983 237.884 99.3339C237.884 100.07 237.286 100.668 236.55 100.668ZM236.55 98.2022C235.928 98.2022 235.419 98.7115 235.419 99.3339C235.419 99.9564 235.928 100.466 236.55 100.466C237.173 100.466 237.682 99.9564 237.682 99.3339C237.682 98.7115 237.173 98.2022 236.55 98.2022Z" fill="#80C34E"/>
<path d="M229.994 100.668C229.258 100.668 228.66 100.07 228.66 99.3339C228.66 98.5983 229.258 98.0001 229.994 98.0001C230.73 98.0001 231.328 98.5983 231.328 99.3339C231.328 100.07 230.73 100.668 229.994 100.668ZM229.994 98.2022C229.372 98.2022 228.862 98.7115 228.862 99.3339C228.862 99.9564 229.372 100.466 229.994 100.466C230.616 100.466 231.126 99.9564 231.126 99.3339C231.126 98.7115 230.616 98.2022 229.994 98.2022Z" fill="#80C34E"/>
<path d="M223.438 100.668C222.703 100.668 222.104 100.07 222.104 99.3339C222.104 98.5983 222.703 98.0001 223.438 98.0001C224.174 98.0001 224.772 98.5983 224.772 99.3339C224.772 100.07 224.174 100.668 223.438 100.668ZM223.438 98.2022C222.816 98.2022 222.306 98.7115 222.306 99.3339C222.306 99.9564 222.816 100.466 223.438 100.466C224.061 100.466 224.57 99.9564 224.57 99.3339C224.57 98.7115 224.061 98.2022 223.438 98.2022Z" fill="#80C34E"/>
<path d="M216.882 100.668C216.147 100.668 215.548 100.07 215.548 99.3339C215.548 98.5983 216.147 98.0001 216.882 98.0001C217.618 98.0001 218.216 98.5983 218.216 99.3339C218.216 100.07 217.618 100.668 216.882 100.668ZM216.882 98.2022C216.26 98.2022 215.751 98.7115 215.751 99.3339C215.751 99.9564 216.26 100.466 216.882 100.466C217.505 100.466 218.014 99.9564 218.014 99.3339C218.014 98.7115 217.505 98.2022 216.882 98.2022Z" fill="#80C34E"/>
<path d="M210.334 100.668C209.599 100.668 209 100.07 209 99.3339C209 98.5983 209.599 98.0001 210.334 98.0001C211.07 98.0001 211.668 98.5983 211.668 99.3339C211.668 100.07 211.07 100.668 210.334 100.668ZM210.334 98.2022C209.712 98.2022 209.203 98.7115 209.203 99.3339C209.203 99.9564 209.712 100.466 210.334 100.466C210.957 100.466 211.466 99.9564 211.466 99.3339C211.466 98.7115 210.957 98.2022 210.334 98.2022Z" fill="#80C34E"/>
<path d="M635.478 550.511C634.192 550.511 633.149 549.468 633.149 548.183C633.149 546.897 634.192 545.854 635.478 545.854C636.763 545.854 637.806 546.897 637.806 548.183C637.806 549.468 636.763 550.511 635.478 550.511ZM635.478 546.202C634.386 546.202 633.505 547.091 633.505 548.175C633.505 549.258 634.394 550.147 635.478 550.147C636.561 550.147 637.45 549.258 637.45 548.175C637.45 547.091 636.561 546.202 635.478 546.202Z" fill="#80C34E"/>
<path d="M624.015 550.511C622.729 550.511 621.687 549.468 621.687 548.183C621.687 546.897 622.729 545.854 624.015 545.854C625.3 545.854 626.343 546.897 626.343 548.183C626.343 549.468 625.3 550.511 624.015 550.511ZM624.015 546.202C622.923 546.202 622.042 547.091 622.042 548.175C622.042 549.258 622.931 550.147 624.015 550.147C625.098 550.147 625.987 549.258 625.987 548.175C625.987 547.091 625.098 546.202 624.015 546.202Z" fill="#80C34E"/>
<path d="M612.551 550.511C611.266 550.511 610.223 549.468 610.223 548.183C610.223 546.897 611.266 545.854 612.551 545.854C613.837 545.854 614.88 546.897 614.88 548.183C614.88 549.468 613.837 550.511 612.551 550.511ZM612.551 546.202C611.46 546.202 610.579 547.091 610.579 548.175C610.579 549.258 611.468 550.147 612.551 550.147C613.635 550.147 614.524 549.258 614.524 548.175C614.524 547.091 613.635 546.202 612.551 546.202Z" fill="#80C34E"/>
<path d="M601.089 550.511C599.804 550.511 598.761 549.468 598.761 548.183C598.761 546.897 599.804 545.854 601.089 545.854C602.374 545.854 603.417 546.897 603.417 548.183C603.417 549.468 602.374 550.511 601.089 550.511ZM601.089 546.202C599.998 546.202 599.117 547.091 599.117 548.175C599.117 549.258 600.006 550.147 601.089 550.147C602.172 550.147 603.062 549.258 603.062 548.175C603.062 547.091 602.172 546.202 601.089 546.202Z" fill="#80C34E"/>
<path d="M589.634 550.511C588.349 550.511 587.306 549.468 587.306 548.183C587.306 546.897 588.349 545.854 589.634 545.854C590.92 545.854 591.962 546.897 591.962 548.183C591.962 549.468 590.92 550.511 589.634 550.511ZM589.634 546.202C588.543 546.202 587.662 547.091 587.662 548.175C587.662 549.258 588.551 550.147 589.634 550.147C590.718 550.147 591.607 549.258 591.607 548.175C591.607 547.091 590.718 546.202 589.634 546.202Z" fill="#80C34E"/>
<path d="M578.171 550.511C576.886 550.511 575.843 549.468 575.843 548.183C575.843 546.897 576.886 545.854 578.171 545.854C579.457 545.854 580.499 546.897 580.499 548.183C580.499 549.468 579.457 550.511 578.171 550.511ZM578.171 546.202C577.08 546.202 576.199 547.091 576.199 548.175C576.199 549.258 577.088 550.147 578.171 550.147C579.255 550.147 580.144 549.258 580.144 548.175C580.144 547.091 579.255 546.202 578.171 546.202Z" fill="#80C34E"/>
<path d="M566.708 550.511C565.423 550.511 564.38 549.468 564.38 548.183C564.38 546.897 565.423 545.854 566.708 545.854C567.994 545.854 569.037 546.897 569.037 548.183C569.037 549.468 567.994 550.511 566.708 550.511ZM566.708 546.202C565.617 546.202 564.736 547.091 564.736 548.175C564.736 549.258 565.625 550.147 566.708 550.147C567.792 550.147 568.681 549.258 568.681 548.175C568.681 547.091 567.792 546.202 566.708 546.202Z" fill="#80C34E"/>
<path d="M555.246 550.511C553.96 550.511 552.918 549.468 552.918 548.183C552.918 546.897 553.96 545.854 555.246 545.854C556.531 545.854 557.574 546.897 557.574 548.183C557.574 549.468 556.531 550.511 555.246 550.511ZM555.246 546.202C554.154 546.202 553.273 547.091 553.273 548.175C553.273 549.258 554.163 550.147 555.246 550.147C556.329 550.147 557.218 549.258 557.218 548.175C557.218 547.091 556.329 546.202 555.246 546.202Z" fill="#80C34E"/>
<path d="M543.783 550.511C542.497 550.511 541.455 549.468 541.455 548.183C541.455 546.897 542.497 545.854 543.783 545.854C545.068 545.854 546.111 546.897 546.111 548.183C546.111 549.468 545.068 550.511 543.783 550.511ZM543.783 546.202C542.691 546.202 541.81 547.091 541.81 548.175C541.81 549.258 542.7 550.147 543.783 550.147C544.866 550.147 545.755 549.258 545.755 548.175C545.755 547.091 544.866 546.202 543.783 546.202Z" fill="#80C34E"/>
<path d="M635.478 539.079C634.192 539.079 633.15 538.036 633.15 536.751C633.15 535.466 634.192 534.423 635.478 534.423C636.763 534.423 637.806 535.466 637.806 536.751C637.806 538.036 636.763 539.079 635.478 539.079ZM635.478 534.778C634.386 534.778 633.505 535.668 633.505 536.751C633.505 537.834 634.395 538.723 635.478 538.723C636.561 538.723 637.45 537.834 637.45 536.751C637.45 535.668 636.561 534.778 635.478 534.778Z" fill="#80C34E"/>
<path d="M624.015 539.079C622.729 539.079 621.687 538.036 621.687 536.751C621.687 535.466 622.729 534.423 624.015 534.423C625.3 534.423 626.343 535.466 626.343 536.751C626.343 538.036 625.3 539.079 624.015 539.079ZM624.015 534.778C622.923 534.778 622.042 535.668 622.042 536.751C622.042 537.834 622.931 538.723 624.015 538.723C625.098 538.723 625.987 537.834 625.987 536.751C625.987 535.668 625.098 534.778 624.015 534.778Z" fill="#80C34E"/>
<path d="M612.552 539.079C611.267 539.079 610.224 538.036 610.224 536.751C610.224 535.466 611.267 534.423 612.552 534.423C613.838 534.423 614.88 535.466 614.88 536.751C614.88 538.036 613.838 539.079 612.552 539.079ZM612.552 534.778C611.461 534.778 610.58 535.668 610.58 536.751C610.58 537.834 611.469 538.723 612.552 538.723C613.635 538.723 614.525 537.834 614.525 536.751C614.525 535.668 613.635 534.778 612.552 534.778Z" fill="#80C34E"/>
<path d="M601.089 539.079C599.804 539.079 598.761 538.036 598.761 536.751C598.761 535.466 599.804 534.423 601.089 534.423C602.374 534.423 603.417 535.466 603.417 536.751C603.417 538.036 602.374 539.079 601.089 539.079ZM601.089 534.778C599.998 534.778 599.117 535.668 599.117 536.751C599.117 537.834 600.006 538.723 601.089 538.723C602.172 538.723 603.062 537.834 603.062 536.751C603.062 535.668 602.172 534.778 601.089 534.778Z" fill="#80C34E"/>
<path d="M589.635 539.079C588.349 539.079 587.306 538.036 587.306 536.751C587.306 535.466 588.349 534.423 589.635 534.423C590.92 534.423 591.963 535.466 591.963 536.751C591.963 538.036 590.92 539.079 589.635 539.079ZM589.635 534.778C588.543 534.778 587.662 535.668 587.662 536.751C587.662 537.834 588.551 538.723 589.635 538.723C590.718 538.723 591.607 537.834 591.607 536.751C591.607 535.668 590.718 534.778 589.635 534.778Z" fill="#80C34E"/>
<path d="M578.171 539.079C576.886 539.079 575.843 538.036 575.843 536.751C575.843 535.466 576.886 534.423 578.171 534.423C579.457 534.423 580.5 535.466 580.5 536.751C580.5 538.036 579.457 539.079 578.171 539.079ZM578.171 534.778C577.08 534.778 576.199 535.668 576.199 536.751C576.199 537.834 577.088 538.723 578.171 538.723C579.255 538.723 580.144 537.834 580.144 536.751C580.144 535.668 579.255 534.778 578.171 534.778Z" fill="#80C34E"/>
<path d="M566.709 539.079C565.423 539.079 564.38 538.036 564.38 536.751C564.38 535.466 565.423 534.423 566.709 534.423C567.994 534.423 569.037 535.466 569.037 536.751C569.037 538.036 567.994 539.079 566.709 539.079ZM566.709 534.778C565.617 534.778 564.736 535.668 564.736 536.751C564.736 537.834 565.625 538.723 566.709 538.723C567.792 538.723 568.681 537.834 568.681 536.751C568.681 535.668 567.792 534.778 566.709 534.778Z" fill="#80C34E"/>
<path d="M555.246 539.079C553.961 539.079 552.918 538.036 552.918 536.751C552.918 535.466 553.961 534.423 555.246 534.423C556.531 534.423 557.574 535.466 557.574 536.751C557.574 538.036 556.531 539.079 555.246 539.079ZM555.246 534.778C554.155 534.778 553.273 535.668 553.273 536.751C553.273 537.834 554.163 538.723 555.246 538.723C556.329 538.723 557.218 537.834 557.218 536.751C557.218 535.668 556.329 534.778 555.246 534.778Z" fill="#80C34E"/>
<path d="M543.783 539.079C542.498 539.079 541.455 538.036 541.455 536.751C541.455 535.466 542.498 534.423 543.783 534.423C545.068 534.423 546.111 535.466 546.111 536.751C546.111 538.036 545.068 539.079 543.783 539.079ZM543.783 534.778C542.692 534.778 541.81 535.668 541.81 536.751C541.81 537.834 542.7 538.723 543.783 538.723C544.866 538.723 545.755 537.834 545.755 536.751C545.755 535.668 544.866 534.778 543.783 534.778Z" fill="#80C34E"/>
<path d="M532.328 539.079C531.043 539.079 530 538.036 530 536.751C530 535.466 531.043 534.423 532.328 534.423C533.614 534.423 534.657 535.466 534.657 536.751C534.657 538.036 533.614 539.079 532.328 539.079ZM532.328 534.778C531.237 534.778 530.356 535.668 530.356 536.751C530.356 537.834 531.245 538.723 532.328 538.723C533.412 538.723 534.301 537.834 534.301 536.751C534.301 535.668 533.412 534.778 532.328 534.778Z" fill="#80C34E"/>
<path d="M624.015 527.656C622.729 527.656 621.687 526.613 621.687 525.328C621.687 524.043 622.729 523 624.015 523C625.3 523 626.343 524.043 626.343 525.328C626.343 526.613 625.3 527.656 624.015 527.656ZM624.015 523.348C622.923 523.348 622.042 524.237 622.042 525.32C622.042 526.403 622.931 527.293 624.015 527.293C625.098 527.293 625.987 526.403 625.987 525.32C625.987 524.237 625.098 523.348 624.015 523.348Z" fill="#80C34E"/>
<path d="M612.552 527.656C611.267 527.656 610.224 526.613 610.224 525.328C610.224 524.043 611.267 523 612.552 523C613.838 523 614.88 524.043 614.88 525.328C614.88 526.613 613.838 527.656 612.552 527.656ZM612.552 523.348C611.461 523.348 610.58 524.237 610.58 525.32C610.58 526.403 611.469 527.293 612.552 527.293C613.635 527.293 614.525 526.403 614.525 525.32C614.525 524.237 613.635 523.348 612.552 523.348Z" fill="#80C34E"/>
<path d="M601.089 527.656C599.804 527.656 598.761 526.613 598.761 525.328C598.761 524.043 599.804 523 601.089 523C602.374 523 603.417 524.043 603.417 525.328C603.417 526.613 602.374 527.656 601.089 527.656ZM601.089 523.348C599.998 523.348 599.117 524.237 599.117 525.32C599.117 526.403 600.006 527.293 601.089 527.293C602.172 527.293 603.062 526.403 603.062 525.32C603.062 524.237 602.172 523.348 601.089 523.348Z" fill="#80C34E"/>
<path d="M589.635 527.656C588.349 527.656 587.306 526.613 587.306 525.328C587.306 524.043 588.349 523 589.635 523C590.92 523 591.963 524.043 591.963 525.328C591.963 526.613 590.92 527.656 589.635 527.656ZM589.635 523.348C588.543 523.348 587.662 524.237 587.662 525.32C587.662 526.403 588.551 527.293 589.635 527.293C590.718 527.293 591.607 526.403 591.607 525.32C591.607 524.237 590.718 523.348 589.635 523.348Z" fill="#80C34E"/>
<path d="M578.171 527.656C576.886 527.656 575.843 526.613 575.843 525.328C575.843 524.043 576.886 523 578.171 523C579.457 523 580.5 524.043 580.5 525.328C580.5 526.613 579.457 527.656 578.171 527.656ZM578.171 523.348C577.08 523.348 576.199 524.237 576.199 525.32C576.199 526.403 577.088 527.293 578.171 527.293C579.255 527.293 580.144 526.403 580.144 525.32C580.144 524.237 579.255 523.348 578.171 523.348Z" fill="#80C34E"/>
<path d="M566.709 527.656C565.423 527.656 564.38 526.613 564.38 525.328C564.38 524.043 565.423 523 566.709 523C567.994 523 569.037 524.043 569.037 525.328C569.037 526.613 567.994 527.656 566.709 527.656ZM566.709 523.348C565.617 523.348 564.736 524.237 564.736 525.32C564.736 526.403 565.625 527.293 566.709 527.293C567.792 527.293 568.681 526.403 568.681 525.32C568.681 524.237 567.792 523.348 566.709 523.348Z" fill="#80C34E"/>
<path d="M555.246 527.656C553.961 527.656 552.918 526.613 552.918 525.328C552.918 524.043 553.961 523 555.246 523C556.531 523 557.574 524.043 557.574 525.328C557.574 526.613 556.531 527.656 555.246 527.656ZM555.246 523.348C554.155 523.348 553.273 524.237 553.273 525.32C553.273 526.403 554.163 527.293 555.246 527.293C556.329 527.293 557.218 526.403 557.218 525.32C557.218 524.237 556.329 523.348 555.246 523.348Z" fill="#80C34E"/>
<path d="M543.783 527.656C542.498 527.656 541.455 526.613 541.455 525.328C541.455 524.043 542.498 523 543.783 523C545.068 523 546.111 524.043 546.111 525.328C546.111 526.613 545.068 527.656 543.783 527.656ZM543.783 523.348C542.692 523.348 541.81 524.237 541.81 525.32C541.81 526.403 542.7 527.293 543.783 527.293C544.866 527.293 545.755 526.403 545.755 525.32C545.755 524.237 544.866 523.348 543.783 523.348Z" fill="#80C34E"/>
<path d="M532.328 527.656C531.043 527.656 530 526.613 530 525.328C530 524.043 531.043 523 532.328 523C533.613 523 534.656 524.043 534.656 525.328C534.656 526.613 533.613 527.656 532.328 527.656ZM532.328 523.348C531.237 523.348 530.356 524.237 530.356 525.32C530.356 526.403 531.245 527.293 532.328 527.293C533.411 527.293 534.301 526.403 534.301 525.32C534.301 524.237 533.411 523.348 532.328 523.348Z" fill="#80C34E"/>
</svg>
