<svg width="221" height="197" viewBox="0 0 221 197" fill="none" xmlns="http://www.w3.org/2000/svg">
<path d="M212.815 158.461L212.805 158.482L212.796 158.504L212.785 158.532C204.812 174.025 189.421 184.121 173.089 189.313C154.634 195.173 134.845 195.209 115.745 192.724C100.118 190.69 84.7704 186.927 69.3978 183.158C65.8369 182.285 62.2747 181.412 58.7075 180.56C39.7559 176.032 20.6783 172.105 1.0017 172.04L0.500033 172.038L0.500033 172.54L0.500032 173.5L0.500032 173.998L0.998323 174C19.9572 174.065 38.7373 177.873 57.5047 182.323C61.3302 183.23 65.1559 184.164 68.9825 185.098C83.9114 188.743 98.8525 192.39 113.842 194.455L113.842 194.455C135.833 197.481 159.092 197.35 180.037 188.914L180.037 188.914C198.124 181.625 214.097 167.613 218.836 147.967C223.05 130.515 216.19 110.957 199.576 102.554L199.576 102.554C184.092 94.7258 167.616 101.828 153.722 108.945C152.522 109.559 151.31 110.189 150.087 110.824C143.798 114.091 137.221 117.508 130.444 119.731C122.364 122.382 114.059 123.313 105.711 120.27C95.4075 116.514 88.3326 108.894 82.895 99.8352C78.2383 92.0772 74.8055 83.3056 71.573 75.0459C71.0262 73.6486 70.4851 72.266 69.9448 70.9054C62.9562 53.3087 53.2512 36.8812 39.4454 23.6984C28.7162 13.4414 15.5535 5.28155 1.12631 1.5162L0.500048 1.35275L0.500047 2L0.500047 3.01001L0.500047 3.39335L0.870241 3.49287C1.79752 3.74214 2.7197 4 3.62976 4.28686L3.63153 4.28741C18.7026 8.97664 31.9707 18.261 42.6634 29.7899C53.7916 41.794 61.8822 56.0069 67.9256 71.1751L67.9256 71.1752C68.5919 72.8462 69.2508 74.5343 69.9128 76.2305C75.3898 90.2624 81.0835 104.849 92.9564 114.931L92.9566 114.931C98.4143 119.56 104.951 122.911 112.134 123.866L112.135 123.866C118.745 124.739 125.386 123.559 131.611 121.443L131.611 121.443C138.278 119.174 144.513 115.951 150.702 112.727L151.109 112.515C157.172 109.357 163.199 106.217 169.607 103.941L169.44 103.47L169.607 103.941C176.122 101.627 183.053 100.332 189.88 101.434C197.37 102.643 204.069 106.754 209.033 112.458L209.033 112.459C220.248 125.3 220.425 143.659 212.815 158.461Z" fill="#80C34E" stroke="#80C34E"/>
</svg>
