<svg width="221" height="197" viewBox="0 0 221 197" fill="none" xmlns="http://www.w3.org/2000/svg">
<path d="M7.73335 158.461L7.74409 158.482L7.75283 158.504L7.76409 158.532C15.737 174.025 31.1275 184.121 47.4602 189.313C65.9145 195.173 85.7037 195.209 104.804 192.724C120.43 190.69 135.778 186.927 151.151 183.158C154.712 182.285 158.274 181.412 161.841 180.56C180.793 176.032 199.87 172.105 219.547 172.04L220.049 172.038V172.54V173.5V173.998L219.55 174C200.592 174.065 181.811 177.873 163.044 182.323C159.218 183.23 155.393 184.164 151.566 185.098C136.637 188.743 121.696 192.39 106.707 194.455L106.707 194.455C84.7159 197.481 61.4565 197.35 40.5118 188.914L40.5117 188.914C22.425 181.625 6.45215 167.613 1.71259 147.967C-2.50144 130.515 4.35897 110.957 20.973 102.554L20.973 102.554C36.4562 94.7258 52.9322 101.828 66.8264 108.945C68.0269 109.559 69.239 110.189 70.4619 110.824C76.7511 114.091 83.3277 117.508 90.1045 119.731C98.1848 122.382 106.489 123.313 114.837 120.27C125.141 116.514 132.216 108.894 137.654 99.8352C142.31 92.0772 145.743 83.3056 148.976 75.0459C149.523 73.6486 150.064 72.266 150.604 70.9054C157.593 53.3087 167.298 36.8812 181.103 23.6984C191.833 13.4414 204.995 5.28157 219.422 1.51622L220.049 1.35277V2.00002V3.01003V3.39337L219.678 3.49289C218.751 3.74216 217.829 4.00002 216.919 4.28688L216.917 4.28743C201.846 8.97665 188.578 18.261 177.885 29.7899C166.757 41.7941 158.666 56.0069 152.623 71.1751L152.623 71.1752C151.957 72.8462 151.298 74.5343 150.636 76.2305C145.159 90.2624 139.465 104.849 127.592 114.931L127.592 114.931C122.134 119.56 115.598 122.911 108.415 123.866L108.414 123.866C101.804 124.739 95.1632 123.559 88.9378 121.443L88.9376 121.443C82.271 119.174 76.036 115.951 69.8464 112.727L69.4398 112.515C63.3768 109.357 57.3494 106.217 50.9414 103.941L51.1087 103.47L50.9413 103.941C44.4262 101.627 37.4957 100.332 30.6683 101.434C23.1789 102.643 16.4798 106.754 11.5158 112.458L11.5152 112.459C0.300503 125.3 0.123876 143.659 7.73335 158.461Z" fill="#80C34E" stroke="#80C34E"/>
</svg>
