<svg width="221" height="197" viewBox="0 0 221 197" fill="none" xmlns="http://www.w3.org/2000/svg">
<path d="M212.815 38.2952L212.805 38.2743L212.796 38.2525L212.785 38.2243C204.812 22.732 189.421 12.6353 173.089 7.4431C154.634 1.58353 134.845 1.54756 115.745 4.03242C100.118 6.06676 84.7705 9.82944 69.3979 13.5982C65.8371 14.4711 62.2749 15.3444 58.7076 16.1967C39.756 20.7242 20.6784 24.6514 1.00182 24.7166L0.500153 24.7183V24.2166V23.2566V22.7583L0.998444 22.7566C19.9573 22.6918 38.7375 18.8839 57.5048 14.4338C61.3303 13.5267 65.1561 12.5928 68.9826 11.6586C83.9115 8.01393 98.8526 4.36631 113.842 2.30129L113.842 2.30128C135.833 -0.724343 159.092 -0.593431 180.037 7.84277L180.037 7.84281C198.124 15.1318 214.097 29.1439 218.836 48.7893C223.05 66.2418 216.19 85.7993 199.576 94.2028L199.576 94.2028C184.093 102.031 167.617 94.9284 153.722 87.8117C152.522 87.1975 151.31 86.5679 150.087 85.9325C143.798 82.6653 137.221 79.2486 130.444 77.0254C122.364 74.3746 114.059 73.4431 105.711 76.4863C95.4076 80.243 88.3327 87.8625 82.8951 96.9214C78.2384 104.679 74.8056 113.451 71.5731 121.711C71.0263 123.108 70.4852 124.491 69.9449 125.851C62.9563 143.448 53.2513 159.875 39.4455 173.058C28.7163 183.315 15.5536 191.475 1.12642 195.24L0.500153 195.404V194.757V193.747V193.363L0.870346 193.264C1.79762 193.014 2.7198 192.757 3.62987 192.47L3.63164 192.469C18.7027 187.78 31.9708 178.496 42.6635 166.967C53.7917 154.963 61.8823 140.75 67.9257 125.582L67.9257 125.581C68.592 123.91 69.2509 122.222 69.9129 120.526C75.3899 106.494 81.0836 91.9071 92.9566 81.8255L92.9568 81.8253C98.4144 77.1964 104.951 73.846 112.134 72.8909L112.135 72.8909C118.745 72.0176 125.386 73.1978 131.611 75.3132L131.611 75.3133C138.278 77.5824 144.513 80.8054 150.702 84.0294L151.109 84.2412C157.172 87.3999 163.199 90.5401 169.607 92.8154L169.44 93.2866L169.608 92.8154C176.123 95.1295 183.053 96.4248 189.88 95.323C197.37 94.114 204.069 90.0024 209.033 84.2983L209.034 84.2977C220.248 71.4569 220.425 53.098 212.815 38.2952Z" fill="#80C34E" stroke="#80C34E"/>
</svg>
