<svg width="134" height="525" viewBox="0 0 134 525" fill="none" xmlns="http://www.w3.org/2000/svg">
<path d="M0.00120862 513.237C0.00120897 506.989 5.07044 501.919 11.3185 501.919C17.5666 501.919 22.6359 506.989 22.6359 513.237C22.6359 519.485 17.5666 524.554 11.3185 524.554C5.07044 524.554 0.00120827 519.485 0.00120862 513.237ZM20.9464 513.237C20.9464 507.932 16.6236 503.648 11.3579 503.648C6.09218 503.648 1.76983 507.971 1.76983 513.237C1.76983 518.502 6.09218 522.825 11.3579 522.825C16.6236 522.825 20.9464 518.502 20.9464 513.237Z" fill="#80C34E"/>
<path d="M0.00157483 457.516C0.00157518 451.268 5.0708 446.199 11.3189 446.199C17.567 446.199 22.6362 451.268 22.6362 457.516C22.6362 463.764 17.567 468.833 11.3189 468.833C5.0708 468.833 0.00157448 463.764 0.00157483 457.516ZM20.9468 457.516C20.9468 452.211 16.6239 447.928 11.3582 447.928C6.09254 447.928 1.77019 452.25 1.77019 457.516C1.77019 462.782 6.09254 467.104 11.3582 467.104C16.6239 467.104 20.9468 462.782 20.9468 457.516Z" fill="#80C34E"/>
<path d="M0.00120862 401.793C0.00120897 395.545 5.07044 390.476 11.3185 390.476C17.5666 390.476 22.6359 395.545 22.6359 401.793C22.6359 408.041 17.5666 413.11 11.3185 413.11C5.07044 413.11 0.00120827 408.041 0.00120862 401.793ZM20.9464 401.793C20.9464 396.488 16.6236 392.205 11.3579 392.205C6.09218 392.205 1.76983 396.527 1.76983 401.793C1.76983 407.059 6.09218 411.381 11.3579 411.381C16.6236 411.381 20.9464 407.059 20.9464 401.793Z" fill="#80C34E"/>
<path d="M0.00194119 346.07C0.00194146 339.822 5.07117 334.752 11.3193 334.752C17.5674 334.752 22.6366 339.822 22.6366 346.07C22.6366 352.318 17.5674 357.387 11.3193 357.387C5.07117 357.387 0.00194091 352.318 0.00194119 346.07ZM20.9471 346.07C20.9471 340.765 16.6243 336.481 11.3586 336.481C6.09291 336.481 1.77056 340.804 1.77056 346.07C1.77056 351.335 6.09291 355.658 11.3586 355.658C16.6243 355.658 20.9471 351.335 20.9471 346.07Z" fill="#80C34E"/>
<path d="M0.00120862 290.387C0.00120897 284.139 5.07044 279.07 11.3185 279.07C17.5666 279.07 22.6359 284.139 22.6359 290.387C22.6359 296.635 17.5666 301.704 11.3185 301.704C5.07044 301.704 0.00120827 296.635 0.00120862 290.387ZM20.9464 290.387C20.9464 285.082 16.6236 280.799 11.3579 280.799C6.09218 280.799 1.76983 285.121 1.76983 290.387C1.76983 295.653 6.09218 299.975 11.3579 299.975C16.6236 299.975 20.9464 295.653 20.9464 290.387Z" fill="#80C34E"/>
<path d="M-1.20843e-05 234.666C-1.17308e-05 228.418 5.06922 223.349 11.3173 223.349C17.5654 223.349 22.6346 228.418 22.6346 234.666C22.6346 240.915 17.5654 245.984 11.3173 245.984C5.06922 245.984 -1.24377e-05 240.915 -1.20843e-05 234.666ZM20.9452 234.666C20.9452 229.361 16.6223 225.078 11.3567 225.078C6.09096 225.078 1.76861 229.401 1.76861 234.666C1.76861 239.932 6.09096 244.255 11.3566 244.255C16.6223 244.255 20.9452 239.932 20.9452 234.666Z" fill="#80C34E"/>
<path d="M0.000476197 178.944C0.00047655 172.696 5.06971 167.626 11.3178 167.626C17.5659 167.626 22.6351 172.696 22.6351 178.944C22.6351 185.192 17.5659 190.261 11.3178 190.261C5.0697 190.261 0.000475844 185.192 0.000476197 178.944ZM20.9457 178.944C20.9457 173.639 16.6228 169.356 11.3571 169.356C6.09145 169.356 1.76909 173.678 1.76909 178.944C1.76909 184.209 6.09144 188.532 11.3571 188.532C16.6228 188.532 20.9457 184.209 20.9457 178.944Z" fill="#80C34E"/>
<path d="M-1.20843e-05 123.223C-1.17308e-05 116.975 5.06922 111.906 11.3173 111.906C17.5654 111.906 22.6346 116.975 22.6346 123.223C22.6346 129.471 17.5654 134.54 11.3173 134.54C5.06922 134.54 -1.24377e-05 129.471 -1.20843e-05 123.223ZM20.9452 123.223C20.9452 117.918 16.6223 113.635 11.3567 113.635C6.09096 113.635 1.76861 117.957 1.76861 123.223C1.76861 128.489 6.09096 132.811 11.3566 132.811C16.6223 132.811 20.9452 128.489 20.9452 123.223Z" fill="#80C34E"/>
<path d="M0.00120862 67.5004C0.00120897 61.2523 5.07044 56.1831 11.3185 56.1831C17.5666 56.1831 22.6359 61.2523 22.6359 67.5004C22.6359 73.7485 17.5666 78.8175 11.3185 78.8175C5.07044 78.8175 0.00120827 73.7485 0.00120862 67.5004ZM20.9464 67.5004C20.9464 62.1954 16.6236 57.9121 11.3579 57.9121C6.09218 57.9121 1.76983 62.2347 1.76983 67.5004C1.76983 72.7661 6.09218 77.0887 11.3579 77.0887C16.6236 77.0887 20.9464 72.7661 20.9464 67.5004Z" fill="#80C34E"/>
<path d="M55.5681 513.237C55.5681 506.989 60.6373 501.919 66.8854 501.919C73.1335 501.919 78.2028 506.989 78.2028 513.237C78.2028 519.485 73.1335 524.554 66.8854 524.554C60.6373 524.554 55.5681 519.485 55.5681 513.237ZM76.474 513.237C76.474 507.932 72.1511 503.648 66.8854 503.648C61.6197 503.648 57.2974 507.971 57.2974 513.237C57.2974 518.502 61.6197 522.825 66.8854 522.825C72.1511 522.825 76.474 518.502 76.474 513.237Z" fill="#80C34E"/>
<path d="M55.5688 457.515C55.5688 451.267 60.6381 446.198 66.8862 446.198C73.1343 446.198 78.2035 451.267 78.2035 457.515C78.2035 463.763 73.1343 468.832 66.8862 468.832C60.6381 468.832 55.5688 463.763 55.5688 457.515ZM76.4747 457.515C76.4747 452.21 72.1519 447.927 66.8862 447.927C61.6205 447.927 57.2981 452.249 57.2981 457.515C57.2981 462.781 61.6205 467.103 66.8862 467.103C72.1519 467.103 76.4747 462.781 76.4747 457.515Z" fill="#80C34E"/>
<path d="M55.5696 401.792C55.5696 395.544 60.6388 390.475 66.8869 390.475C73.135 390.475 78.2042 395.544 78.2042 401.792C78.2042 408.04 73.135 413.11 66.8869 413.11C60.6388 413.11 55.5696 408.04 55.5696 401.792ZM76.4754 401.792C76.4754 396.487 72.1526 392.204 66.8869 392.204C61.6212 392.204 57.2989 396.526 57.2989 401.792C57.2989 407.058 61.6212 411.38 66.8869 411.38C72.1526 411.38 76.4754 407.058 76.4754 401.792Z" fill="#80C34E"/>
<path d="M55.5681 346.07C55.5681 339.822 60.6373 334.752 66.8854 334.752C73.1335 334.752 78.2028 339.822 78.2028 346.07C78.2028 352.318 73.1335 357.387 66.8854 357.387C60.6373 357.387 55.5681 352.318 55.5681 346.07ZM76.474 346.07C76.474 340.765 72.1511 336.481 66.8854 336.481C61.6197 336.481 57.2974 340.804 57.2974 346.07C57.2974 351.335 61.6197 355.658 66.8854 355.658C72.1511 355.658 76.474 351.335 76.474 346.07Z" fill="#80C34E"/>
<path d="M55.5696 290.387C55.5696 284.139 60.6388 279.07 66.8869 279.07C73.135 279.07 78.2042 284.139 78.2042 290.387C78.2042 296.635 73.135 301.704 66.8869 301.704C60.6388 301.704 55.5696 296.635 55.5696 290.387ZM76.4754 290.387C76.4754 285.082 72.1526 280.799 66.8869 280.799C61.6212 280.799 57.2989 285.121 57.2989 290.387C57.2989 295.653 61.6212 299.975 66.8869 299.975C72.1526 299.975 76.4754 295.653 76.4754 290.387Z" fill="#80C34E"/>
<path d="M55.5686 234.665C55.5686 228.417 60.6378 223.348 66.8859 223.348C73.134 223.348 78.2032 228.417 78.2032 234.665C78.2032 240.914 73.134 245.983 66.8859 245.983C60.6378 245.983 55.5686 240.914 55.5686 234.665ZM76.4744 234.665C76.4744 229.36 72.1516 225.077 66.8859 225.077C61.6202 225.077 57.2979 229.4 57.2979 234.665C57.2979 239.931 61.6202 244.254 66.8859 244.254C72.1516 244.254 76.4744 239.931 76.4744 234.665Z" fill="#80C34E"/>
<path d="M55.5671 178.944C55.5671 172.696 60.6364 167.626 66.8845 167.626C73.1326 167.626 78.2018 172.696 78.2018 178.944C78.2018 185.192 73.1326 190.261 66.8845 190.261C60.6364 190.261 55.5671 185.192 55.5671 178.944ZM76.473 178.944C76.473 173.639 72.1501 169.356 66.8845 169.356C61.6188 169.356 57.2964 173.678 57.2964 178.944C57.2964 184.209 61.6188 188.532 66.8845 188.532C72.1501 188.532 76.473 184.209 76.473 178.944Z" fill="#80C34E"/>
<path d="M55.5681 123.222C55.5681 116.974 60.6373 111.905 66.8854 111.905C73.1335 111.905 78.2028 116.974 78.2028 123.222C78.2028 129.47 73.1335 134.539 66.8854 134.539C60.6373 134.539 55.5681 129.47 55.5681 123.222ZM76.474 123.222C76.474 117.917 72.1511 113.634 66.8854 113.634C61.6197 113.634 57.2974 117.956 57.2974 123.222C57.2974 128.488 61.6197 132.81 66.8854 132.81C72.1511 132.81 76.474 128.488 76.474 123.222Z" fill="#80C34E"/>
<path d="M55.5671 67.5004C55.5671 61.2523 60.6364 56.1831 66.8845 56.1831C73.1326 56.1831 78.2018 61.2523 78.2018 67.5004C78.2018 73.7485 73.1326 78.8175 66.8845 78.8175C60.6364 78.8175 55.5671 73.7485 55.5671 67.5004ZM76.473 67.5004C76.473 62.1954 72.1501 57.9121 66.8845 57.9121C61.6188 57.9121 57.2964 62.2347 57.2964 67.5004C57.2964 72.7661 61.6188 77.0887 66.8845 77.0887C72.1501 77.0887 76.473 72.7661 76.473 67.5004Z" fill="#80C34E"/>
<path d="M55.5688 11.8168C55.5688 5.56874 60.6381 0.499511 66.8862 0.499511C73.1343 0.499511 78.2035 5.56874 78.2035 11.8168C78.2035 18.0649 73.1343 23.1342 66.8862 23.1342C60.6381 23.1342 55.5688 18.0649 55.5688 11.8168ZM76.4747 11.8168C76.4747 6.51185 72.1519 2.22855 66.8862 2.22855C61.6205 2.22855 57.2981 6.55115 57.2981 11.8168C57.2981 17.0825 61.6205 21.4051 66.8862 21.4051C72.1519 21.4051 76.4747 17.0825 76.4747 11.8168Z" fill="#80C34E"/>
<path d="M111.094 457.514C111.094 451.266 116.163 446.197 122.411 446.197C128.66 446.197 133.729 451.266 133.729 457.514C133.729 463.762 128.66 468.831 122.411 468.831C116.163 468.831 111.094 463.762 111.094 457.514ZM132.039 457.514C132.039 452.209 127.716 447.926 122.451 447.926C117.185 447.926 112.862 452.248 112.862 457.514C112.862 462.78 117.185 467.102 122.451 467.102C127.716 467.102 132.039 462.78 132.039 457.514Z" fill="#80C34E"/>
<path d="M111.096 401.79C111.096 395.542 116.166 390.473 122.414 390.473C128.662 390.473 133.731 395.542 133.731 401.79C133.731 408.038 128.662 413.108 122.414 413.108C116.166 413.108 111.096 408.038 111.096 401.79ZM132.041 401.79C132.041 396.485 127.719 392.202 122.453 392.202C117.187 392.202 112.865 396.525 112.865 401.79C112.865 407.056 117.187 411.379 122.453 411.379C127.719 411.379 132.041 407.056 132.041 401.79Z" fill="#80C34E"/>
<path d="M111.095 346.069C111.095 339.821 116.164 334.751 122.412 334.751C128.66 334.751 133.729 339.821 133.729 346.069C133.729 352.317 128.66 357.386 122.412 357.386C116.164 357.386 111.095 352.317 111.095 346.069ZM132.04 346.069C132.04 340.764 127.717 336.481 122.451 336.481C117.186 336.481 112.863 340.803 112.863 346.069C112.863 351.334 117.186 355.657 122.451 355.657C127.717 355.657 132.04 351.334 132.04 346.069Z" fill="#80C34E"/>
<path d="M111.095 290.388C111.095 284.14 116.164 279.071 122.412 279.071C128.66 279.071 133.729 284.14 133.729 290.388C133.729 296.636 128.66 301.705 122.412 301.705C116.164 301.705 111.095 296.636 111.095 290.388ZM132.04 290.388C132.04 285.083 127.717 280.8 122.451 280.8C117.186 280.8 112.863 285.122 112.863 290.388C112.863 295.654 117.186 299.976 122.451 299.976C127.717 299.976 132.04 295.654 132.04 290.388Z" fill="#80C34E"/>
<path d="M111.096 234.663C111.096 228.414 116.165 223.345 122.413 223.345C128.661 223.345 133.73 228.414 133.73 234.663C133.73 240.911 128.661 245.98 122.413 245.98C116.165 245.98 111.096 240.911 111.096 234.663ZM132.041 234.663C132.041 229.358 127.718 225.074 122.452 225.074C117.187 225.074 112.864 229.397 112.864 234.663C112.864 239.928 117.187 244.251 122.452 244.251C127.718 244.251 132.041 239.928 132.041 234.663Z" fill="#80C34E"/>
<path d="M111.096 178.942C111.096 172.694 116.165 167.625 122.413 167.625C128.661 167.625 133.73 172.694 133.73 178.942C133.73 185.19 128.661 190.259 122.413 190.259C116.165 190.259 111.096 185.19 111.096 178.942ZM132.041 178.942C132.041 173.637 127.718 169.354 122.452 169.354C117.187 169.354 112.864 173.676 112.864 178.942C112.864 184.208 117.187 188.53 122.452 188.53C127.718 188.53 132.041 184.208 132.041 178.942Z" fill="#80C34E"/>
<path d="M111.095 123.221C111.095 116.973 116.164 111.904 122.412 111.904C128.66 111.904 133.729 116.973 133.729 123.221C133.729 129.469 128.66 134.538 122.412 134.538C116.164 134.538 111.095 129.469 111.095 123.221ZM132.04 123.221C132.04 117.916 127.717 113.633 122.451 113.633C117.186 113.633 112.863 117.955 112.863 123.221C112.863 128.487 117.186 132.809 122.451 132.809C127.717 132.809 132.04 128.487 132.04 123.221Z" fill="#80C34E"/>
<path d="M111.095 67.4985C111.095 61.2504 116.164 56.1812 122.412 56.1812C128.66 56.1812 133.729 61.2504 133.729 67.4985C133.729 73.7466 128.66 78.8156 122.412 78.8156C116.164 78.8156 111.095 73.7466 111.095 67.4985ZM132.04 67.4985C132.04 62.1935 127.717 57.9102 122.451 57.9102C117.186 57.9102 112.863 62.2328 112.863 67.4985C112.863 72.7642 117.186 77.0868 122.451 77.0868C127.717 77.0868 132.04 72.7642 132.04 67.4985Z" fill="#80C34E"/>
<path d="M111.095 11.8159C111.095 5.56776 116.164 0.498534 122.412 0.498535C128.66 0.498535 133.729 5.56777 133.729 11.8159C133.729 18.064 128.66 23.1332 122.412 23.1332C116.164 23.1332 111.095 18.064 111.095 11.8159ZM132.04 11.8159C132.04 6.51087 127.717 2.22758 122.451 2.22758C117.186 2.22758 112.863 6.55017 112.863 11.8159C112.863 17.0816 117.186 21.4041 122.451 21.4041C127.717 21.4041 132.04 17.0816 132.04 11.8159Z" fill="#80C34E"/>
</svg>
