<svg width="104" height="55" viewBox="0 0 104 55" fill="none" xmlns="http://www.w3.org/2000/svg">
<path d="M33.3501 1H26.8401V30.1599H33.3501V1Z" fill="#EF2F88"/>
<path d="M58.6199 19.7299C62.3199 18.3965 64.1699 15.3965 64.1699 10.7299C64.1699 7.32986 63.2034 4.86651 61.27 3.33984C59.3367 1.81318 56.1034 1.0498 51.5701 1.0498H40.51V30.2098H47.02V20.8999H51.53L57.99 30.2098H65.99L58.6199 19.7299ZM56.3201 14.1399C55.5201 14.8599 54 15.2198 51.78 15.2198H47.02V6.58984H51.8999C53.4129 6.45822 54.9322 6.75997 56.28 7.45984C56.7376 7.85639 57.0907 8.35917 57.3086 8.92407C57.5265 9.48897 57.6027 10.0987 57.53 10.6998C57.5866 11.3264 57.5078 11.9579 57.2991 12.5514C57.0903 13.1449 56.7565 13.6867 56.3201 14.1399Z" fill="#EF2F88"/>
<path d="M103.47 1H94.71L87.1599 17.02L79.6499 1H70.8401V30.1599H77.3501V11.8L85.2 27.74H89.0701L96.96 11.8V30.1599H103.47V1Z" fill="#EF2F88"/>
<path d="M19.7 0.97998H2.25C1.34425 0.97998 0.610107 1.71437 0.610107 2.62012V6.25C0.610107 7.15575 1.34425 7.88989 2.25 7.88989H19.7C20.6057 7.88989 21.3401 7.15575 21.3401 6.25V2.62012C21.3401 1.71437 20.6057 0.97998 19.7 0.97998Z" fill="#EF2F88"/>
<path d="M15.1001 12.0098H2.25C1.34425 12.0098 0.610107 12.7439 0.610107 13.6497V17.2798C0.610107 18.1855 1.34425 18.9197 2.25 18.9197H15.1001C16.0058 18.9197 16.74 18.1855 16.74 17.2798V13.6497C16.74 12.7439 16.0058 12.0098 15.1001 12.0098Z" fill="#EF2F88"/>
<path d="M6.34009 23.27H2.25C1.34425 23.27 0.610107 24.0042 0.610107 24.9099V28.54C0.610107 29.4458 1.34425 30.1799 2.25 30.1799H6.34009C7.24583 30.1799 7.97998 29.4458 7.97998 28.54V24.9099C7.97998 24.0042 7.24583 23.27 6.34009 23.27Z" fill="#EF2F88"/>
<path d="M10.4199 41.8302C9.16905 41.5907 7.95538 41.1872 6.81006 40.6302C6.56931 40.4901 6.36998 40.2884 6.23291 40.0459C6.09584 39.8034 6.02592 39.5288 6.03003 39.2502C6.0222 38.9848 6.07574 38.7212 6.18677 38.4801C6.2978 38.2389 6.46321 38.0268 6.66992 37.8602C7.17347 37.4846 7.7926 37.2971 8.41992 37.3302C10.373 37.3834 12.2525 38.0873 13.76 39.3302L16 36.0902C14.9757 35.2388 13.8026 34.5845 12.54 34.1603C11.2534 33.7143 9.90177 33.4844 8.54004 33.4802C6.72704 33.4131 4.94322 33.9514 3.46997 35.0102C2.80851 35.5207 2.28099 36.1842 1.93262 36.9437C1.58424 37.7032 1.42542 38.5358 1.46997 39.3702C1.3996 40.1393 1.50827 40.9142 1.7876 41.6342C2.06693 42.3543 2.50944 42.9998 3.08008 43.5202C4.59104 44.6017 6.32214 45.3358 8.1499 45.6701C9.17391 45.8641 10.1601 46.2221 11.0701 46.7302C11.2933 46.8936 11.4747 47.1074 11.5999 47.3541C11.725 47.6008 11.79 47.8736 11.79 48.1502C11.79 48.4269 11.725 48.6995 11.5999 48.9463C11.4747 49.193 11.2933 49.4067 11.0701 49.5702C10.5086 49.9511 9.83743 50.1373 9.15991 50.1002C7.33991 50.1002 5.35997 49.1636 3.21997 47.2903L0.580078 50.5202C2.84623 52.7481 5.89224 54.0038 9.07007 54.0202C10.9681 54.1103 12.8361 53.5219 14.3398 52.3602C14.9844 51.8393 15.5003 51.1766 15.8472 50.4239C16.194 49.6712 16.3626 48.8487 16.3398 48.0202C16.391 47.2707 16.278 46.5191 16.0085 45.8178C15.7391 45.1166 15.3199 44.4826 14.78 43.9602C13.5201 42.9084 12.024 42.1776 10.4199 41.8302Z" fill="#EF2F88"/>
<path d="M25.9199 33.9004L17.3398 53.7504H22.05L23.8999 49.4603H32.22L34.0701 53.7504H38.78L30.21 33.9004H25.9199ZM25.5801 45.5703L28.0801 39.8003L30.55 45.5703H25.5801Z" fill="#EF2F88"/>
<path d="M54.98 46.6799L45.24 33.8999H41.0901V53.75H45.52V41.3101L54.98 53.75H59.4099V33.8999H54.98V46.6799Z" fill="#EF2F88"/>
<path d="M70.28 33.9004L61.71 53.7504H66.4199L68.27 49.4603H76.5898L78.4399 53.7504H83.1499L74.5701 33.9004H70.28ZM69.9399 45.5703L72.4399 39.8003L74.9099 45.5703H69.9399Z" fill="#EF2F88"/>
<path d="M100.62 36.4801C98.7265 34.7468 96.01 33.8835 92.47 33.8902H85.47V53.7402H92.26C96.05 53.7402 98.86 52.8402 100.71 51.0402C101.654 50.0765 102.387 48.9274 102.864 47.6657C103.341 46.404 103.55 45.0571 103.48 43.7101C103.551 42.3703 103.332 41.031 102.838 39.7834C102.345 38.5357 101.588 37.4091 100.62 36.4801ZM97.3699 48.2902C96.0687 49.3832 94.3957 49.9313 92.7 49.8201H89.8799V37.7502H92.3499C94.1569 37.6063 95.9494 38.1691 97.3499 39.3201C97.9171 39.9194 98.3545 40.6292 98.635 41.4052C98.9155 42.1812 99.033 43.0067 98.98 43.8301C99.0405 44.6465 98.9283 45.4665 98.6509 46.2366C98.3735 47.0068 97.937 47.7098 97.3699 48.3001V48.2902Z" fill="#EF2F88"/>
</svg>
