<svg width="254" height="107" viewBox="0 0 254 107" fill="none" xmlns="http://www.w3.org/2000/svg">
<path d="M44.0099 13.68C47.7876 13.68 50.8499 10.6176 50.8499 6.83997C50.8499 3.06234 47.7876 0 44.0099 0C40.2323 0 37.1699 3.06234 37.1699 6.83997C37.1699 10.6176 40.2323 13.68 44.0099 13.68Z" fill="#80C34E"/>
<path d="M74.84 33.68C78.6177 33.68 81.68 30.6176 81.68 26.84C81.68 23.0623 78.6177 20 74.84 20C71.0624 20 68 23.0623 68 26.84C68 30.6176 71.0624 33.68 74.84 33.68Z" fill="#80C34E"/>
<path d="M105.67 53.68C109.448 53.68 112.51 50.6176 112.51 46.84C112.51 43.0623 109.448 40 105.67 40C101.892 40 98.8301 43.0623 98.8301 46.84C98.8301 50.6176 101.892 53.68 105.67 53.68Z" fill="#80C34E"/>
<mask id="mask0_60_1335" style="mask-type:luminance" maskUnits="userSpaceOnUse" x="0" y="38" width="68" height="69">
<path d="M33.78 106.31C52.4361 106.31 67.56 91.1861 67.56 72.53C67.56 53.8738 52.4361 38.75 33.78 38.75C15.1238 38.75 0 53.8738 0 72.53C0 91.1861 15.1238 106.31 33.78 106.31Z" fill="white"/>
</mask>
<g mask="url(#mask0_60_1335)">
<path d="M1.62012 40.8408C2.04538 40.8408 2.39014 40.4961 2.39014 40.0708C2.39014 39.6455 2.04538 39.3008 1.62012 39.3008C1.19486 39.3008 0.850098 39.6455 0.850098 40.0708C0.850098 40.4961 1.19486 40.8408 1.62012 40.8408Z" fill="#80C34E"/>
<path d="M9.6601 40.8408C10.0854 40.8408 10.4301 40.4961 10.4301 40.0708C10.4301 39.6455 10.0854 39.3008 9.6601 39.3008C9.23484 39.3008 8.89014 39.6455 8.89014 40.0708C8.89014 40.4961 9.23484 40.8408 9.6601 40.8408Z" fill="#80C34E"/>
<path d="M17.7002 40.8408C18.1255 40.8408 18.4702 40.4961 18.4702 40.0708C18.4702 39.6455 18.1255 39.3008 17.7002 39.3008C17.2749 39.3008 16.9302 39.6455 16.9302 40.0708C16.9302 40.4961 17.2749 40.8408 17.7002 40.8408Z" fill="#80C34E"/>
<path d="M25.7402 40.8408C26.1655 40.8408 26.5103 40.4961 26.5103 40.0708C26.5103 39.6455 26.1655 39.3008 25.7402 39.3008C25.315 39.3008 24.9702 39.6455 24.9702 40.0708C24.9702 40.4961 25.315 40.8408 25.7402 40.8408Z" fill="#80C34E"/>
<path d="M33.7802 40.8408C34.2055 40.8408 34.5502 40.4961 34.5502 40.0708C34.5502 39.6455 34.2055 39.3008 33.7802 39.3008C33.355 39.3008 33.0103 39.6455 33.0103 40.0708C33.0103 40.4961 33.355 40.8408 33.7802 40.8408Z" fill="#80C34E"/>
<path d="M41.8301 40.8408C42.2553 40.8408 42.6 40.4961 42.6 40.0708C42.6 39.6455 42.2553 39.3008 41.8301 39.3008C41.4048 39.3008 41.0601 39.6455 41.0601 40.0708C41.0601 40.4961 41.4048 40.8408 41.8301 40.8408Z" fill="#80C34E"/>
<path d="M49.8701 40.8408C50.2954 40.8408 50.6401 40.4961 50.6401 40.0708C50.6401 39.6455 50.2954 39.3008 49.8701 39.3008C49.4449 39.3008 49.1001 39.6455 49.1001 40.0708C49.1001 40.4961 49.4449 40.8408 49.8701 40.8408Z" fill="#80C34E"/>
<path d="M57.9101 40.8408C58.3354 40.8408 58.6801 40.4961 58.6801 40.0708C58.6801 39.6455 58.3354 39.3008 57.9101 39.3008C57.4848 39.3008 57.1401 39.6455 57.1401 40.0708C57.1401 40.4961 57.4848 40.8408 57.9101 40.8408Z" fill="#80C34E"/>
<path d="M65.9502 40.8408C66.3755 40.8408 66.7202 40.4961 66.7202 40.0708C66.7202 39.6455 66.3755 39.3008 65.9502 39.3008C65.5249 39.3008 65.1802 39.6455 65.1802 40.0708C65.1802 40.4961 65.5249 40.8408 65.9502 40.8408Z" fill="#80C34E"/>
<path d="M1.62012 48.0615C2.04538 48.0615 2.39014 47.7168 2.39014 47.2915C2.39014 46.8662 2.04538 46.5215 1.62012 46.5215C1.19486 46.5215 0.850098 46.8662 0.850098 47.2915C0.850098 47.7168 1.19486 48.0615 1.62012 48.0615Z" fill="#80C34E"/>
<path d="M9.6601 48.0615C10.0854 48.0615 10.4301 47.7168 10.4301 47.2915C10.4301 46.8662 10.0854 46.5215 9.6601 46.5215C9.23484 46.5215 8.89014 46.8662 8.89014 47.2915C8.89014 47.7168 9.23484 48.0615 9.6601 48.0615Z" fill="#80C34E"/>
<path d="M17.7002 48.0615C18.1255 48.0615 18.4702 47.7168 18.4702 47.2915C18.4702 46.8662 18.1255 46.5215 17.7002 46.5215C17.2749 46.5215 16.9302 46.8662 16.9302 47.2915C16.9302 47.7168 17.2749 48.0615 17.7002 48.0615Z" fill="#80C34E"/>
<path d="M25.7402 48.0615C26.1655 48.0615 26.5103 47.7168 26.5103 47.2915C26.5103 46.8662 26.1655 46.5215 25.7402 46.5215C25.315 46.5215 24.9702 46.8662 24.9702 47.2915C24.9702 47.7168 25.315 48.0615 25.7402 48.0615Z" fill="#80C34E"/>
<path d="M33.7802 48.0615C34.2055 48.0615 34.5502 47.7168 34.5502 47.2915C34.5502 46.8662 34.2055 46.5215 33.7802 46.5215C33.355 46.5215 33.0103 46.8662 33.0103 47.2915C33.0103 47.7168 33.355 48.0615 33.7802 48.0615Z" fill="#80C34E"/>
<path d="M41.8301 48.0615C42.2553 48.0615 42.6 47.7168 42.6 47.2915C42.6 46.8662 42.2553 46.5215 41.8301 46.5215C41.4048 46.5215 41.0601 46.8662 41.0601 47.2915C41.0601 47.7168 41.4048 48.0615 41.8301 48.0615Z" fill="#80C34E"/>
<path d="M49.8701 48.0615C50.2954 48.0615 50.6401 47.7168 50.6401 47.2915C50.6401 46.8662 50.2954 46.5215 49.8701 46.5215C49.4449 46.5215 49.1001 46.8662 49.1001 47.2915C49.1001 47.7168 49.4449 48.0615 49.8701 48.0615Z" fill="#80C34E"/>
<path d="M57.9101 48.0615C58.3354 48.0615 58.6801 47.7168 58.6801 47.2915C58.6801 46.8662 58.3354 46.5215 57.9101 46.5215C57.4848 46.5215 57.1401 46.8662 57.1401 47.2915C57.1401 47.7168 57.4848 48.0615 57.9101 48.0615Z" fill="#80C34E"/>
<path d="M65.9502 48.0615C66.3755 48.0615 66.7202 47.7168 66.7202 47.2915C66.7202 46.8662 66.3755 46.5215 65.9502 46.5215C65.5249 46.5215 65.1802 46.8662 65.1802 47.2915C65.1802 47.7168 65.5249 48.0615 65.9502 48.0615Z" fill="#80C34E"/>
<path d="M1.62012 55.2704C2.04538 55.2704 2.39014 54.9256 2.39014 54.5004C2.39014 54.0751 2.04538 53.7305 1.62012 53.7305C1.19486 53.7305 0.850098 54.0751 0.850098 54.5004C0.850098 54.9256 1.19486 55.2704 1.62012 55.2704Z" fill="#80C34E"/>
<path d="M9.6601 55.2704C10.0854 55.2704 10.4301 54.9256 10.4301 54.5004C10.4301 54.0751 10.0854 53.7305 9.6601 53.7305C9.23484 53.7305 8.89014 54.0751 8.89014 54.5004C8.89014 54.9256 9.23484 55.2704 9.6601 55.2704Z" fill="#80C34E"/>
<path d="M17.7002 55.2704C18.1255 55.2704 18.4702 54.9256 18.4702 54.5004C18.4702 54.0751 18.1255 53.7305 17.7002 53.7305C17.2749 53.7305 16.9302 54.0751 16.9302 54.5004C16.9302 54.9256 17.2749 55.2704 17.7002 55.2704Z" fill="#80C34E"/>
<path d="M25.7402 55.2704C26.1655 55.2704 26.5103 54.9256 26.5103 54.5004C26.5103 54.0751 26.1655 53.7305 25.7402 53.7305C25.315 53.7305 24.9702 54.0751 24.9702 54.5004C24.9702 54.9256 25.315 55.2704 25.7402 55.2704Z" fill="#80C34E"/>
<path d="M33.7802 55.2704C34.2055 55.2704 34.5502 54.9256 34.5502 54.5004C34.5502 54.0751 34.2055 53.7305 33.7802 53.7305C33.355 53.7305 33.0103 54.0751 33.0103 54.5004C33.0103 54.9256 33.355 55.2704 33.7802 55.2704Z" fill="#80C34E"/>
<path d="M41.8301 55.2704C42.2553 55.2704 42.6 54.9256 42.6 54.5004C42.6 54.0751 42.2553 53.7305 41.8301 53.7305C41.4048 53.7305 41.0601 54.0751 41.0601 54.5004C41.0601 54.9256 41.4048 55.2704 41.8301 55.2704Z" fill="#80C34E"/>
<path d="M49.8701 55.2704C50.2954 55.2704 50.6401 54.9256 50.6401 54.5004C50.6401 54.0751 50.2954 53.7305 49.8701 53.7305C49.4449 53.7305 49.1001 54.0751 49.1001 54.5004C49.1001 54.9256 49.4449 55.2704 49.8701 55.2704Z" fill="#80C34E"/>
<path d="M57.9101 55.2704C58.3354 55.2704 58.6801 54.9256 58.6801 54.5004C58.6801 54.0751 58.3354 53.7305 57.9101 53.7305C57.4848 53.7305 57.1401 54.0751 57.1401 54.5004C57.1401 54.9256 57.4848 55.2704 57.9101 55.2704Z" fill="#80C34E"/>
<path d="M65.9502 55.2704C66.3755 55.2704 66.7202 54.9256 66.7202 54.5004C66.7202 54.0751 66.3755 53.7305 65.9502 53.7305C65.5249 53.7305 65.1802 54.0751 65.1802 54.5004C65.1802 54.9256 65.5249 55.2704 65.9502 55.2704Z" fill="#80C34E"/>
<path d="M1.62012 62.4814C2.04538 62.4814 2.39014 62.1367 2.39014 61.7114C2.39014 61.2862 2.04538 60.9414 1.62012 60.9414C1.19486 60.9414 0.850098 61.2862 0.850098 61.7114C0.850098 62.1367 1.19486 62.4814 1.62012 62.4814Z" fill="#80C34E"/>
<path d="M9.6601 62.4814C10.0854 62.4814 10.4301 62.1367 10.4301 61.7114C10.4301 61.2862 10.0854 60.9414 9.6601 60.9414C9.23484 60.9414 8.89014 61.2862 8.89014 61.7114C8.89014 62.1367 9.23484 62.4814 9.6601 62.4814Z" fill="#80C34E"/>
<path d="M17.7002 62.4814C18.1255 62.4814 18.4702 62.1367 18.4702 61.7114C18.4702 61.2862 18.1255 60.9414 17.7002 60.9414C17.2749 60.9414 16.9302 61.2862 16.9302 61.7114C16.9302 62.1367 17.2749 62.4814 17.7002 62.4814Z" fill="#80C34E"/>
<path d="M25.7402 62.4814C26.1655 62.4814 26.5103 62.1367 26.5103 61.7114C26.5103 61.2862 26.1655 60.9414 25.7402 60.9414C25.315 60.9414 24.9702 61.2862 24.9702 61.7114C24.9702 62.1367 25.315 62.4814 25.7402 62.4814Z" fill="#80C34E"/>
<path d="M33.7802 62.4814C34.2055 62.4814 34.5502 62.1367 34.5502 61.7114C34.5502 61.2862 34.2055 60.9414 33.7802 60.9414C33.355 60.9414 33.0103 61.2862 33.0103 61.7114C33.0103 62.1367 33.355 62.4814 33.7802 62.4814Z" fill="#80C34E"/>
<path d="M41.8301 62.4814C42.2553 62.4814 42.6 62.1367 42.6 61.7114C42.6 61.2862 42.2553 60.9414 41.8301 60.9414C41.4048 60.9414 41.0601 61.2862 41.0601 61.7114C41.0601 62.1367 41.4048 62.4814 41.8301 62.4814Z" fill="#80C34E"/>
<path d="M49.8701 62.4814C50.2954 62.4814 50.6401 62.1367 50.6401 61.7114C50.6401 61.2862 50.2954 60.9414 49.8701 60.9414C49.4449 60.9414 49.1001 61.2862 49.1001 61.7114C49.1001 62.1367 49.4449 62.4814 49.8701 62.4814Z" fill="#80C34E"/>
<path d="M57.9101 62.4814C58.3354 62.4814 58.6801 62.1367 58.6801 61.7114C58.6801 61.2862 58.3354 60.9414 57.9101 60.9414C57.4848 60.9414 57.1401 61.2862 57.1401 61.7114C57.1401 62.1367 57.4848 62.4814 57.9101 62.4814Z" fill="#80C34E"/>
<path d="M65.9502 62.4814C66.3755 62.4814 66.7202 62.1367 66.7202 61.7114C66.7202 61.2862 66.3755 60.9414 65.9502 60.9414C65.5249 60.9414 65.1802 61.2862 65.1802 61.7114C65.1802 62.1367 65.5249 62.4814 65.9502 62.4814Z" fill="#80C34E"/>
<path d="M1.62012 69.6904C2.04538 69.6904 2.39014 69.3457 2.39014 68.9204C2.39014 68.4952 2.04538 68.1504 1.62012 68.1504C1.19486 68.1504 0.850098 68.4952 0.850098 68.9204C0.850098 69.3457 1.19486 69.6904 1.62012 69.6904Z" fill="#80C34E"/>
<path d="M9.6601 69.6904C10.0854 69.6904 10.4301 69.3457 10.4301 68.9204C10.4301 68.4952 10.0854 68.1504 9.6601 68.1504C9.23484 68.1504 8.89014 68.4952 8.89014 68.9204C8.89014 69.3457 9.23484 69.6904 9.6601 69.6904Z" fill="#80C34E"/>
<path d="M17.7002 69.6904C18.1255 69.6904 18.4702 69.3457 18.4702 68.9204C18.4702 68.4952 18.1255 68.1504 17.7002 68.1504C17.2749 68.1504 16.9302 68.4952 16.9302 68.9204C16.9302 69.3457 17.2749 69.6904 17.7002 69.6904Z" fill="#80C34E"/>
<path d="M25.7402 69.6904C26.1655 69.6904 26.5103 69.3457 26.5103 68.9204C26.5103 68.4952 26.1655 68.1504 25.7402 68.1504C25.315 68.1504 24.9702 68.4952 24.9702 68.9204C24.9702 69.3457 25.315 69.6904 25.7402 69.6904Z" fill="#80C34E"/>
<path d="M33.7802 69.6904C34.2055 69.6904 34.5502 69.3457 34.5502 68.9204C34.5502 68.4952 34.2055 68.1504 33.7802 68.1504C33.355 68.1504 33.0103 68.4952 33.0103 68.9204C33.0103 69.3457 33.355 69.6904 33.7802 69.6904Z" fill="#80C34E"/>
<path d="M41.8301 69.6904C42.2553 69.6904 42.6 69.3457 42.6 68.9204C42.6 68.4952 42.2553 68.1504 41.8301 68.1504C41.4048 68.1504 41.0601 68.4952 41.0601 68.9204C41.0601 69.3457 41.4048 69.6904 41.8301 69.6904Z" fill="#80C34E"/>
<path d="M49.8701 69.6904C50.2954 69.6904 50.6401 69.3457 50.6401 68.9204C50.6401 68.4952 50.2954 68.1504 49.8701 68.1504C49.4449 68.1504 49.1001 68.4952 49.1001 68.9204C49.1001 69.3457 49.4449 69.6904 49.8701 69.6904Z" fill="#80C34E"/>
<path d="M57.9101 69.6904C58.3354 69.6904 58.6801 69.3457 58.6801 68.9204C58.6801 68.4952 58.3354 68.1504 57.9101 68.1504C57.4848 68.1504 57.1401 68.4952 57.1401 68.9204C57.1401 69.3457 57.4848 69.6904 57.9101 69.6904Z" fill="#80C34E"/>
<path d="M65.9502 69.6904C66.3755 69.6904 66.7202 69.3457 66.7202 68.9204C66.7202 68.4952 66.3755 68.1504 65.9502 68.1504C65.5249 68.1504 65.1802 68.4952 65.1802 68.9204C65.1802 69.3457 65.5249 69.6904 65.9502 69.6904Z" fill="#80C34E"/>
<path d="M1.62012 76.9014C2.04538 76.9014 2.39014 76.5566 2.39014 76.1313C2.39014 75.7061 2.04538 75.3613 1.62012 75.3613C1.19486 75.3613 0.850098 75.7061 0.850098 76.1313C0.850098 76.5566 1.19486 76.9014 1.62012 76.9014Z" fill="#80C34E"/>
<path d="M9.6601 76.9014C10.0854 76.9014 10.4301 76.5566 10.4301 76.1313C10.4301 75.7061 10.0854 75.3613 9.6601 75.3613C9.23484 75.3613 8.89014 75.7061 8.89014 76.1313C8.89014 76.5566 9.23484 76.9014 9.6601 76.9014Z" fill="#80C34E"/>
<path d="M17.7002 76.9014C18.1255 76.9014 18.4702 76.5566 18.4702 76.1313C18.4702 75.7061 18.1255 75.3613 17.7002 75.3613C17.2749 75.3613 16.9302 75.7061 16.9302 76.1313C16.9302 76.5566 17.2749 76.9014 17.7002 76.9014Z" fill="#80C34E"/>
<path d="M25.7402 76.9014C26.1655 76.9014 26.5103 76.5566 26.5103 76.1313C26.5103 75.7061 26.1655 75.3613 25.7402 75.3613C25.315 75.3613 24.9702 75.7061 24.9702 76.1313C24.9702 76.5566 25.315 76.9014 25.7402 76.9014Z" fill="#80C34E"/>
<path d="M33.7802 76.9014C34.2055 76.9014 34.5502 76.5566 34.5502 76.1313C34.5502 75.7061 34.2055 75.3613 33.7802 75.3613C33.355 75.3613 33.0103 75.7061 33.0103 76.1313C33.0103 76.5566 33.355 76.9014 33.7802 76.9014Z" fill="#80C34E"/>
<path d="M41.8301 76.9014C42.2553 76.9014 42.6 76.5566 42.6 76.1313C42.6 75.7061 42.2553 75.3613 41.8301 75.3613C41.4048 75.3613 41.0601 75.7061 41.0601 76.1313C41.0601 76.5566 41.4048 76.9014 41.8301 76.9014Z" fill="#80C34E"/>
<path d="M49.8701 76.9014C50.2954 76.9014 50.6401 76.5566 50.6401 76.1313C50.6401 75.7061 50.2954 75.3613 49.8701 75.3613C49.4449 75.3613 49.1001 75.7061 49.1001 76.1313C49.1001 76.5566 49.4449 76.9014 49.8701 76.9014Z" fill="#80C34E"/>
<path d="M57.9101 76.9014C58.3354 76.9014 58.6801 76.5566 58.6801 76.1313C58.6801 75.7061 58.3354 75.3613 57.9101 75.3613C57.4848 75.3613 57.1401 75.7061 57.1401 76.1313C57.1401 76.5566 57.4848 76.9014 57.9101 76.9014Z" fill="#80C34E"/>
<path d="M65.9502 76.9014C66.3755 76.9014 66.7202 76.5566 66.7202 76.1313C66.7202 75.7061 66.3755 75.3613 65.9502 75.3613C65.5249 75.3613 65.1802 75.7061 65.1802 76.1313C65.1802 76.5566 65.5249 76.9014 65.9502 76.9014Z" fill="#80C34E"/>
<path d="M1.62012 84.12C2.04538 84.12 2.39014 83.7754 2.39014 83.3501C2.39014 82.9248 2.04538 82.5801 1.62012 82.5801C1.19486 82.5801 0.850098 82.9248 0.850098 83.3501C0.850098 83.7754 1.19486 84.12 1.62012 84.12Z" fill="#80C34E"/>
<path d="M9.6601 84.12C10.0854 84.12 10.4301 83.7754 10.4301 83.3501C10.4301 82.9248 10.0854 82.5801 9.6601 82.5801C9.23484 82.5801 8.89014 82.9248 8.89014 83.3501C8.89014 83.7754 9.23484 84.12 9.6601 84.12Z" fill="#80C34E"/>
<path d="M17.7002 84.12C18.1255 84.12 18.4702 83.7754 18.4702 83.3501C18.4702 82.9248 18.1255 82.5801 17.7002 82.5801C17.2749 82.5801 16.9302 82.9248 16.9302 83.3501C16.9302 83.7754 17.2749 84.12 17.7002 84.12Z" fill="#80C34E"/>
<path d="M25.7402 84.12C26.1655 84.12 26.5103 83.7754 26.5103 83.3501C26.5103 82.9248 26.1655 82.5801 25.7402 82.5801C25.315 82.5801 24.9702 82.9248 24.9702 83.3501C24.9702 83.7754 25.315 84.12 25.7402 84.12Z" fill="#80C34E"/>
<path d="M33.7802 84.12C34.2055 84.12 34.5502 83.7754 34.5502 83.3501C34.5502 82.9248 34.2055 82.5801 33.7802 82.5801C33.355 82.5801 33.0103 82.9248 33.0103 83.3501C33.0103 83.7754 33.355 84.12 33.7802 84.12Z" fill="#80C34E"/>
<path d="M41.8301 84.12C42.2553 84.12 42.6 83.7754 42.6 83.3501C42.6 82.9248 42.2553 82.5801 41.8301 82.5801C41.4048 82.5801 41.0601 82.9248 41.0601 83.3501C41.0601 83.7754 41.4048 84.12 41.8301 84.12Z" fill="#80C34E"/>
<path d="M49.8701 84.12C50.2954 84.12 50.6401 83.7754 50.6401 83.3501C50.6401 82.9248 50.2954 82.5801 49.8701 82.5801C49.4449 82.5801 49.1001 82.9248 49.1001 83.3501C49.1001 83.7754 49.4449 84.12 49.8701 84.12Z" fill="#80C34E"/>
<path d="M57.9101 84.12C58.3354 84.12 58.6801 83.7754 58.6801 83.3501C58.6801 82.9248 58.3354 82.5801 57.9101 82.5801C57.4848 82.5801 57.1401 82.9248 57.1401 83.3501C57.1401 83.7754 57.4848 84.12 57.9101 84.12Z" fill="#80C34E"/>
<path d="M65.9502 84.12C66.3755 84.12 66.7202 83.7754 66.7202 83.3501C66.7202 82.9248 66.3755 82.5801 65.9502 82.5801C65.5249 82.5801 65.1802 82.9248 65.1802 83.3501C65.1802 83.7754 65.5249 84.12 65.9502 84.12Z" fill="#80C34E"/>
<path d="M1.62012 91.3311C2.04538 91.3311 2.39014 90.9863 2.39014 90.561C2.39014 90.1358 2.04538 89.791 1.62012 89.791C1.19486 89.791 0.850098 90.1358 0.850098 90.561C0.850098 90.9863 1.19486 91.3311 1.62012 91.3311Z" fill="#80C34E"/>
<path d="M9.6601 91.3311C10.0854 91.3311 10.4301 90.9863 10.4301 90.561C10.4301 90.1358 10.0854 89.791 9.6601 89.791C9.23484 89.791 8.89014 90.1358 8.89014 90.561C8.89014 90.9863 9.23484 91.3311 9.6601 91.3311Z" fill="#80C34E"/>
<path d="M17.7002 91.3311C18.1255 91.3311 18.4702 90.9863 18.4702 90.561C18.4702 90.1358 18.1255 89.791 17.7002 89.791C17.2749 89.791 16.9302 90.1358 16.9302 90.561C16.9302 90.9863 17.2749 91.3311 17.7002 91.3311Z" fill="#80C34E"/>
<path d="M25.7402 91.3311C26.1655 91.3311 26.5103 90.9863 26.5103 90.561C26.5103 90.1358 26.1655 89.791 25.7402 89.791C25.315 89.791 24.9702 90.1358 24.9702 90.561C24.9702 90.9863 25.315 91.3311 25.7402 91.3311Z" fill="#80C34E"/>
<path d="M33.7802 91.3311C34.2055 91.3311 34.5502 90.9863 34.5502 90.561C34.5502 90.1358 34.2055 89.791 33.7802 89.791C33.355 89.791 33.0103 90.1358 33.0103 90.561C33.0103 90.9863 33.355 91.3311 33.7802 91.3311Z" fill="#80C34E"/>
<path d="M41.8301 91.3311C42.2553 91.3311 42.6 90.9863 42.6 90.561C42.6 90.1358 42.2553 89.791 41.8301 89.791C41.4048 89.791 41.0601 90.1358 41.0601 90.561C41.0601 90.9863 41.4048 91.3311 41.8301 91.3311Z" fill="#80C34E"/>
<path d="M49.8701 91.3311C50.2954 91.3311 50.6401 90.9863 50.6401 90.561C50.6401 90.1358 50.2954 89.791 49.8701 89.791C49.4449 89.791 49.1001 90.1358 49.1001 90.561C49.1001 90.9863 49.4449 91.3311 49.8701 91.3311Z" fill="#80C34E"/>
<path d="M57.9101 91.3311C58.3354 91.3311 58.6801 90.9863 58.6801 90.561C58.6801 90.1358 58.3354 89.791 57.9101 89.791C57.4848 89.791 57.1401 90.1358 57.1401 90.561C57.1401 90.9863 57.4848 91.3311 57.9101 91.3311Z" fill="#80C34E"/>
<path d="M65.9502 91.3311C66.3755 91.3311 66.7202 90.9863 66.7202 90.561C66.7202 90.1358 66.3755 89.791 65.9502 89.791C65.5249 89.791 65.1802 90.1358 65.1802 90.561C65.1802 90.9863 65.5249 91.3311 65.9502 91.3311Z" fill="#80C34E"/>
<path d="M1.62012 98.54C2.04538 98.54 2.39014 98.1953 2.39014 97.77C2.39014 97.3448 2.04538 97 1.62012 97C1.19486 97 0.850098 97.3448 0.850098 97.77C0.850098 98.1953 1.19486 98.54 1.62012 98.54Z" fill="#80C34E"/>
<path d="M9.6601 98.54C10.0854 98.54 10.4301 98.1953 10.4301 97.77C10.4301 97.3448 10.0854 97 9.6601 97C9.23484 97 8.89014 97.3448 8.89014 97.77C8.89014 98.1953 9.23484 98.54 9.6601 98.54Z" fill="#80C34E"/>
<path d="M17.7002 98.54C18.1255 98.54 18.4702 98.1953 18.4702 97.77C18.4702 97.3448 18.1255 97 17.7002 97C17.2749 97 16.9302 97.3448 16.9302 97.77C16.9302 98.1953 17.2749 98.54 17.7002 98.54Z" fill="#80C34E"/>
<path d="M25.7402 98.54C26.1655 98.54 26.5103 98.1953 26.5103 97.77C26.5103 97.3448 26.1655 97 25.7402 97C25.315 97 24.9702 97.3448 24.9702 97.77C24.9702 98.1953 25.315 98.54 25.7402 98.54Z" fill="#80C34E"/>
<path d="M33.7802 98.54C34.2055 98.54 34.5502 98.1953 34.5502 97.77C34.5502 97.3448 34.2055 97 33.7802 97C33.355 97 33.0103 97.3448 33.0103 97.77C33.0103 98.1953 33.355 98.54 33.7802 98.54Z" fill="#80C34E"/>
<path d="M41.8301 98.54C42.2553 98.54 42.6 98.1953 42.6 97.77C42.6 97.3448 42.2553 97 41.8301 97C41.4048 97 41.0601 97.3448 41.0601 97.77C41.0601 98.1953 41.4048 98.54 41.8301 98.54Z" fill="#80C34E"/>
<path d="M49.8701 98.54C50.2954 98.54 50.6401 98.1953 50.6401 97.77C50.6401 97.3448 50.2954 97 49.8701 97C49.4449 97 49.1001 97.3448 49.1001 97.77C49.1001 98.1953 49.4449 98.54 49.8701 98.54Z" fill="#80C34E"/>
<path d="M57.9101 98.54C58.3354 98.54 58.6801 98.1953 58.6801 97.77C58.6801 97.3448 58.3354 97 57.9101 97C57.4848 97 57.1401 97.3448 57.1401 97.77C57.1401 98.1953 57.4848 98.54 57.9101 98.54Z" fill="#80C34E"/>
<path d="M65.9502 98.54C66.3755 98.54 66.7202 98.1953 66.7202 97.77C66.7202 97.3448 66.3755 97 65.9502 97C65.5249 97 65.1802 97.3448 65.1802 97.77C65.1802 98.1953 65.5249 98.54 65.9502 98.54Z" fill="#80C34E"/>
<path d="M1.62012 105.751C2.04538 105.751 2.39014 105.406 2.39014 104.981C2.39014 104.556 2.04538 104.211 1.62012 104.211C1.19486 104.211 0.850098 104.556 0.850098 104.981C0.850098 105.406 1.19486 105.751 1.62012 105.751Z" fill="#80C34E"/>
<path d="M9.6601 105.751C10.0854 105.751 10.4301 105.406 10.4301 104.981C10.4301 104.556 10.0854 104.211 9.6601 104.211C9.23484 104.211 8.89014 104.556 8.89014 104.981C8.89014 105.406 9.23484 105.751 9.6601 105.751Z" fill="#80C34E"/>
<path d="M17.7002 105.751C18.1255 105.751 18.4702 105.406 18.4702 104.981C18.4702 104.556 18.1255 104.211 17.7002 104.211C17.2749 104.211 16.9302 104.556 16.9302 104.981C16.9302 105.406 17.2749 105.751 17.7002 105.751Z" fill="#80C34E"/>
<path d="M25.7402 105.751C26.1655 105.751 26.5103 105.406 26.5103 104.981C26.5103 104.556 26.1655 104.211 25.7402 104.211C25.315 104.211 24.9702 104.556 24.9702 104.981C24.9702 105.406 25.315 105.751 25.7402 105.751Z" fill="#80C34E"/>
<path d="M33.7802 105.751C34.2055 105.751 34.5502 105.406 34.5502 104.981C34.5502 104.556 34.2055 104.211 33.7802 104.211C33.355 104.211 33.0103 104.556 33.0103 104.981C33.0103 105.406 33.355 105.751 33.7802 105.751Z" fill="#80C34E"/>
<path d="M41.8301 105.751C42.2553 105.751 42.6 105.406 42.6 104.981C42.6 104.556 42.2553 104.211 41.8301 104.211C41.4048 104.211 41.0601 104.556 41.0601 104.981C41.0601 105.406 41.4048 105.751 41.8301 105.751Z" fill="#80C34E"/>
<path d="M49.8701 105.751C50.2954 105.751 50.6401 105.406 50.6401 104.981C50.6401 104.556 50.2954 104.211 49.8701 104.211C49.4449 104.211 49.1001 104.556 49.1001 104.981C49.1001 105.406 49.4449 105.751 49.8701 105.751Z" fill="#80C34E"/>
<path d="M57.9101 105.751C58.3354 105.751 58.6801 105.406 58.6801 104.981C58.6801 104.556 58.3354 104.211 57.9101 104.211C57.4848 104.211 57.1401 104.556 57.1401 104.981C57.1401 105.406 57.4848 105.751 57.9101 105.751Z" fill="#80C34E"/>
<path d="M65.9502 105.751C66.3755 105.751 66.7202 105.406 66.7202 104.981C66.7202 104.556 66.3755 104.211 65.9502 104.211C65.5249 104.211 65.1802 104.556 65.1802 104.981C65.1802 105.406 65.5249 105.751 65.9502 105.751Z" fill="#80C34E"/>
</g>
<path d="M250.64 75.8499C249.05 75.8499 247.76 74.5598 247.76 72.9698C247.76 71.3798 249.05 70.0898 250.64 70.0898C252.23 70.0898 253.52 71.3798 253.52 72.9698C253.52 74.5598 252.23 75.8499 250.64 75.8499ZM250.64 70.5198C249.29 70.5198 248.2 71.6198 248.2 72.9598C248.2 74.2998 249.3 75.3998 250.64 75.3998C251.98 75.3998 253.08 74.2998 253.08 72.9598C253.08 71.6198 251.98 70.5198 250.64 70.5198Z" fill="#80C34E"/>
<path d="M236.46 75.8499C234.87 75.8499 233.58 74.5598 233.58 72.9698C233.58 71.3798 234.87 70.0898 236.46 70.0898C238.05 70.0898 239.34 71.3798 239.34 72.9698C239.34 74.5598 238.05 75.8499 236.46 75.8499ZM236.46 70.5198C235.11 70.5198 234.02 71.6198 234.02 72.9598C234.02 74.2998 235.12 75.3998 236.46 75.3998C237.8 75.3998 238.9 74.2998 238.9 72.9598C238.9 71.6198 237.8 70.5198 236.46 70.5198Z" fill="#80C34E"/>
<path d="M222.28 75.8499C220.69 75.8499 219.4 74.5598 219.4 72.9698C219.4 71.3798 220.69 70.0898 222.28 70.0898C223.87 70.0898 225.16 71.3798 225.16 72.9698C225.16 74.5598 223.87 75.8499 222.28 75.8499ZM222.28 70.5198C220.93 70.5198 219.84 71.6198 219.84 72.9598C219.84 74.2998 220.94 75.3998 222.28 75.3998C223.62 75.3998 224.72 74.2998 224.72 72.9598C224.72 71.6198 223.62 70.5198 222.28 70.5198Z" fill="#80C34E"/>
<path d="M208.1 75.8499C206.51 75.8499 205.22 74.5598 205.22 72.9698C205.22 71.3798 206.51 70.0898 208.1 70.0898C209.69 70.0898 210.98 71.3798 210.98 72.9698C210.98 74.5598 209.69 75.8499 208.1 75.8499ZM208.1 70.5198C206.75 70.5198 205.66 71.6198 205.66 72.9598C205.66 74.2998 206.76 75.3998 208.1 75.3998C209.44 75.3998 210.54 74.2998 210.54 72.9598C210.54 71.6198 209.44 70.5198 208.1 70.5198Z" fill="#80C34E"/>
<path d="M193.93 75.8499C192.34 75.8499 191.05 74.5598 191.05 72.9698C191.05 71.3798 192.34 70.0898 193.93 70.0898C195.52 70.0898 196.81 71.3798 196.81 72.9698C196.81 74.5598 195.52 75.8499 193.93 75.8499ZM193.93 70.5198C192.58 70.5198 191.49 71.6198 191.49 72.9598C191.49 74.2998 192.59 75.3998 193.93 75.3998C195.27 75.3998 196.37 74.2998 196.37 72.9598C196.37 71.6198 195.27 70.5198 193.93 70.5198Z" fill="#80C34E"/>
<path d="M179.75 75.8499C178.16 75.8499 176.87 74.5598 176.87 72.9698C176.87 71.3798 178.16 70.0898 179.75 70.0898C181.34 70.0898 182.63 71.3798 182.63 72.9698C182.63 74.5598 181.34 75.8499 179.75 75.8499ZM179.75 70.5198C178.4 70.5198 177.31 71.6198 177.31 72.9598C177.31 74.2998 178.41 75.3998 179.75 75.3998C181.09 75.3998 182.19 74.2998 182.19 72.9598C182.19 71.6198 181.09 70.5198 179.75 70.5198Z" fill="#80C34E"/>
<path d="M165.57 75.8499C163.98 75.8499 162.69 74.5598 162.69 72.9698C162.69 71.3798 163.98 70.0898 165.57 70.0898C167.16 70.0898 168.45 71.3798 168.45 72.9698C168.45 74.5598 167.16 75.8499 165.57 75.8499ZM165.57 70.5198C164.22 70.5198 163.13 71.6198 163.13 72.9598C163.13 74.2998 164.23 75.3998 165.57 75.3998C166.91 75.3998 168.01 74.2998 168.01 72.9598C168.01 71.6198 166.91 70.5198 165.57 70.5198Z" fill="#80C34E"/>
<path d="M151.39 75.8499C149.8 75.8499 148.51 74.5598 148.51 72.9698C148.51 71.3798 149.8 70.0898 151.39 70.0898C152.98 70.0898 154.27 71.3798 154.27 72.9698C154.27 74.5598 152.98 75.8499 151.39 75.8499ZM151.39 70.5198C150.04 70.5198 148.95 71.6198 148.95 72.9598C148.95 74.2998 150.05 75.3998 151.39 75.3998C152.73 75.3998 153.83 74.2998 153.83 72.9598C153.83 71.6198 152.73 70.5198 151.39 70.5198Z" fill="#80C34E"/>
<path d="M137.21 75.8499C135.62 75.8499 134.33 74.5598 134.33 72.9698C134.33 71.3798 135.62 70.0898 137.21 70.0898C138.8 70.0898 140.09 71.3798 140.09 72.9698C140.09 74.5598 138.8 75.8499 137.21 75.8499ZM137.21 70.5198C135.86 70.5198 134.77 71.6198 134.77 72.9598C134.77 74.2998 135.87 75.3998 137.21 75.3998C138.55 75.3998 139.65 74.2998 139.65 72.9598C139.65 71.6198 138.55 70.5198 137.21 70.5198Z" fill="#80C34E"/>
<path d="M250.64 61.7112C249.05 61.7112 247.76 60.4212 247.76 58.8312C247.76 57.2412 249.05 55.9512 250.64 55.9512C252.23 55.9512 253.52 57.2412 253.52 58.8312C253.52 60.4212 252.23 61.7112 250.64 61.7112ZM250.64 56.3911C249.29 56.3911 248.2 57.4912 248.2 58.8312C248.2 60.1712 249.3 61.2711 250.64 61.2711C251.98 61.2711 253.08 60.1712 253.08 58.8312C253.08 57.4912 251.98 56.3911 250.64 56.3911Z" fill="#80C34E"/>
<path d="M236.46 61.7112C234.87 61.7112 233.58 60.4212 233.58 58.8312C233.58 57.2412 234.87 55.9512 236.46 55.9512C238.05 55.9512 239.34 57.2412 239.34 58.8312C239.34 60.4212 238.05 61.7112 236.46 61.7112ZM236.46 56.3911C235.11 56.3911 234.02 57.4912 234.02 58.8312C234.02 60.1712 235.12 61.2711 236.46 61.2711C237.8 61.2711 238.9 60.1712 238.9 58.8312C238.9 57.4912 237.8 56.3911 236.46 56.3911Z" fill="#80C34E"/>
<path d="M222.28 61.7112C220.69 61.7112 219.4 60.4212 219.4 58.8312C219.4 57.2412 220.69 55.9512 222.28 55.9512C223.87 55.9512 225.16 57.2412 225.16 58.8312C225.16 60.4212 223.87 61.7112 222.28 61.7112ZM222.28 56.3911C220.93 56.3911 219.84 57.4912 219.84 58.8312C219.84 60.1712 220.94 61.2711 222.28 61.2711C223.62 61.2711 224.72 60.1712 224.72 58.8312C224.72 57.4912 223.62 56.3911 222.28 56.3911Z" fill="#80C34E"/>
<path d="M208.1 61.7112C206.51 61.7112 205.22 60.4212 205.22 58.8312C205.22 57.2412 206.51 55.9512 208.1 55.9512C209.69 55.9512 210.98 57.2412 210.98 58.8312C210.98 60.4212 209.69 61.7112 208.1 61.7112ZM208.1 56.3911C206.75 56.3911 205.66 57.4912 205.66 58.8312C205.66 60.1712 206.76 61.2711 208.1 61.2711C209.44 61.2711 210.54 60.1712 210.54 58.8312C210.54 57.4912 209.44 56.3911 208.1 56.3911Z" fill="#80C34E"/>
<path d="M193.93 61.7112C192.34 61.7112 191.05 60.4212 191.05 58.8312C191.05 57.2412 192.34 55.9512 193.93 55.9512C195.52 55.9512 196.81 57.2412 196.81 58.8312C196.81 60.4212 195.52 61.7112 193.93 61.7112ZM193.93 56.3911C192.58 56.3911 191.49 57.4912 191.49 58.8312C191.49 60.1712 192.59 61.2711 193.93 61.2711C195.27 61.2711 196.37 60.1712 196.37 58.8312C196.37 57.4912 195.27 56.3911 193.93 56.3911Z" fill="#80C34E"/>
<path d="M179.75 61.7112C178.16 61.7112 176.87 60.4212 176.87 58.8312C176.87 57.2412 178.16 55.9512 179.75 55.9512C181.34 55.9512 182.63 57.2412 182.63 58.8312C182.63 60.4212 181.34 61.7112 179.75 61.7112ZM179.75 56.3911C178.4 56.3911 177.31 57.4912 177.31 58.8312C177.31 60.1712 178.41 61.2711 179.75 61.2711C181.09 61.2711 182.19 60.1712 182.19 58.8312C182.19 57.4912 181.09 56.3911 179.75 56.3911Z" fill="#80C34E"/>
<path d="M165.57 61.7112C163.98 61.7112 162.69 60.4212 162.69 58.8312C162.69 57.2412 163.98 55.9512 165.57 55.9512C167.16 55.9512 168.45 57.2412 168.45 58.8312C168.45 60.4212 167.16 61.7112 165.57 61.7112ZM165.57 56.3911C164.22 56.3911 163.13 57.4912 163.13 58.8312C163.13 60.1712 164.23 61.2711 165.57 61.2711C166.91 61.2711 168.01 60.1712 168.01 58.8312C168.01 57.4912 166.91 56.3911 165.57 56.3911Z" fill="#80C34E"/>
<path d="M151.39 61.7112C149.8 61.7112 148.51 60.4212 148.51 58.8312C148.51 57.2412 149.8 55.9512 151.39 55.9512C152.98 55.9512 154.27 57.2412 154.27 58.8312C154.27 60.4212 152.98 61.7112 151.39 61.7112ZM151.39 56.3911C150.04 56.3911 148.95 57.4912 148.95 58.8312C148.95 60.1712 150.05 61.2711 151.39 61.2711C152.73 61.2711 153.83 60.1712 153.83 58.8312C153.83 57.4912 152.73 56.3911 151.39 56.3911Z" fill="#80C34E"/>
<path d="M137.21 61.7112C135.62 61.7112 134.33 60.4212 134.33 58.8312C134.33 57.2412 135.62 55.9512 137.21 55.9512C138.8 55.9512 140.09 57.2412 140.09 58.8312C140.09 60.4212 138.8 61.7112 137.21 61.7112ZM137.21 56.3911C135.86 56.3911 134.77 57.4912 134.77 58.8312C134.77 60.1712 135.87 61.2711 137.21 61.2711C138.55 61.2711 139.65 60.1712 139.65 58.8312C139.65 57.4912 138.55 56.3911 137.21 56.3911Z" fill="#80C34E"/>
<path d="M123.04 61.7112C121.45 61.7112 120.16 60.4212 120.16 58.8312C120.16 57.2412 121.45 55.9512 123.04 55.9512C124.63 55.9512 125.92 57.2412 125.92 58.8312C125.92 60.4212 124.63 61.7112 123.04 61.7112ZM123.04 56.3911C121.69 56.3911 120.6 57.4912 120.6 58.8312C120.6 60.1712 121.7 61.2711 123.04 61.2711C124.38 61.2711 125.48 60.1712 125.48 58.8312C125.48 57.4912 124.38 56.3911 123.04 56.3911Z" fill="#80C34E"/>
<path d="M236.46 47.5803C234.87 47.5803 233.58 46.2903 233.58 44.7003C233.58 43.1103 234.87 41.8203 236.46 41.8203C238.05 41.8203 239.34 43.1103 239.34 44.7003C239.34 46.2903 238.05 47.5803 236.46 47.5803ZM236.46 42.2503C235.11 42.2503 234.02 43.3503 234.02 44.6903C234.02 46.0303 235.12 47.1303 236.46 47.1303C237.8 47.1303 238.9 46.0303 238.9 44.6903C238.9 43.3503 237.8 42.2503 236.46 42.2503Z" fill="#80C34E"/>
<path d="M222.28 47.5803C220.69 47.5803 219.4 46.2903 219.4 44.7003C219.4 43.1103 220.69 41.8203 222.28 41.8203C223.87 41.8203 225.16 43.1103 225.16 44.7003C225.16 46.2903 223.87 47.5803 222.28 47.5803ZM222.28 42.2503C220.93 42.2503 219.84 43.3503 219.84 44.6903C219.84 46.0303 220.94 47.1303 222.28 47.1303C223.62 47.1303 224.72 46.0303 224.72 44.6903C224.72 43.3503 223.62 42.2503 222.28 42.2503Z" fill="#80C34E"/>
<path d="M208.1 47.5803C206.51 47.5803 205.22 46.2903 205.22 44.7003C205.22 43.1103 206.51 41.8203 208.1 41.8203C209.69 41.8203 210.98 43.1103 210.98 44.7003C210.98 46.2903 209.69 47.5803 208.1 47.5803ZM208.1 42.2503C206.75 42.2503 205.66 43.3503 205.66 44.6903C205.66 46.0303 206.76 47.1303 208.1 47.1303C209.44 47.1303 210.54 46.0303 210.54 44.6903C210.54 43.3503 209.44 42.2503 208.1 42.2503Z" fill="#80C34E"/>
<path d="M193.93 47.5803C192.34 47.5803 191.05 46.2903 191.05 44.7003C191.05 43.1103 192.34 41.8203 193.93 41.8203C195.52 41.8203 196.81 43.1103 196.81 44.7003C196.81 46.2903 195.52 47.5803 193.93 47.5803ZM193.93 42.2503C192.58 42.2503 191.49 43.3503 191.49 44.6903C191.49 46.0303 192.59 47.1303 193.93 47.1303C195.27 47.1303 196.37 46.0303 196.37 44.6903C196.37 43.3503 195.27 42.2503 193.93 42.2503Z" fill="#80C34E"/>
<path d="M179.75 47.5803C178.16 47.5803 176.87 46.2903 176.87 44.7003C176.87 43.1103 178.16 41.8203 179.75 41.8203C181.34 41.8203 182.63 43.1103 182.63 44.7003C182.63 46.2903 181.34 47.5803 179.75 47.5803ZM179.75 42.2503C178.4 42.2503 177.31 43.3503 177.31 44.6903C177.31 46.0303 178.41 47.1303 179.75 47.1303C181.09 47.1303 182.19 46.0303 182.19 44.6903C182.19 43.3503 181.09 42.2503 179.75 42.2503Z" fill="#80C34E"/>
<path d="M165.57 47.5803C163.98 47.5803 162.69 46.2903 162.69 44.7003C162.69 43.1103 163.98 41.8203 165.57 41.8203C167.16 41.8203 168.45 43.1103 168.45 44.7003C168.45 46.2903 167.16 47.5803 165.57 47.5803ZM165.57 42.2503C164.22 42.2503 163.13 43.3503 163.13 44.6903C163.13 46.0303 164.23 47.1303 165.57 47.1303C166.91 47.1303 168.01 46.0303 168.01 44.6903C168.01 43.3503 166.91 42.2503 165.57 42.2503Z" fill="#80C34E"/>
<path d="M151.39 47.5803C149.8 47.5803 148.51 46.2903 148.51 44.7003C148.51 43.1103 149.8 41.8203 151.39 41.8203C152.98 41.8203 154.27 43.1103 154.27 44.7003C154.27 46.2903 152.98 47.5803 151.39 47.5803ZM151.39 42.2503C150.04 42.2503 148.95 43.3503 148.95 44.6903C148.95 46.0303 150.05 47.1303 151.39 47.1303C152.73 47.1303 153.83 46.0303 153.83 44.6903C153.83 43.3503 152.73 42.2503 151.39 42.2503Z" fill="#80C34E"/>
<path d="M137.21 47.5803C135.62 47.5803 134.33 46.2903 134.33 44.7003C134.33 43.1103 135.62 41.8203 137.21 41.8203C138.8 41.8203 140.09 43.1103 140.09 44.7003C140.09 46.2903 138.8 47.5803 137.21 47.5803ZM137.21 42.2503C135.86 42.2503 134.77 43.3503 134.77 44.6903C134.77 46.0303 135.87 47.1303 137.21 47.1303C138.55 47.1303 139.65 46.0303 139.65 44.6903C139.65 43.3503 138.55 42.2503 137.21 42.2503Z" fill="#80C34E"/>
<path d="M123.04 47.5803C121.45 47.5803 120.16 46.2903 120.16 44.7003C120.16 43.1103 121.45 41.8203 123.04 41.8203C124.63 41.8203 125.92 43.1103 125.92 44.7003C125.92 46.2903 124.63 47.5803 123.04 47.5803ZM123.04 42.2503C121.69 42.2503 120.6 43.3503 120.6 44.6903C120.6 46.0303 121.7 47.1303 123.04 47.1303C124.38 47.1303 125.48 46.0303 125.48 44.6903C125.48 43.3503 124.38 42.2503 123.04 42.2503Z" fill="#80C34E"/>
</svg>
