<svg width="205" height="60" viewBox="0 0 205 60" fill="none" xmlns="http://www.w3.org/2000/svg">
<path d="M197.033 59.8179H8.19073C4.03808 59.8179 0.637024 56.4973 0.637024 52.4429V8.19287C0.637024 4.13847 4.03808 0.817872 8.19073 0.817872H197.033C201.186 0.817872 204.587 4.13847 204.587 8.19287V52.4429C204.587 56.4973 201.186 59.8179 197.033 59.8179Z" fill="black"/>
<path d="M197.033 1.99971C200.531 1.99971 203.377 4.77825 203.377 8.19287V52.4429C203.377 55.8575 200.531 58.636 197.033 58.636H8.19073C4.69336 58.636 1.8475 55.8575 1.8475 52.4429V8.19287C1.8475 4.77825 4.69336 1.99971 8.19073 1.99971H197.033ZM197.033 0.817872H8.19073C4.03808 0.817872 0.637024 4.13847 0.637024 8.19287V52.4429C0.637024 56.4973 4.03808 59.8179 8.19073 59.8179H197.033C201.186 59.8179 204.587 56.4973 204.587 52.4429V8.19287C204.587 4.13847 201.186 0.817872 197.033 0.817872Z" fill="#A6A6A6"/>
<path d="M72.2726 15.9275C72.2726 17.1591 71.8949 18.1455 71.1509 18.8812C70.2954 19.7533 69.1812 20.1921 67.8159 20.1921C66.511 20.1921 65.3968 19.7459 64.4828 18.8664C63.5669 17.9741 63.1099 16.8789 63.1099 15.568C63.1099 14.2571 63.5669 13.1619 64.4828 12.2769C65.3968 11.39 66.511 10.9438 67.8159 10.9438C68.4655 10.9438 69.0849 11.0748 69.676 11.3181C70.2652 11.5633 70.7449 11.8952 71.0923 12.3045L70.303 13.0826C69.6968 12.3838 68.8715 12.039 67.8159 12.039C66.8641 12.039 66.0389 12.3635 65.3383 13.0181C64.6452 13.6744 64.2978 14.5244 64.2978 15.568C64.2978 16.6115 64.6452 17.4689 65.3383 18.1253C66.0389 18.7724 66.8641 19.1043 67.8159 19.1043C68.8262 19.1043 69.676 18.7724 70.3464 18.1179C70.7883 17.6846 71.0395 17.0872 71.1055 16.3239H67.8159V15.2582H72.2046C72.2575 15.4887 72.2726 15.7118 72.2726 15.9275V15.9275Z" fill="white" stroke="white" stroke-width="0.16" stroke-miterlimit="10"/>
<path d="M79.2352 12.2325H75.1128V15.035H78.8292V16.1006H75.1128V18.9031H79.2352V19.9891H73.9457V11.1465H79.2352V12.2325Z" fill="white" stroke="white" stroke-width="0.16" stroke-miterlimit="10"/>
<path d="M84.1489 19.9891H82.9818V12.2325H80.4532V11.1465H86.6793V12.2325H84.1489V19.9891V19.9891Z" fill="white" stroke="white" stroke-width="0.16" stroke-miterlimit="10"/>
<path d="M91.1852 19.9891V11.1465H92.3503V19.9891H91.1852Z" fill="white" stroke="white" stroke-width="0.16" stroke-miterlimit="10"/>
<path d="M97.5151 19.9891H96.3575V12.2325H93.8195V11.1465H100.053V12.2325H97.5151V19.9891Z" fill="white" stroke="white" stroke-width="0.16" stroke-miterlimit="10"/>
<path d="M111.841 18.8517C110.948 19.7459 109.841 20.1921 108.521 20.1921C107.193 20.1921 106.087 19.7459 105.194 18.8517C104.302 17.9593 103.858 16.8641 103.858 15.568C103.858 14.2718 104.302 13.1766 105.194 12.2843C106.087 11.39 107.193 10.9438 108.521 10.9438C109.833 10.9438 110.94 11.39 111.833 12.2916C112.732 13.1914 113.176 14.2792 113.176 15.568C113.176 16.8641 112.732 17.9593 111.841 18.8517ZM106.057 18.1105C106.729 18.7724 107.546 19.1043 108.521 19.1043C109.488 19.1043 110.313 18.7724 110.978 18.1105C111.648 17.4486 111.988 16.5986 111.988 15.568C111.988 14.5373 111.648 13.6873 110.978 13.0254C110.313 12.3635 109.488 12.0317 108.521 12.0317C107.546 12.0317 106.729 12.3635 106.057 13.0254C105.386 13.6873 105.046 14.5373 105.046 15.568C105.046 16.5986 105.386 17.4486 106.057 18.1105V18.1105Z" fill="white" stroke="white" stroke-width="0.16" stroke-miterlimit="10"/>
<path d="M114.813 19.9891V11.1465H116.229L120.633 18.0237H120.684L120.633 16.3237V11.1465H121.798V19.9891H120.582L115.971 12.7727H115.92L115.971 14.48V19.9891H114.813V19.9891Z" fill="white" stroke="white" stroke-width="0.16" stroke-miterlimit="10"/>
<path d="M103.571 32.9029C100.023 32.9029 97.1243 35.5395 97.1243 39.1772C97.1243 42.7854 100.023 45.4496 103.571 45.4496C107.127 45.4496 110.026 42.7854 110.026 39.1772C110.026 35.5395 107.127 32.9029 103.571 32.9029ZM103.571 42.979C101.624 42.979 99.9493 41.41 99.9493 39.1772C99.9493 36.9149 101.624 35.3735 103.571 35.3735C105.518 35.3735 107.201 36.9149 107.201 39.1772C107.201 41.41 105.518 42.979 103.571 42.979V42.979ZM89.5045 32.9029C85.9485 32.9029 83.0574 35.5395 83.0574 39.1772C83.0574 42.7854 85.9485 45.4496 89.5045 45.4496C93.0585 45.4496 95.9515 42.7854 95.9515 39.1772C95.9515 35.5395 93.0585 32.9029 89.5045 32.9029ZM89.5045 42.979C87.5556 42.979 85.8749 41.41 85.8749 39.1772C85.8749 36.9149 87.5556 35.3735 89.5045 35.3735C91.4514 35.3735 93.1265 36.9149 93.1265 39.1772C93.1265 41.41 91.4514 42.979 89.5045 42.979ZM72.7654 34.8259V37.492H79.2862C79.0955 38.9817 78.5856 40.0769 77.8038 40.8402C76.852 41.7621 75.3696 42.7854 72.7654 42.7854C68.7525 42.7854 65.6102 39.6234 65.6102 35.7054C65.6102 31.7874 68.7525 28.6254 72.7654 28.6254C74.9353 28.6254 76.514 29.4533 77.6791 30.5263L79.6034 28.6475C77.9737 27.1283 75.8058 25.9612 72.7654 25.9612C67.2626 25.9612 62.6378 30.3327 62.6378 35.7054C62.6378 41.0781 67.2626 45.4496 72.7654 45.4496C75.7397 45.4496 77.9737 44.4982 79.73 42.7135C81.5296 40.9564 82.0905 38.4858 82.0905 36.4908C82.0905 35.8713 82.0376 35.3016 81.9432 34.8259H72.7654ZM141.213 36.8928C140.683 35.4897 139.045 32.9029 135.71 32.9029C132.406 32.9029 129.654 35.4454 129.654 39.1772C129.654 42.6914 132.377 45.4496 136.028 45.4496C138.979 45.4496 140.683 43.6925 141.383 42.6692L139.193 41.244C138.462 42.2876 137.467 42.979 136.028 42.979C134.598 42.979 133.573 42.3392 132.916 41.0781L141.51 37.6063L141.213 36.8928V36.8928ZM132.451 38.9817C132.377 36.5627 134.375 35.3237 135.807 35.3237C136.928 35.3237 137.88 35.8713 138.198 36.6549L132.451 38.9817V38.9817ZM125.466 45.068H128.291V26.6305H125.466V45.068ZM120.839 34.3005H120.745C120.11 33.5667 118.9 32.9029 117.366 32.9029C114.148 32.9029 111.206 35.6612 111.206 39.1975C111.206 42.7135 114.148 45.4496 117.366 45.4496C118.9 45.4496 120.11 44.7803 120.745 44.0244H120.839V44.9242C120.839 47.3229 119.527 48.6117 117.41 48.6117C115.684 48.6117 114.613 47.3948 114.171 46.3715L111.714 47.3727C112.422 49.0357 114.298 51.0823 117.41 51.0823C120.722 51.0823 123.517 49.1795 123.517 44.5499V33.2846H120.839V34.3005V34.3005ZM117.608 42.979C115.661 42.979 114.031 41.3878 114.031 39.1975C114.031 36.9868 115.661 35.3735 117.608 35.3735C119.527 35.3735 121.039 36.9868 121.039 39.1975C121.039 41.3878 119.527 42.979 117.608 42.979V42.979ZM154.44 26.6305H147.683V45.068H150.501V38.082H154.44C157.569 38.082 160.638 35.8713 160.638 32.3553C160.638 28.8411 157.561 26.6305 154.44 26.6305V26.6305ZM154.514 35.5173H150.501V29.1951H154.514C156.617 29.1951 157.818 30.9006 157.818 32.3553C157.818 33.7824 156.617 35.5173 154.514 35.5173ZM171.93 32.8679C169.895 32.8679 167.778 33.7455 166.907 35.6907L169.408 36.7139C169.946 35.6907 170.935 35.3588 171.981 35.3588C173.443 35.3588 174.926 36.2161 174.948 37.7298V37.9234C174.438 37.6358 173.347 37.2099 172.004 37.2099C169.311 37.2099 166.567 38.6572 166.567 41.3583C166.567 43.829 168.773 45.4201 171.253 45.4201C173.148 45.4201 174.195 44.5849 174.852 43.6132H174.948V45.0385H177.669V37.9658C177.669 34.6969 175.169 32.8679 171.93 32.8679ZM171.591 42.9716C170.669 42.9716 169.385 42.5254 169.385 41.41C169.385 39.9829 170.986 39.4353 172.372 39.4353C173.613 39.4353 174.195 39.7027 174.948 40.0548C174.727 41.7621 173.222 42.9716 171.591 42.9716V42.9716ZM187.584 33.2717L184.345 41.2643H184.249L180.9 33.2717H177.862L182.893 44.4411L180.022 50.6564H182.966L190.718 33.2717H187.584V33.2717ZM162.186 45.068H165.011V26.6305H162.186V45.068Z" fill="white"/>
<path d="M16.4016 11.9375C15.9578 12.3911 15.701 13.0973 15.701 14.0118V46.6314C15.701 47.5459 15.9578 48.252 16.4016 48.7056L16.5111 48.8052L35.233 30.5336V30.1022L16.5111 11.8306L16.4016 11.9375Z" fill="url(#paint0_linear_1_1009)"/>
<path d="M41.4667 36.6272L35.233 30.5336V30.1022L41.4742 24.0086L41.614 24.0879L49.0053 28.1939C51.1146 29.3591 51.1146 31.2766 49.0053 32.4493L41.614 36.5479L41.4667 36.6272V36.6272Z" fill="url(#paint1_linear_1_1009)"/>
<path d="M41.614 36.548L35.233 30.318L16.4016 48.7057C17.1022 49.4248 18.2447 49.5114 19.5439 48.7924L41.614 36.548" fill="url(#paint2_linear_1_1009)"/>
<path d="M41.614 24.0878L19.5439 11.8435C18.2447 11.1318 17.1022 11.2185 16.4016 11.9375L35.233 30.3179L41.614 24.0878Z" fill="url(#paint3_linear_1_1009)"/>
<defs>
<linearGradient id="paint0_linear_1_1009" x1="33.5707" y1="46.9711" x2="8.82377" y2="21.6245" gradientUnits="userSpaceOnUse">
<stop stop-color="#00A0FF"/>
<stop offset="0.0066" stop-color="#00A1FF"/>
<stop offset="0.2601" stop-color="#00BEFF"/>
<stop offset="0.5122" stop-color="#00D2FF"/>
<stop offset="0.7604" stop-color="#00DFFF"/>
<stop offset="1" stop-color="#00E3FF"/>
</linearGradient>
<linearGradient id="paint1_linear_1_1009" x1="51.752" y1="30.3158" x2="15.1968" y2="30.3158" gradientUnits="userSpaceOnUse">
<stop stop-color="#FFE000"/>
<stop offset="0.4087" stop-color="#FFBD00"/>
<stop offset="0.7754" stop-color="#FFA500"/>
<stop offset="1" stop-color="#FF9C00"/>
</linearGradient>
<linearGradient id="paint2_linear_1_1009" x1="38.1442" y1="26.9312" x2="4.58531" y2="-7.4408" gradientUnits="userSpaceOnUse">
<stop stop-color="#FF3A44"/>
<stop offset="1" stop-color="#C31162"/>
</linearGradient>
<linearGradient id="paint3_linear_1_1009" x1="11.6613" y1="59.558" x2="26.6469" y2="44.2095" gradientUnits="userSpaceOnUse">
<stop stop-color="#32A071"/>
<stop offset="0.0685" stop-color="#2DA771"/>
<stop offset="0.4762" stop-color="#15CF74"/>
<stop offset="0.8009" stop-color="#06E775"/>
<stop offset="1" stop-color="#00F076"/>
</linearGradient>
</defs>
</svg>
