<svg width="205" height="59" viewBox="0 0 205 59" fill="none" xmlns="http://www.w3.org/2000/svg">
<path d="M196.627 59H7.78442C3.63177 59 0.230713 55.6794 0.230713 51.625V7.375C0.230713 3.32059 3.63177 7.56029e-07 7.78442 7.56029e-07H196.627C200.78 7.56029e-07 204.181 3.32059 204.181 7.375V51.625C204.181 55.6794 200.78 59 196.627 59Z" fill="black"/>
<path d="M196.627 1.18184C200.124 1.18184 202.97 3.96037 202.97 7.375V51.625C202.97 55.0396 200.124 57.8182 196.627 57.8182H7.78442C4.28705 57.8182 1.44119 55.0396 1.44119 51.625V7.375C1.44119 3.96037 4.28705 1.18184 7.78442 1.18184H196.627ZM196.627 7.56029e-07H7.78442C3.63177 7.56029e-07 0.230713 3.32059 0.230713 7.375V51.625C0.230713 55.6794 3.63177 59 7.78442 59H196.627C200.78 59 204.181 55.6794 204.181 51.625V7.375C204.181 3.32059 200.78 7.56029e-07 196.627 7.56029e-07Z" fill="#A6A6A6"/>
<path d="M71.8663 15.1095C71.8663 16.3411 71.4886 17.3276 70.7445 18.0632C69.8891 18.9353 68.7749 19.3741 67.4096 19.3741C66.1047 19.3741 64.9905 18.9279 64.0765 18.0485C63.1606 17.1561 62.7036 16.0609 62.7036 14.75C62.7036 13.4391 63.1606 12.3439 64.0765 11.4589C64.9905 10.5721 66.1047 10.1259 67.4096 10.1259C68.0592 10.1259 68.6786 10.2568 69.2697 10.5002C69.8589 10.7454 70.3385 11.0772 70.686 11.4866L69.8966 12.2646C69.2904 11.5658 68.4652 11.2211 67.4096 11.2211C66.4578 11.2211 65.6326 11.5456 64.932 12.2001C64.2389 12.8565 63.8914 13.7064 63.8914 14.75C63.8914 15.7936 64.2389 16.6509 64.932 17.3073C65.6326 17.9544 66.4578 18.2863 67.4096 18.2863C68.4199 18.2863 69.2697 17.9544 69.9401 17.2999C70.382 16.8666 70.6331 16.2692 70.6992 15.5059H67.4096V14.4402H71.7983C71.8511 14.6707 71.8663 14.8938 71.8663 15.1095Z" fill="white" stroke="white" stroke-width="0.16" stroke-miterlimit="10"/>
<path d="M78.8289 11.4146H74.7065V14.2171H78.4229V15.2828H74.7065V18.0853H78.8289V19.1713H73.5394V10.3287H78.8289V11.4146Z" fill="white" stroke="white" stroke-width="0.16" stroke-miterlimit="10"/>
<path d="M83.7425 19.1713H82.5755V11.4146H80.0469V10.3287H86.273V11.4146H83.7425V19.1713Z" fill="white" stroke="white" stroke-width="0.16" stroke-miterlimit="10"/>
<path d="M90.7788 19.1713V10.3287H91.944V19.1713H90.7788Z" fill="white" stroke="white" stroke-width="0.16" stroke-miterlimit="10"/>
<path d="M97.1088 19.1713H95.9512V11.4146H93.4132V10.3287H99.6469V11.4146H97.1088V19.1713Z" fill="white" stroke="white" stroke-width="0.16" stroke-miterlimit="10"/>
<path d="M111.434 18.0337C110.541 18.9279 109.435 19.3741 108.115 19.3741C106.787 19.3741 105.68 18.9279 104.787 18.0337C103.896 17.1413 103.452 16.0462 103.452 14.75C103.452 13.4538 103.896 12.3587 104.787 11.4663C105.68 10.5721 106.787 10.1259 108.115 10.1259C109.427 10.1259 110.534 10.5721 111.427 11.4737C112.326 12.3734 112.77 13.4612 112.77 14.75C112.77 16.0462 112.326 17.1413 111.434 18.0337ZM105.65 17.2925C106.322 17.9544 107.14 18.2863 108.115 18.2863C109.081 18.2863 109.907 17.9544 110.571 17.2925C111.242 16.6306 111.582 15.7807 111.582 14.75C111.582 13.7193 111.242 12.8694 110.571 12.2075C109.907 11.5456 109.081 11.2137 108.115 11.2137C107.14 11.2137 106.322 11.5456 105.65 12.2075C104.98 12.8694 104.64 13.7193 104.64 14.75C104.64 15.7807 104.98 16.6306 105.65 17.2925Z" fill="white" stroke="white" stroke-width="0.16" stroke-miterlimit="10"/>
<path d="M114.407 19.1713V10.3287H115.823L120.227 17.2059H120.278L120.227 15.5059V10.3287H121.392V19.1713H120.176L115.564 11.9549H115.513L115.564 13.6622V19.1713H114.407Z" fill="white" stroke="white" stroke-width="0.16" stroke-miterlimit="10"/>
<path d="M103.165 32.085C99.6167 32.085 96.718 34.7215 96.718 38.3593C96.718 41.9675 99.6167 44.6317 103.165 44.6317C106.721 44.6317 109.62 41.9675 109.62 38.3593C109.62 34.7215 106.721 32.085 103.165 32.085ZM103.165 42.1611C101.218 42.1611 99.5431 40.592 99.5431 38.3593C99.5431 36.097 101.218 34.5556 103.165 34.5556C105.112 34.5556 106.795 36.097 106.795 38.3593C106.795 40.592 105.112 42.1611 103.165 42.1611ZM89.0982 32.085C85.5423 32.085 82.6511 34.7215 82.6511 38.3593C82.6511 41.9675 85.5423 44.6317 89.0982 44.6317C92.6522 44.6317 95.5453 41.9675 95.5453 38.3593C95.5453 34.7215 92.6522 32.085 89.0982 32.085ZM89.0982 42.1611C87.1493 42.1611 85.4686 40.592 85.4686 38.3593C85.4686 36.097 87.1493 34.5556 89.0982 34.5556C91.0452 34.5556 92.7202 36.097 92.7202 38.3593C92.7202 40.592 91.0452 42.1611 89.0982 42.1611ZM72.3592 34.008V36.6741H78.8799C78.6892 38.1638 78.1793 39.259 77.3975 40.0223C76.4457 40.9442 74.9633 41.9675 72.3592 41.9675C68.3463 41.9675 65.2039 38.8054 65.2039 34.8875C65.2039 30.9695 68.3463 27.8075 72.3592 27.8075C74.529 27.8075 76.1077 28.6353 77.2729 29.7084L79.1972 27.8296C77.5675 26.3103 75.3996 25.1433 72.3592 25.1433C66.8563 25.1433 62.2316 29.5148 62.2316 34.8875C62.2316 40.2602 66.8563 44.6317 72.3592 44.6317C75.3335 44.6317 77.5675 43.6803 79.3237 41.8956C81.1234 40.1385 81.6842 37.6678 81.6842 35.6729C81.6842 35.0534 81.6314 34.4837 81.5369 34.008H72.3592ZM140.807 36.0748C140.276 34.6718 138.639 32.085 135.304 32.085C131.999 32.085 129.248 34.6275 129.248 38.3593C129.248 41.8734 131.971 44.6317 135.621 44.6317C138.573 44.6317 140.276 42.8746 140.977 41.8513L138.786 40.4261C138.056 41.4697 137.06 42.1611 135.621 42.1611C134.192 42.1611 133.166 41.5213 132.509 40.2602L141.104 36.7884L140.807 36.0748ZM132.045 38.1638C131.971 35.7448 133.969 34.5058 135.401 34.5058C136.522 34.5058 137.474 35.0534 137.791 35.837L132.045 38.1638ZM125.059 44.25H127.885V25.8125H125.059V44.25ZM120.433 33.4825H120.338C119.704 32.7487 118.493 32.085 116.96 32.085C113.742 32.085 110.8 34.8432 110.8 38.3795C110.8 41.8956 113.742 44.6317 116.96 44.6317C118.493 44.6317 119.704 43.9624 120.338 43.2065H120.433V44.1062C120.433 46.5049 119.12 47.7937 117.003 47.7937C115.277 47.7937 114.207 46.5768 113.765 45.5536L111.308 46.5547C112.016 48.2178 113.891 50.2643 117.003 50.2643C120.316 50.2643 123.111 48.3616 123.111 43.7319V32.4666H120.433V33.4825ZM117.202 42.1611C115.255 42.1611 113.625 40.5699 113.625 38.3795C113.625 36.1689 115.255 34.5556 117.202 34.5556C119.12 34.5556 120.633 36.1689 120.633 38.3795C120.633 40.5699 119.12 42.1611 117.202 42.1611ZM154.034 25.8125H147.277V44.25H150.094V37.2641H154.034C157.163 37.2641 160.231 35.0534 160.231 31.5374C160.231 28.0232 157.155 25.8125 154.034 25.8125ZM154.107 34.6994H150.094V28.3772H154.107C156.211 28.3772 157.412 30.0827 157.412 31.5374C157.412 32.9644 156.211 34.6994 154.107 34.6994ZM171.524 32.0499C169.488 32.0499 167.372 32.9276 166.501 34.8727L169.001 35.896C169.539 34.8727 170.529 34.5408 171.575 34.5408C173.037 34.5408 174.519 35.3982 174.542 36.9119V37.1055C174.032 36.8179 172.941 36.392 171.598 36.392C168.905 36.392 166.161 37.8393 166.161 40.5404C166.161 43.011 168.367 44.6022 170.846 44.6022C172.742 44.6022 173.788 43.767 174.446 42.7953H174.542V44.2205H177.263V37.1479C177.263 33.8789 174.763 32.0499 171.524 32.0499ZM171.184 42.1537C170.263 42.1537 168.979 41.7075 168.979 40.592C168.979 39.165 170.58 38.6174 171.966 38.6174C173.207 38.6174 173.788 38.8847 174.542 39.2369C174.321 40.9442 172.816 42.1537 171.184 42.1537ZM187.177 32.4537L183.939 40.4464H183.842L180.494 32.4537H177.456L182.487 43.6232L179.616 49.8384H182.56L190.312 32.4537H187.177ZM161.78 44.25H164.605V25.8125H161.78V44.25Z" fill="white"/>
<path d="M15.9953 11.1196C15.5515 11.5732 15.2947 12.2793 15.2947 13.1938V45.8135C15.2947 46.728 15.5515 47.4341 15.9953 47.8877L16.1048 47.9873L34.8267 29.7157V29.2843L16.1048 11.0127L15.9953 11.1196Z" fill="url(#paint0_linear_96_1988)"/>
<path d="M41.0604 35.8093L34.8267 29.7157V29.2842L41.0679 23.1907L41.2077 23.2699L48.599 27.376C50.7083 28.5412 50.7083 30.4587 48.599 31.6313L41.2077 35.73L41.0604 35.8093Z" fill="url(#paint1_linear_96_1988)"/>
<path d="M41.2076 35.73L34.8266 29.5L15.9952 47.8877C16.6958 48.6068 17.8383 48.6934 19.1376 47.9744L41.2076 35.73Z" fill="url(#paint2_linear_96_1988)"/>
<path d="M41.2076 23.27L19.1376 11.0256C17.8383 10.3139 16.6958 10.4006 15.9952 11.1197L34.8266 29.5L41.2076 23.27Z" fill="url(#paint3_linear_96_1988)"/>
<defs>
<linearGradient id="paint0_linear_96_1988" x1="33.1644" y1="46.1532" x2="8.41744" y2="20.8066" gradientUnits="userSpaceOnUse">
<stop stop-color="#00A0FF"/>
<stop offset="0.0066" stop-color="#00A1FF"/>
<stop offset="0.2601" stop-color="#00BEFF"/>
<stop offset="0.5122" stop-color="#00D2FF"/>
<stop offset="0.7604" stop-color="#00DFFF"/>
<stop offset="1" stop-color="#00E3FF"/>
</linearGradient>
<linearGradient id="paint1_linear_96_1988" x1="51.3457" y1="29.4979" x2="14.7905" y2="29.4979" gradientUnits="userSpaceOnUse">
<stop stop-color="#FFE000"/>
<stop offset="0.4087" stop-color="#FFBD00"/>
<stop offset="0.7754" stop-color="#FFA500"/>
<stop offset="1" stop-color="#FF9C00"/>
</linearGradient>
<linearGradient id="paint2_linear_96_1988" x1="37.7378" y1="26.1132" x2="4.17895" y2="-8.2588" gradientUnits="userSpaceOnUse">
<stop stop-color="#FF3A44"/>
<stop offset="1" stop-color="#C31162"/>
</linearGradient>
<linearGradient id="paint3_linear_96_1988" x1="11.255" y1="58.7401" x2="26.2405" y2="43.3916" gradientUnits="userSpaceOnUse">
<stop stop-color="#32A071"/>
<stop offset="0.0685" stop-color="#2DA771"/>
<stop offset="0.4762" stop-color="#15CF74"/>
<stop offset="0.8009" stop-color="#06E775"/>
<stop offset="1" stop-color="#00F076"/>
</linearGradient>
</defs>
</svg>
