<svg width="80" height="73" viewBox="0 0 80 73" fill="none" xmlns="http://www.w3.org/2000/svg">
<path d="M72.25 65.1653H79.4166V72.3319H0.583313V65.1653H7.74998V4.24862C7.74998 3.29826 8.12751 2.38682 8.79951 1.71482C9.47152 1.04281 10.383 0.665283 11.3333 0.665283H68.6666C69.617 0.665283 70.5284 1.04281 71.2005 1.71482C71.8725 2.38682 72.25 3.29826 72.25 4.24862V65.1653ZM36.4166 22.1653H29.25V29.3319H36.4166V36.4986H43.5833V29.3319H50.75V22.1653H43.5833V14.9986H36.4166V22.1653ZM47.1666 65.1653H54.3333V43.6653H25.6666V65.1653H32.8333V50.8319H47.1666V65.1653Z" fill="#D5D5D5"/>
</svg>
