<svg width="94" height="95" viewBox="0 0 94 95" fill="none" xmlns="http://www.w3.org/2000/svg">
<path d="M15.6667 64.9428C15.6667 68.0591 16.9046 71.0477 19.1082 73.2513C21.3117 75.4548 24.3004 76.6928 27.4167 76.6928C27.4167 79.2897 28.4483 81.7803 30.2846 83.6165C32.1209 85.4528 34.6114 86.4845 37.2083 86.4845C39.8052 86.4845 42.2958 85.4528 44.1321 83.6165C45.9684 81.7803 47 79.2897 47 76.6928C47 79.2897 48.0316 81.7803 49.8679 83.6165C51.7042 85.4528 54.1948 86.4845 56.7917 86.4845C59.3886 86.4845 61.8791 85.4528 63.7154 83.6165C65.5517 81.7803 66.5833 79.2897 66.5833 76.6928C68.6664 76.693 70.7121 76.1394 72.5108 75.0887C74.3095 74.038 75.7966 72.5281 76.8196 70.7135C77.8427 68.8989 78.365 66.845 78.3329 64.7622C78.3009 62.6793 77.7158 60.6425 76.6374 58.8602C79.3182 58.3422 81.7351 56.9071 83.473 54.8012C85.2109 52.6954 86.1615 50.0501 86.1615 47.3197C86.1615 44.5894 85.2109 41.9441 83.473 39.8383C81.7351 37.7324 79.3182 36.2973 76.6374 35.7793C77.7168 33.997 78.3027 31.9597 78.3353 29.8762C78.3678 27.7928 77.8457 25.7382 76.8225 23.923C75.7994 22.1079 74.3119 20.5974 72.5126 19.5466C70.7134 18.4957 68.667 17.9422 66.5833 17.9428C66.5833 15.3459 65.5517 12.8553 63.7154 11.019C61.8791 9.18274 59.3886 8.15112 56.7917 8.15112C54.1948 8.15112 51.7042 9.18274 49.8679 11.019C48.0316 12.8553 47 15.3459 47 17.9428C47 15.3459 45.9684 12.8553 44.1321 11.019C42.2958 9.18274 39.8052 8.15112 37.2083 8.15112C34.6114 8.15112 32.1209 9.18274 30.2846 11.019C28.4483 12.8553 27.4167 15.3459 27.4167 17.9428C25.3336 17.9426 23.2879 18.4962 21.4892 19.5469C19.6905 20.5976 18.2034 22.1075 17.1804 23.9221C16.1573 25.7366 15.635 27.7906 15.6671 29.8734C15.6991 31.9562 16.2842 33.9931 17.3626 35.7754C14.6818 36.2934 12.2649 37.7285 10.527 39.8344C8.78911 41.9402 7.83855 44.5854 7.83855 47.3158C7.83855 50.0462 8.78911 52.6914 10.527 54.7973C12.2649 56.9032 14.6818 58.3383 17.3626 58.8563C16.2522 60.6922 15.6657 62.7972 15.6667 64.9428Z" stroke="black" stroke-width="4.5" stroke-linecap="round" stroke-linejoin="round"/>
<path d="M29.375 57.1094L36.5895 35.4659C36.7706 34.9257 37.1168 34.4562 37.5793 34.1235C38.0417 33.7908 38.597 33.6118 39.1667 33.6118C39.7363 33.6118 40.2916 33.7908 40.7541 34.1235C41.2165 34.4562 41.5627 34.9257 41.7438 35.4659L48.9583 57.1094M60.7083 33.6094V57.1094M33.2917 49.276H45.0417" stroke="black" stroke-width="4.5" stroke-linecap="round" stroke-linejoin="round"/>
</svg>
