<svg width="361" height="360" viewBox="0 0 361 360" fill="none" xmlns="http://www.w3.org/2000/svg">
<path d="M166.694 0.958008H166.676L166.659 0.959193C165.447 1.04281 164.236 1.16794 163.035 1.29219L162.767 1.31988L162.643 1.55852L23.9892 267.713L23.8644 267.952L23.9964 268.188C24.5803 269.231 25.2052 270.272 25.8256 271.306L25.8283 271.311L26.2878 272.077L26.7004 271.285L167.179 1.68906L167.56 0.958008H166.735H166.694Z" fill="#80C34E" stroke="#80C34E"/>
<path d="M122.167 10.9367L121.747 10.2697L121.741 10.2717C120.334 10.7683 118.92 11.2673 117.505 11.8083L117.328 11.8761L117.241 12.0443L6.53315 224.503L6.44459 224.673L6.49232 224.859C6.67975 225.587 6.87744 226.316 7.07412 227.04L7.07451 227.042C7.2716 227.768 7.46767 228.491 7.65329 229.212L7.97819 230.476L8.58096 229.319L122.315 11.0137L122.167 10.9367Z" fill="#80C34E" stroke="#80C34E"/>
<path d="M145.674 4.44238V3.83633L145.079 3.95149C143.787 4.20142 142.497 4.49272 141.216 4.78202L141.207 4.78398L140.981 4.83505L140.874 5.04065L14.3276 247.892L14.2198 248.099L14.309 248.314C14.5586 248.918 14.8185 249.531 15.0773 250.142L15.0777 250.143L15.0782 250.144C15.3373 250.755 15.5955 251.365 15.8431 251.963L16.2531 252.954L16.7485 252.003L145.617 4.71496L145.674 4.60635V4.48389V4.44238Z" fill="#80C34E" stroke="#80C34E"/>
<path d="M206.038 2.3242C205.542 2.24824 205.046 2.18088 204.559 2.11472L204.456 2.10074C203.922 2.02813 203.398 1.95632 202.887 1.87444L202.531 1.8175L202.364 2.13715L47.2494 299.886L47.0897 300.193L47.3202 300.451C48.0259 301.24 48.7719 302.027 49.5122 302.809L49.5275 302.825L50.0098 303.334L50.3338 302.712L206.485 3.05526L206.866 2.3242H206.042H206.038Z" fill="#80C34E" stroke="#80C34E"/>
<path d="M224.564 6.62189L224.857 6.05956L224.242 5.90577C223.248 5.65723 222.213 5.40884 221.18 5.16108L221.169 5.15834L220.789 5.06721L220.609 5.4135L60.3525 312.989L60.1729 313.334L60.4625 313.593L60.4689 313.599C61.2535 314.301 62.0449 315.009 62.8373 315.676L63.3144 316.078L63.6027 315.525L224.564 6.62189Z" fill="#80C34E" stroke="#80C34E"/>
<path d="M325.446 74.3436L324.971 73.6908L324.598 74.4066L176.491 358.639L176.11 359.37H176.934C177.488 359.37 178.043 359.38 178.603 359.39H178.604C179.163 359.401 179.727 359.411 180.293 359.411H180.293H180.293H180.293H180.293H180.293H180.293H180.293H180.293H180.293H180.293H180.293H180.293H180.294H180.294H180.294H180.294H180.294H180.294H180.294H180.294H180.294H180.294H180.294H180.294H180.294H180.294H180.295H180.295H180.295H180.295H180.295H180.295H180.295H180.295H180.295H180.295H180.295H180.295H180.295H180.295H180.296H180.296H180.296H180.296H180.296H180.296H180.296H180.296H180.296H180.296H180.296H180.297H180.297H180.297H180.297H180.297H180.297H180.297H180.297H180.297H180.298H180.298H180.298H180.298H180.298H180.298H180.298H180.298H180.298H180.298H180.298H180.298H180.298H180.299H180.299H180.299H180.299H180.299H180.299H180.299H180.299H180.299H180.299H180.299H180.299H180.299H180.299H180.299H180.3H180.3H180.3H180.3H180.3H180.3H180.3H180.3H180.3H180.3H180.3H180.3H180.3H180.301H180.301H180.301H180.301H180.301H180.301H180.301H180.301H180.301H180.301H180.301H180.301H180.302H180.302H180.302H180.302H180.302H180.302H180.302H180.302H180.302H180.302H180.302H180.303H180.303H180.303H180.303H180.303H180.303H180.303H180.303H180.303H180.303H180.304H180.304H180.304H180.304H180.304H180.304H180.304H180.304H180.304H180.304H180.305H180.305H180.305H180.305H180.305H180.305H180.305H180.305H180.305H180.306H180.306H180.306H180.306H180.306H180.306H180.306H180.306H180.306H180.307H180.307H180.307H180.307H180.307H180.307H180.307H180.307H180.308H180.308H180.308H180.308H180.308H180.308H180.308H180.308H180.309H180.309H180.309H180.309H180.309H180.309H180.309H180.309H180.31H180.31H180.31H180.31H180.31H180.31H180.31H180.311H180.311H180.311H180.311H180.311H180.311H180.311H180.312H180.312H180.312H180.312H180.312H180.312H180.312H180.313H180.313H180.313H180.313H180.313H180.313H180.313H180.314H180.314H180.314H180.314H180.314H180.314H180.315H180.315H180.315H180.315H180.315H180.315H180.316H180.316H180.316H180.316H180.316H180.316H180.317H180.317H180.317H180.317H180.317H180.317H180.318H180.318H180.318H180.318H180.318H180.318H180.319H180.319H180.319H180.319H180.319H180.319H180.32H180.32H180.32H180.32H180.32H180.321H180.321H180.321H180.321H180.321H180.322H180.322H180.322H180.322H180.322H180.322H180.323H180.323H180.323H180.323H180.323H180.324H180.324H180.324H180.324H180.324H180.325H180.325H180.325H180.325H180.326H180.326H180.326H180.326H180.326H180.327H180.327H180.327H180.327H180.327H180.328H180.328H180.328H180.328H180.329H180.329H180.329H180.329H180.329H180.33H180.33H180.33H180.33H180.331H180.331H180.331H180.331H180.331H180.332H180.332H180.332H180.332H180.333H180.333H180.333H180.333H180.334H180.334H180.334H180.637L180.777 359.142L327.475 77.6467L327.615 77.3785L327.442 77.1301C326.777 76.1735 326.112 75.259 325.45 74.3493L325.446 74.3436Z" fill="#80C34E" stroke="#80C34E"/>
<path d="M96.4977 21.9795L95.896 21.8321L95.7606 21.5808C94.1442 22.4511 92.5228 23.3242 90.9008 24.2392L90.7716 24.3121L90.703 24.4437L1.55659 195.522L1.48902 195.652L1.50196 195.797C1.66773 197.662 1.83449 199.497 2.08507 201.335L2.29748 202.893L3.0239 201.498L96.34 22.4045L96.4977 22.3196V22.021V21.9795Z" fill="#80C34E" stroke="#80C34E"/>
<path d="M301.22 311.998L301.558 312.336L301.911 312.013C304.325 309.808 306.655 307.52 308.9 305.191L308.95 305.139L308.984 305.075L356.625 213.607L356.66 213.541L356.673 213.467C357.255 210.311 357.795 207.108 358.212 203.861L357.272 203.567L301.089 311.372L300.92 311.697L301.179 311.956L301.22 311.998Z" fill="#80C34E" stroke="#80C34E"/>
<path d="M65.5499 43.233L64.7835 42.6203C62.6251 44.4466 60.4612 46.3189 58.3786 48.2766L58.3168 48.3347L58.2776 48.4099L2.55075 155.386L2.51029 155.463L2.49864 155.55C2.12475 158.334 1.79208 161.161 1.54246 163.99L2.48394 164.265L65.5499 43.233Z" fill="#80C34E" stroke="#80C34E"/>
<path d="M187.385 1.08301V0.583008H186.885C186.34 0.583008 185.793 0.562917 185.23 0.542243L185.219 0.541841C184.655 0.521134 184.076 0.5 183.485 0.5H183.182L183.042 0.768969L35.017 284.876L34.8739 285.151L35.0561 285.402L35.0629 285.411C35.7234 286.319 36.3889 287.234 37.0965 288.15L37.5744 288.768L37.9356 288.075L187.328 1.35555L187.385 1.24696V1.12451V1.08301Z" fill="#80C34E" stroke="#80C34E"/>
<path d="M338.338 95.2295L338.46 94.9946L338.335 94.7614L338.331 94.7534C337.752 93.6798 337.168 92.5941 336.54 91.5484L336.081 90.7826L335.668 91.5746L196.89 357.895L196.461 358.719L197.385 358.623C197.986 358.561 198.597 358.499 199.209 358.436L199.24 358.433C199.841 358.372 200.442 358.311 201.034 358.249L201.301 358.222L201.426 357.983L338.338 95.2295Z" fill="#80C34E" stroke="#80C34E"/>
<path d="M347.709 115.586L347.815 115.382L347.73 115.169L346.237 111.437L345.833 110.426L345.329 111.392L218.659 354.492L218.165 355.44L219.209 355.212C220.537 354.921 221.83 354.629 223.125 354.295L223.34 354.24L223.443 354.042L347.709 115.586Z" fill="#80C34E" stroke="#80C34E"/>
<path d="M359.443 169.823L359.508 169.7L359.499 169.56C359.374 167.612 359.25 165.7 359.083 163.786L358.935 162.077L358.142 163.598L268.747 335.133L267.971 336.621L269.435 335.8C271.143 334.841 272.81 333.841 274.435 332.799L274.547 332.727L274.609 332.609L359.443 169.823Z" fill="#80C34E" stroke="#80C34E"/>
<path d="M315.492 62.3491L315.648 62.0507L315.43 61.7943C315.073 61.3742 314.706 60.9654 314.344 60.5625L314.343 60.561C313.979 60.1559 313.621 59.7567 313.273 59.3481L312.792 58.782L312.449 59.4408L157.251 357.273L156.916 357.917L157.638 358.001L159.255 358.187L160.872 358.374L161.213 358.413L161.372 358.108L315.492 62.3491Z" fill="#80C34E" stroke="#80C34E"/>
<path d="M355.097 139.786L355.278 139.604L355.218 139.336C354.885 137.835 354.509 136.334 354.092 134.833L353.753 133.611L353.167 134.736L242.294 347.526L241.694 348.679L242.911 348.226C244.361 347.688 245.821 347.146 247.24 346.561L247.409 346.492L247.493 346.33L355.097 139.786Z" fill="#80C34E" stroke="#80C34E"/>
<path d="M288.598 37.0734V36.8234L288.398 36.6734L288.395 36.6715C287.568 36.0511 286.733 35.4248 285.897 34.8394L285.43 34.5126L285.166 35.018L121.552 349.021L121.284 349.534L121.831 349.724C122.783 350.056 123.777 350.387 124.766 350.716L124.781 350.721L125.185 350.856L125.382 350.478L288.541 37.346L288.598 37.2374V37.1149V37.0734Z" fill="#80C34E" stroke="#80C34E"/>
<path d="M258.231 18.7703L258.466 18.3194L258.011 18.0921C257.088 17.6306 256.167 17.212 255.209 16.7954L254.782 16.6095L254.566 17.0229L89.3344 334.135L89.1122 334.562L89.5298 334.8C89.8527 334.985 90.1839 335.18 90.5209 335.379C91.0667 335.701 91.6274 336.031 92.1921 336.339L92.6394 336.583L92.8749 336.131L258.231 18.7703Z" fill="#80C34E" stroke="#80C34E"/>
<path d="M302.53 48.725V48.5015L302.364 48.3524C301.973 48.0025 301.592 47.6523 301.208 47.2995L301.207 47.2991C300.824 46.9471 300.438 46.5926 300.042 46.2377L299.562 45.8087L299.265 46.3793L138.967 354.038L138.671 354.606L139.294 354.755C139.784 354.873 140.252 354.977 140.711 355.079C141.264 355.201 141.805 355.321 142.358 355.459L142.74 355.555L142.922 355.205L302.474 48.9976L302.53 48.889V48.7665V48.725Z" fill="#80C34E" stroke="#80C34E"/>
<path d="M108.715 344.007L273.515 27.694L273.837 27.8931V26.9956V26.954L273.425 26.8532L273.6 26.5704C273.161 26.2987 272.723 26.0378 272.289 25.7794L272.287 25.7781C271.851 25.5186 271.419 25.2616 270.988 24.9948L270.53 24.7114L270.282 25.1889L105.05 342.302L104.806 342.769L105.286 342.988C105.742 343.195 106.208 343.402 106.672 343.608L106.679 343.611C107.146 343.819 107.61 344.025 108.064 344.231L108.496 344.427L108.715 344.007Z" fill="#80C34E" stroke="#80C34E"/>
<path d="M77.8248 326.595L241.595 12.2645L241.869 12.36V11.6567V11.6152L241.422 11.5056L241.534 11.1845C241.06 11.0198 240.576 10.8446 240.088 10.6682L240.086 10.6674C239.6 10.4917 239.111 10.3147 238.631 10.1479L238.223 10.0059L238.023 10.3891L74.4501 324.35L74.254 324.727L74.5935 324.981C75.4304 325.609 76.2663 326.194 77.0946 326.774L77.5615 327.101L77.8248 326.595Z" fill="#80C34E" stroke="#80C34E"/>
</svg>
