<svg width="171" height="172" viewBox="0 0 171 172" fill="none" xmlns="http://www.w3.org/2000/svg">
<mask id="mask0_96_696" style="mask-type:luminance" maskUnits="userSpaceOnUse" x="0" y="0" width="171" height="172">
<path d="M85.4999 171.698C132.72 171.698 171 133.418 171 86.1977C171 38.9773 132.72 0.697754 85.4999 0.697754C38.2796 0.697754 0 38.9773 0 86.1977C0 133.418 38.2796 171.698 85.4999 171.698Z" fill="white"/>
</mask>
<g mask="url(#mask0_96_696)">
<path d="M4.1006 5.98717C5.17696 5.98717 6.04958 5.11471 6.04958 4.03834C6.04958 2.96197 5.17696 2.08936 4.1006 2.08936C3.02423 2.08936 2.15161 2.96197 2.15161 4.03834C2.15161 5.11471 3.02423 5.98717 4.1006 5.98717Z" fill="#80C34E"/>
<path d="M24.4505 5.98717C25.5269 5.98717 26.3995 5.11471 26.3995 4.03834C26.3995 2.96197 25.5269 2.08936 24.4505 2.08936C23.3742 2.08936 22.5017 2.96197 22.5017 4.03834C22.5017 5.11471 23.3742 5.98717 24.4505 5.98717Z" fill="#80C34E"/>
<path d="M44.8007 5.98717C45.877 5.98717 46.7495 5.11471 46.7495 4.03834C46.7495 2.96197 45.877 2.08936 44.8007 2.08936C43.7243 2.08936 42.8517 2.96197 42.8517 4.03834C42.8517 5.11471 43.7243 5.98717 44.8007 5.98717Z" fill="#80C34E"/>
<path d="M65.1494 5.98717C66.2258 5.98717 67.0984 5.11471 67.0984 4.03834C67.0984 2.96197 66.2258 2.08936 65.1494 2.08936C64.0731 2.08936 63.2004 2.96197 63.2004 4.03834C63.2004 5.11471 64.0731 5.98717 65.1494 5.98717Z" fill="#80C34E"/>
<path d="M85.4994 5.98717C86.5757 5.98717 87.4484 5.11471 87.4484 4.03834C87.4484 2.96197 86.5757 2.08936 85.4994 2.08936C84.423 2.08936 83.5505 2.96197 83.5505 4.03834C83.5505 5.11471 84.423 5.98717 85.4994 5.98717Z" fill="#80C34E"/>
<path d="M105.875 5.98717C106.952 5.98717 107.824 5.11471 107.824 4.03834C107.824 2.96197 106.952 2.08936 105.875 2.08936C104.799 2.08936 103.926 2.96197 103.926 4.03834C103.926 5.11471 104.799 5.98717 105.875 5.98717Z" fill="#80C34E"/>
<path d="M126.225 5.98717C127.302 5.98717 128.174 5.11471 128.174 4.03834C128.174 2.96197 127.302 2.08936 126.225 2.08936C125.149 2.08936 124.276 2.96197 124.276 4.03834C124.276 5.11471 125.149 5.98717 126.225 5.98717Z" fill="#80C34E"/>
<path d="M146.575 5.98717C147.652 5.98717 148.524 5.11471 148.524 4.03834C148.524 2.96197 147.652 2.08936 146.575 2.08936C145.499 2.08936 144.626 2.96197 144.626 4.03834C144.626 5.11471 145.499 5.98717 146.575 5.98717Z" fill="#80C34E"/>
<path d="M166.925 5.98717C168.002 5.98717 168.874 5.11471 168.874 4.03834C168.874 2.96197 168.002 2.08936 166.925 2.08936C165.849 2.08936 164.976 2.96197 164.976 4.03834C164.976 5.11471 165.849 5.98717 166.925 5.98717Z" fill="#80C34E"/>
<path d="M4.10035 24.2608C5.17672 24.2608 6.04933 23.3881 6.04933 22.3118C6.04933 21.2354 5.17672 20.3628 4.10035 20.3628C3.02398 20.3628 2.15137 21.2354 2.15137 22.3118C2.15137 23.3881 3.02398 24.2608 4.10035 24.2608Z" fill="#80C34E"/>
<path d="M24.4508 24.2608C25.5271 24.2608 26.3998 23.3881 26.3998 22.3118C26.3998 21.2354 25.5271 20.3628 24.4508 20.3628C23.3744 20.3628 22.502 21.2354 22.502 22.3118C22.502 23.3881 23.3744 24.2608 24.4508 24.2608Z" fill="#80C34E"/>
<path d="M44.8005 24.2608C45.8769 24.2608 46.7494 23.3881 46.7494 22.3118C46.7494 21.2354 45.8769 20.3628 44.8005 20.3628C43.7242 20.3628 42.8516 21.2354 42.8516 22.3118C42.8516 23.3881 43.7242 24.2608 44.8005 24.2608Z" fill="#80C34E"/>
<path d="M65.1492 24.2608C66.2255 24.2608 67.0982 23.3881 67.0982 22.3118C67.0982 21.2354 66.2255 20.3628 65.1492 20.3628C64.0728 20.3628 63.2002 21.2354 63.2002 22.3118C63.2002 23.3881 64.0728 24.2608 65.1492 24.2608Z" fill="#80C34E"/>
<path d="M85.4996 24.2608C86.576 24.2608 87.4486 23.3881 87.4486 22.3118C87.4486 21.2354 86.576 20.3628 85.4996 20.3628C84.4232 20.3628 83.5508 21.2354 83.5508 22.3118C83.5508 23.3881 84.4232 24.2608 85.4996 24.2608Z" fill="#80C34E"/>
<path d="M105.876 24.2608C106.952 24.2608 107.825 23.3881 107.825 22.3118C107.825 21.2354 106.952 20.3628 105.876 20.3628C104.799 20.3628 103.927 21.2354 103.927 22.3118C103.927 23.3881 104.799 24.2608 105.876 24.2608Z" fill="#80C34E"/>
<path d="M126.225 24.2608C127.302 24.2608 128.174 23.3881 128.174 22.3118C128.174 21.2354 127.302 20.3628 126.225 20.3628C125.149 20.3628 124.276 21.2354 124.276 22.3118C124.276 23.3881 125.149 24.2608 126.225 24.2608Z" fill="#80C34E"/>
<path d="M146.575 24.2608C147.652 24.2608 148.524 23.3881 148.524 22.3118C148.524 21.2354 147.652 20.3628 146.575 20.3628C145.499 20.3628 144.626 21.2354 144.626 22.3118C144.626 23.3881 145.499 24.2608 146.575 24.2608Z" fill="#80C34E"/>
<path d="M166.926 24.2608C168.002 24.2608 168.874 23.3881 168.874 22.3118C168.874 21.2354 168.002 20.3628 166.926 20.3628C165.849 20.3628 164.977 21.2354 164.977 22.3118C164.977 23.3881 165.849 24.2608 166.926 24.2608Z" fill="#80C34E"/>
<path d="M4.10035 42.5095C5.17672 42.5095 6.04933 41.6369 6.04933 40.5605C6.04933 39.4841 5.17672 38.6118 4.10035 38.6118C3.02398 38.6118 2.15137 39.4841 2.15137 40.5605C2.15137 41.6369 3.02398 42.5095 4.10035 42.5095Z" fill="#80C34E"/>
<path d="M24.4508 42.5095C25.5271 42.5095 26.3998 41.6369 26.3998 40.5605C26.3998 39.4841 25.5271 38.6118 24.4508 38.6118C23.3744 38.6118 22.502 39.4841 22.502 40.5605C22.502 41.6369 23.3744 42.5095 24.4508 42.5095Z" fill="#80C34E"/>
<path d="M44.8005 42.5095C45.8769 42.5095 46.7494 41.6369 46.7494 40.5605C46.7494 39.4841 45.8769 38.6118 44.8005 38.6118C43.7242 38.6118 42.8516 39.4841 42.8516 40.5605C42.8516 41.6369 43.7242 42.5095 44.8005 42.5095Z" fill="#80C34E"/>
<path d="M65.1492 42.5095C66.2255 42.5095 67.0982 41.6369 67.0982 40.5605C67.0982 39.4841 66.2255 38.6118 65.1492 38.6118C64.0728 38.6118 63.2002 39.4841 63.2002 40.5605C63.2002 41.6369 64.0728 42.5095 65.1492 42.5095Z" fill="#80C34E"/>
<path d="M85.4996 42.5095C86.576 42.5095 87.4486 41.6369 87.4486 40.5605C87.4486 39.4841 86.576 38.6118 85.4996 38.6118C84.4232 38.6118 83.5508 39.4841 83.5508 40.5605C83.5508 41.6369 84.4232 42.5095 85.4996 42.5095Z" fill="#80C34E"/>
<path d="M105.876 42.5095C106.952 42.5095 107.825 41.6369 107.825 40.5605C107.825 39.4841 106.952 38.6118 105.876 38.6118C104.799 38.6118 103.927 39.4841 103.927 40.5605C103.927 41.6369 104.799 42.5095 105.876 42.5095Z" fill="#80C34E"/>
<path d="M126.225 42.5095C127.302 42.5095 128.174 41.6369 128.174 40.5605C128.174 39.4841 127.302 38.6118 126.225 38.6118C125.149 38.6118 124.276 39.4841 124.276 40.5605C124.276 41.6369 125.149 42.5095 126.225 42.5095Z" fill="#80C34E"/>
<path d="M146.575 42.5095C147.652 42.5095 148.524 41.6369 148.524 40.5605C148.524 39.4841 147.652 38.6118 146.575 38.6118C145.499 38.6118 144.626 39.4841 144.626 40.5605C144.626 41.6369 145.499 42.5095 146.575 42.5095Z" fill="#80C34E"/>
<path d="M166.926 42.5095C168.002 42.5095 168.874 41.6369 168.874 40.5605C168.874 39.4841 168.002 38.6118 166.926 38.6118C165.849 38.6118 164.977 39.4841 164.977 40.5605C164.977 41.6369 165.849 42.5095 166.926 42.5095Z" fill="#80C34E"/>
<path d="M4.10035 60.7588C5.17672 60.7588 6.04933 59.8862 6.04933 58.8098C6.04933 57.7335 5.17672 56.8608 4.10035 56.8608C3.02398 56.8608 2.15137 57.7335 2.15137 58.8098C2.15137 59.8862 3.02398 60.7588 4.10035 60.7588Z" fill="#80C34E"/>
<path d="M24.4508 60.7588C25.5271 60.7588 26.3998 59.8862 26.3998 58.8098C26.3998 57.7335 25.5271 56.8608 24.4508 56.8608C23.3744 56.8608 22.502 57.7335 22.502 58.8098C22.502 59.8862 23.3744 60.7588 24.4508 60.7588Z" fill="#80C34E"/>
<path d="M44.8005 60.7588C45.8769 60.7588 46.7494 59.8862 46.7494 58.8098C46.7494 57.7335 45.8769 56.8608 44.8005 56.8608C43.7242 56.8608 42.8516 57.7335 42.8516 58.8098C42.8516 59.8862 43.7242 60.7588 44.8005 60.7588Z" fill="#80C34E"/>
<path d="M65.1492 60.7588C66.2255 60.7588 67.0982 59.8862 67.0982 58.8098C67.0982 57.7335 66.2255 56.8608 65.1492 56.8608C64.0728 56.8608 63.2002 57.7335 63.2002 58.8098C63.2002 59.8862 64.0728 60.7588 65.1492 60.7588Z" fill="#80C34E"/>
<path d="M85.4996 60.7588C86.576 60.7588 87.4486 59.8862 87.4486 58.8098C87.4486 57.7335 86.576 56.8608 85.4996 56.8608C84.4232 56.8608 83.5508 57.7335 83.5508 58.8098C83.5508 59.8862 84.4232 60.7588 85.4996 60.7588Z" fill="#80C34E"/>
<path d="M105.876 60.7588C106.952 60.7588 107.825 59.8862 107.825 58.8098C107.825 57.7335 106.952 56.8608 105.876 56.8608C104.799 56.8608 103.927 57.7335 103.927 58.8098C103.927 59.8862 104.799 60.7588 105.876 60.7588Z" fill="#80C34E"/>
<path d="M126.225 60.7588C127.302 60.7588 128.174 59.8862 128.174 58.8098C128.174 57.7335 127.302 56.8608 126.225 56.8608C125.149 56.8608 124.276 57.7335 124.276 58.8098C124.276 59.8862 125.149 60.7588 126.225 60.7588Z" fill="#80C34E"/>
<path d="M146.575 60.7588C147.652 60.7588 148.524 59.8862 148.524 58.8098C148.524 57.7335 147.652 56.8608 146.575 56.8608C145.499 56.8608 144.626 57.7335 144.626 58.8098C144.626 59.8862 145.499 60.7588 146.575 60.7588Z" fill="#80C34E"/>
<path d="M166.926 60.7588C168.002 60.7588 168.874 59.8862 168.874 58.8098C168.874 57.7335 168.002 56.8608 166.926 56.8608C165.849 56.8608 164.977 57.7335 164.977 58.8098C164.977 59.8862 165.849 60.7588 166.926 60.7588Z" fill="#80C34E"/>
<path d="M4.10035 79.0078C5.17672 79.0078 6.04933 78.1352 6.04933 77.0588C6.04933 75.9825 5.17672 75.1099 4.10035 75.1099C3.02398 75.1099 2.15137 75.9825 2.15137 77.0588C2.15137 78.1352 3.02398 79.0078 4.10035 79.0078Z" fill="#80C34E"/>
<path d="M24.4508 79.0078C25.5271 79.0078 26.3998 78.1352 26.3998 77.0588C26.3998 75.9825 25.5271 75.1099 24.4508 75.1099C23.3744 75.1099 22.502 75.9825 22.502 77.0588C22.502 78.1352 23.3744 79.0078 24.4508 79.0078Z" fill="#80C34E"/>
<path d="M44.8005 79.0078C45.8769 79.0078 46.7494 78.1352 46.7494 77.0588C46.7494 75.9825 45.8769 75.1099 44.8005 75.1099C43.7242 75.1099 42.8516 75.9825 42.8516 77.0588C42.8516 78.1352 43.7242 79.0078 44.8005 79.0078Z" fill="#80C34E"/>
<path d="M65.1492 79.0078C66.2255 79.0078 67.0982 78.1352 67.0982 77.0588C67.0982 75.9825 66.2255 75.1099 65.1492 75.1099C64.0728 75.1099 63.2002 75.9825 63.2002 77.0588C63.2002 78.1352 64.0728 79.0078 65.1492 79.0078Z" fill="#80C34E"/>
<path d="M85.4996 79.0078C86.576 79.0078 87.4486 78.1352 87.4486 77.0588C87.4486 75.9825 86.576 75.1099 85.4996 75.1099C84.4232 75.1099 83.5508 75.9825 83.5508 77.0588C83.5508 78.1352 84.4232 79.0078 85.4996 79.0078Z" fill="#80C34E"/>
<path d="M105.876 79.0078C106.952 79.0078 107.825 78.1352 107.825 77.0588C107.825 75.9825 106.952 75.1099 105.876 75.1099C104.799 75.1099 103.927 75.9825 103.927 77.0588C103.927 78.1352 104.799 79.0078 105.876 79.0078Z" fill="#80C34E"/>
<path d="M126.225 79.0078C127.302 79.0078 128.174 78.1352 128.174 77.0588C128.174 75.9825 127.302 75.1099 126.225 75.1099C125.149 75.1099 124.276 75.9825 124.276 77.0588C124.276 78.1352 125.149 79.0078 126.225 79.0078Z" fill="#80C34E"/>
<path d="M146.575 79.0078C147.652 79.0078 148.524 78.1352 148.524 77.0588C148.524 75.9825 147.652 75.1099 146.575 75.1099C145.499 75.1099 144.626 75.9825 144.626 77.0588C144.626 78.1352 145.499 79.0078 146.575 79.0078Z" fill="#80C34E"/>
<path d="M166.926 79.0078C168.002 79.0078 168.874 78.1352 168.874 77.0588C168.874 75.9825 168.002 75.1099 166.926 75.1099C165.849 75.1099 164.977 75.9825 164.977 77.0588C164.977 78.1352 165.849 79.0078 166.926 79.0078Z" fill="#80C34E"/>
<path d="M4.10035 97.2569C5.17672 97.2569 6.04933 96.3842 6.04933 95.3079C6.04933 94.2315 5.17672 93.3589 4.10035 93.3589C3.02398 93.3589 2.15137 94.2315 2.15137 95.3079C2.15137 96.3842 3.02398 97.2569 4.10035 97.2569Z" fill="#80C34E"/>
<path d="M24.4508 97.2569C25.5271 97.2569 26.3998 96.3842 26.3998 95.3079C26.3998 94.2315 25.5271 93.3589 24.4508 93.3589C23.3744 93.3589 22.502 94.2315 22.502 95.3079C22.502 96.3842 23.3744 97.2569 24.4508 97.2569Z" fill="#80C34E"/>
<path d="M44.8005 97.2569C45.8769 97.2569 46.7494 96.3842 46.7494 95.3079C46.7494 94.2315 45.8769 93.3589 44.8005 93.3589C43.7242 93.3589 42.8516 94.2315 42.8516 95.3079C42.8516 96.3842 43.7242 97.2569 44.8005 97.2569Z" fill="#80C34E"/>
<path d="M65.1492 97.2569C66.2255 97.2569 67.0982 96.3842 67.0982 95.3079C67.0982 94.2315 66.2255 93.3589 65.1492 93.3589C64.0728 93.3589 63.2002 94.2315 63.2002 95.3079C63.2002 96.3842 64.0728 97.2569 65.1492 97.2569Z" fill="#80C34E"/>
<path d="M85.4996 97.2569C86.576 97.2569 87.4486 96.3842 87.4486 95.3079C87.4486 94.2315 86.576 93.3589 85.4996 93.3589C84.4232 93.3589 83.5508 94.2315 83.5508 95.3079C83.5508 96.3842 84.4232 97.2569 85.4996 97.2569Z" fill="#80C34E"/>
<path d="M105.876 97.2569C106.952 97.2569 107.825 96.3842 107.825 95.3079C107.825 94.2315 106.952 93.3589 105.876 93.3589C104.799 93.3589 103.927 94.2315 103.927 95.3079C103.927 96.3842 104.799 97.2569 105.876 97.2569Z" fill="#80C34E"/>
<path d="M126.225 97.2569C127.302 97.2569 128.174 96.3842 128.174 95.3079C128.174 94.2315 127.302 93.3589 126.225 93.3589C125.149 93.3589 124.276 94.2315 124.276 95.3079C124.276 96.3842 125.149 97.2569 126.225 97.2569Z" fill="#80C34E"/>
<path d="M146.575 97.2569C147.652 97.2569 148.524 96.3842 148.524 95.3079C148.524 94.2315 147.652 93.3589 146.575 93.3589C145.499 93.3589 144.626 94.2315 144.626 95.3079C144.626 96.3842 145.499 97.2569 146.575 97.2569Z" fill="#80C34E"/>
<path d="M166.926 97.2569C168.002 97.2569 168.874 96.3842 168.874 95.3079C168.874 94.2315 168.002 93.3589 166.926 93.3589C165.849 93.3589 164.977 94.2315 164.977 95.3079C164.977 96.3842 165.849 97.2569 166.926 97.2569Z" fill="#80C34E"/>
<path d="M4.1006 115.533C5.17696 115.533 6.04958 114.661 6.04958 113.584C6.04958 112.508 5.17696 111.635 4.1006 111.635C3.02423 111.635 2.15161 112.508 2.15161 113.584C2.15161 114.661 3.02423 115.533 4.1006 115.533Z" fill="#80C34E"/>
<path d="M24.4505 115.533C25.5269 115.533 26.3995 114.661 26.3995 113.584C26.3995 112.508 25.5269 111.635 24.4505 111.635C23.3742 111.635 22.5017 112.508 22.5017 113.584C22.5017 114.661 23.3742 115.533 24.4505 115.533Z" fill="#80C34E"/>
<path d="M44.8007 115.533C45.877 115.533 46.7495 114.661 46.7495 113.584C46.7495 112.508 45.877 111.635 44.8007 111.635C43.7243 111.635 42.8517 112.508 42.8517 113.584C42.8517 114.661 43.7243 115.533 44.8007 115.533Z" fill="#80C34E"/>
<path d="M65.1494 115.533C66.2258 115.533 67.0984 114.661 67.0984 113.584C67.0984 112.508 66.2258 111.635 65.1494 111.635C64.0731 111.635 63.2004 112.508 63.2004 113.584C63.2004 114.661 64.0731 115.533 65.1494 115.533Z" fill="#80C34E"/>
<path d="M85.4994 115.533C86.5757 115.533 87.4484 114.661 87.4484 113.584C87.4484 112.508 86.5757 111.635 85.4994 111.635C84.423 111.635 83.5505 112.508 83.5505 113.584C83.5505 114.661 84.423 115.533 85.4994 115.533Z" fill="#80C34E"/>
<path d="M105.875 115.533C106.952 115.533 107.824 114.661 107.824 113.584C107.824 112.508 106.952 111.635 105.875 111.635C104.799 111.635 103.926 112.508 103.926 113.584C103.926 114.661 104.799 115.533 105.875 115.533Z" fill="#80C34E"/>
<path d="M126.225 115.533C127.302 115.533 128.174 114.661 128.174 113.584C128.174 112.508 127.302 111.635 126.225 111.635C125.149 111.635 124.276 112.508 124.276 113.584C124.276 114.661 125.149 115.533 126.225 115.533Z" fill="#80C34E"/>
<path d="M146.575 115.533C147.652 115.533 148.524 114.661 148.524 113.584C148.524 112.508 147.652 111.635 146.575 111.635C145.499 111.635 144.626 112.508 144.626 113.584C144.626 114.661 145.499 115.533 146.575 115.533Z" fill="#80C34E"/>
<path d="M166.925 115.533C168.002 115.533 168.874 114.661 168.874 113.584C168.874 112.508 168.002 111.635 166.925 111.635C165.849 111.635 164.976 112.508 164.976 113.584C164.976 114.661 165.849 115.533 166.925 115.533Z" fill="#80C34E"/>
<path d="M4.1006 133.782C5.17696 133.782 6.04958 132.91 6.04958 131.833C6.04958 130.757 5.17696 129.884 4.1006 129.884C3.02423 129.884 2.15161 130.757 2.15161 131.833C2.15161 132.91 3.02423 133.782 4.1006 133.782Z" fill="#80C34E"/>
<path d="M24.4505 133.782C25.5269 133.782 26.3995 132.91 26.3995 131.833C26.3995 130.757 25.5269 129.884 24.4505 129.884C23.3742 129.884 22.5017 130.757 22.5017 131.833C22.5017 132.91 23.3742 133.782 24.4505 133.782Z" fill="#80C34E"/>
<path d="M44.8007 133.782C45.877 133.782 46.7495 132.91 46.7495 131.833C46.7495 130.757 45.877 129.884 44.8007 129.884C43.7243 129.884 42.8517 130.757 42.8517 131.833C42.8517 132.91 43.7243 133.782 44.8007 133.782Z" fill="#80C34E"/>
<path d="M65.1494 133.782C66.2258 133.782 67.0984 132.91 67.0984 131.833C67.0984 130.757 66.2258 129.884 65.1494 129.884C64.0731 129.884 63.2004 130.757 63.2004 131.833C63.2004 132.91 64.0731 133.782 65.1494 133.782Z" fill="#80C34E"/>
<path d="M85.4994 133.782C86.5757 133.782 87.4484 132.91 87.4484 131.833C87.4484 130.757 86.5757 129.884 85.4994 129.884C84.423 129.884 83.5505 130.757 83.5505 131.833C83.5505 132.91 84.423 133.782 85.4994 133.782Z" fill="#80C34E"/>
<path d="M105.875 133.782C106.952 133.782 107.824 132.91 107.824 131.833C107.824 130.757 106.952 129.884 105.875 129.884C104.799 129.884 103.926 130.757 103.926 131.833C103.926 132.91 104.799 133.782 105.875 133.782Z" fill="#80C34E"/>
<path d="M126.225 133.782C127.302 133.782 128.174 132.91 128.174 131.833C128.174 130.757 127.302 129.884 126.225 129.884C125.149 129.884 124.276 130.757 124.276 131.833C124.276 132.91 125.149 133.782 126.225 133.782Z" fill="#80C34E"/>
<path d="M146.575 133.782C147.652 133.782 148.524 132.91 148.524 131.833C148.524 130.757 147.652 129.884 146.575 129.884C145.499 129.884 144.626 130.757 144.626 131.833C144.626 132.91 145.499 133.782 146.575 133.782Z" fill="#80C34E"/>
<path d="M166.925 133.782C168.002 133.782 168.874 132.91 168.874 131.833C168.874 130.757 168.002 129.884 166.925 129.884C165.849 129.884 164.976 130.757 164.976 131.833C164.976 132.91 165.849 133.782 166.925 133.782Z" fill="#80C34E"/>
<path d="M4.1006 152.031C5.17696 152.031 6.04958 151.159 6.04958 150.082C6.04958 149.006 5.17696 148.133 4.1006 148.133C3.02423 148.133 2.15161 149.006 2.15161 150.082C2.15161 151.159 3.02423 152.031 4.1006 152.031Z" fill="#80C34E"/>
<path d="M24.4505 152.031C25.5269 152.031 26.3995 151.159 26.3995 150.082C26.3995 149.006 25.5269 148.133 24.4505 148.133C23.3742 148.133 22.5017 149.006 22.5017 150.082C22.5017 151.159 23.3742 152.031 24.4505 152.031Z" fill="#80C34E"/>
<path d="M44.8007 152.031C45.877 152.031 46.7495 151.159 46.7495 150.082C46.7495 149.006 45.877 148.133 44.8007 148.133C43.7243 148.133 42.8517 149.006 42.8517 150.082C42.8517 151.159 43.7243 152.031 44.8007 152.031Z" fill="#80C34E"/>
<path d="M65.1494 152.031C66.2258 152.031 67.0984 151.159 67.0984 150.082C67.0984 149.006 66.2258 148.133 65.1494 148.133C64.0731 148.133 63.2004 149.006 63.2004 150.082C63.2004 151.159 64.0731 152.031 65.1494 152.031Z" fill="#80C34E"/>
<path d="M85.4994 152.031C86.5757 152.031 87.4484 151.159 87.4484 150.082C87.4484 149.006 86.5757 148.133 85.4994 148.133C84.423 148.133 83.5505 149.006 83.5505 150.082C83.5505 151.159 84.423 152.031 85.4994 152.031Z" fill="#80C34E"/>
<path d="M105.875 152.031C106.952 152.031 107.824 151.159 107.824 150.082C107.824 149.006 106.952 148.133 105.875 148.133C104.799 148.133 103.926 149.006 103.926 150.082C103.926 151.159 104.799 152.031 105.875 152.031Z" fill="#80C34E"/>
<path d="M126.225 152.031C127.302 152.031 128.174 151.159 128.174 150.082C128.174 149.006 127.302 148.133 126.225 148.133C125.149 148.133 124.276 149.006 124.276 150.082C124.276 151.159 125.149 152.031 126.225 152.031Z" fill="#80C34E"/>
<path d="M146.575 152.031C147.652 152.031 148.524 151.159 148.524 150.082C148.524 149.006 147.652 148.133 146.575 148.133C145.499 148.133 144.626 149.006 144.626 150.082C144.626 151.159 145.499 152.031 146.575 152.031Z" fill="#80C34E"/>
<path d="M166.925 152.031C168.002 152.031 168.874 151.159 168.874 150.082C168.874 149.006 168.002 148.133 166.925 148.133C165.849 148.133 164.976 149.006 164.976 150.082C164.976 151.159 165.849 152.031 166.925 152.031Z" fill="#80C34E"/>
<path d="M4.1006 170.28C5.17696 170.28 6.04958 169.408 6.04958 168.331C6.04958 167.255 5.17696 166.382 4.1006 166.382C3.02423 166.382 2.15161 167.255 2.15161 168.331C2.15161 169.408 3.02423 170.28 4.1006 170.28Z" fill="#80C34E"/>
<path d="M24.4505 170.28C25.5269 170.28 26.3995 169.408 26.3995 168.331C26.3995 167.255 25.5269 166.382 24.4505 166.382C23.3742 166.382 22.5017 167.255 22.5017 168.331C22.5017 169.408 23.3742 170.28 24.4505 170.28Z" fill="#80C34E"/>
<path d="M44.8007 170.28C45.877 170.28 46.7495 169.408 46.7495 168.331C46.7495 167.255 45.877 166.382 44.8007 166.382C43.7243 166.382 42.8517 167.255 42.8517 168.331C42.8517 169.408 43.7243 170.28 44.8007 170.28Z" fill="#80C34E"/>
<path d="M65.1494 170.28C66.2258 170.28 67.0984 169.408 67.0984 168.331C67.0984 167.255 66.2258 166.382 65.1494 166.382C64.0731 166.382 63.2004 167.255 63.2004 168.331C63.2004 169.408 64.0731 170.28 65.1494 170.28Z" fill="#80C34E"/>
<path d="M85.4994 170.28C86.5757 170.28 87.4484 169.408 87.4484 168.331C87.4484 167.255 86.5757 166.382 85.4994 166.382C84.423 166.382 83.5505 167.255 83.5505 168.331C83.5505 169.408 84.423 170.28 85.4994 170.28Z" fill="#80C34E"/>
<path d="M105.875 170.28C106.952 170.28 107.824 169.408 107.824 168.331C107.824 167.255 106.952 166.382 105.875 166.382C104.799 166.382 103.926 167.255 103.926 168.331C103.926 169.408 104.799 170.28 105.875 170.28Z" fill="#80C34E"/>
<path d="M126.225 170.28C127.302 170.28 128.174 169.408 128.174 168.331C128.174 167.255 127.302 166.382 126.225 166.382C125.149 166.382 124.276 167.255 124.276 168.331C124.276 169.408 125.149 170.28 126.225 170.28Z" fill="#80C34E"/>
<path d="M146.575 170.28C147.652 170.28 148.524 169.408 148.524 168.331C148.524 167.255 147.652 166.382 146.575 166.382C145.499 166.382 144.626 167.255 144.626 168.331C144.626 169.408 145.499 170.28 146.575 170.28Z" fill="#80C34E"/>
<path d="M166.925 170.28C168.002 170.28 168.874 169.408 168.874 168.331C168.874 167.255 168.002 166.382 166.925 166.382C165.849 166.382 164.976 167.255 164.976 168.331C164.976 169.408 165.849 170.28 166.925 170.28Z" fill="#80C34E"/>
</g>
</svg>
