<svg width="108" height="107" viewBox="0 0 108 107" fill="none" xmlns="http://www.w3.org/2000/svg">
<rect x="0.5" y="0.5" width="107" height="106" rx="53" fill="url(#paint0_linear_96_2034)"/>
<path d="M54 25.5C41.87 25.5 32 35.372 32 47.5C32 52.286 33.532 56.846 36.432 60.7C36.432 60.7 37.032 61.488 37.128 61.602L54 81.5L70.878 61.594C70.966 61.488 71.568 60.7 71.568 60.7L71.57 60.694C74.4486 56.8982 76.0046 52.2639 76 47.5C76 35.372 66.13 25.5 54 25.5ZM53 33.5C53.7956 33.5 54.5587 33.8161 55.1213 34.3787C55.6839 34.9413 56 35.7044 56 36.5C56 37.2956 55.6839 38.0587 55.1213 38.6213C54.5587 39.1839 53.7956 39.5 53 39.5C52.2044 39.5 51.4413 39.1839 50.8787 38.6213C50.3161 38.0587 50 37.2956 50 36.5C50 35.7044 50.3161 34.9413 50.8787 34.3787C51.4413 33.8161 52.2044 33.5 53 33.5ZM62 61.5H46V57.5H52V47.5H48V43.5H56V57.5H62V61.5Z" fill="white"/>
<defs>
<linearGradient id="paint0_linear_96_2034" x1="23.3427" y1="0.499997" x2="132.027" y2="19.9845" gradientUnits="userSpaceOnUse">
<stop stop-color="#87C446"/>
<stop offset="1" stop-color="#47B995"/>
</linearGradient>
</defs>
</svg>
