<svg width="156" height="30" viewBox="0 0 156 30" fill="none" xmlns="http://www.w3.org/2000/svg">
<path d="M31.0732 24.9276V5.49233H35.5891V13.3808H42.3343V5.49233H46.8501V24.9276H42.3343V17.1535H35.5891V24.9276H31.0732Z" fill="url(#paint0_linear_52_18)"/>
<path d="M50.3667 24.9276V5.49233H58.0837C59.7223 5.49233 61.0847 5.6924 62.1708 6.09254C63.2569 6.49267 64.0667 7.1691 64.6002 8.12181C65.1528 9.05546 65.4291 10.3607 65.4291 12.0374C65.4291 13.4284 65.1909 14.6002 64.7145 15.5529C64.2382 16.5057 63.5236 17.2202 62.5709 17.6965L65.3719 24.9276H60.6846L58.4266 18.7255H54.8826V24.9276H50.3667ZM54.8826 15.0671H58.198C58.8268 15.0671 59.3317 14.9432 59.7128 14.6955C60.1129 14.4287 60.3988 14.0667 60.5702 13.6094C60.7417 13.1521 60.8275 12.6281 60.8275 12.0374C60.8275 11.0657 60.6084 10.3416 60.1701 9.86527C59.7319 9.38891 59.0364 9.15073 58.0837 9.15073H54.8826V15.0671Z" fill="url(#paint1_linear_52_18)"/>
<path d="M74.9234 25.2706C74.1422 25.2706 73.3038 25.2229 72.4083 25.1277C71.5127 25.0324 70.6553 24.9181 69.8359 24.7847C69.0166 24.6513 68.3211 24.5275 67.7495 24.4131L68.0067 20.8976C68.5974 20.9739 69.2929 21.0596 70.0932 21.1549C70.8934 21.2311 71.6937 21.3073 72.494 21.3835C73.2943 21.4407 73.9897 21.4693 74.5804 21.4693C75.2283 21.4693 75.7523 21.3931 76.1524 21.2406C76.5716 21.0691 76.8765 20.8214 77.067 20.4975C77.2575 20.1736 77.3528 19.7544 77.3528 19.2399C77.3528 18.8207 77.2575 18.4873 77.067 18.2396C76.8955 17.9919 76.5716 17.7918 76.0952 17.6394C75.6379 17.4679 74.9711 17.3059 74.0946 17.1535C72.9132 16.9439 71.9033 16.6962 71.0649 16.4104C70.2456 16.1246 69.5787 15.7625 69.0642 15.3243C68.5498 14.867 68.1782 14.3049 67.9496 13.638C67.7209 12.952 67.6066 12.1327 67.6066 11.18C67.6066 9.61756 67.8829 8.39809 68.4355 7.5216C69.0071 6.64511 69.8169 6.02585 70.8649 5.66382C71.9128 5.30179 73.1514 5.12077 74.5804 5.12077C75.2473 5.12077 76 5.15888 76.8384 5.2351C77.6767 5.31131 78.4961 5.39706 79.2963 5.49233C80.0966 5.5876 80.7921 5.6924 81.3828 5.80672L81.1827 9.37938C80.6111 9.30317 79.9442 9.23648 79.182 9.17932C78.4198 9.1031 77.6577 9.04594 76.8955 9.00783C76.1524 8.95067 75.5046 8.92208 74.952 8.92208C74.3232 8.92208 73.7992 8.98877 73.38 9.12215C72.9608 9.23648 72.6464 9.42702 72.4368 9.69378C72.2463 9.96054 72.151 10.3035 72.151 10.7227C72.151 11.1991 72.2463 11.5706 72.4368 11.8374C72.6464 12.0851 72.9894 12.2947 73.4658 12.4662C73.9612 12.6377 74.6471 12.8187 75.5236 13.0092C76.705 13.276 77.6958 13.5523 78.4961 13.8381C79.3154 14.1239 79.9728 14.4764 80.4682 14.8956C80.9826 15.2957 81.3447 15.8197 81.5543 16.4675C81.7829 17.1154 81.8972 17.9347 81.8972 18.9255C81.8972 20.4499 81.621 21.6789 81.0684 22.6125C80.5349 23.5462 79.7441 24.2226 78.6961 24.6418C77.6672 25.061 76.4096 25.2706 74.9234 25.2706Z" fill="black"/>
<path d="M83.005 24.9276L87.8066 5.49233H95.3521L100.182 24.9276H95.6379L94.6662 21.3549H88.3783L87.4637 24.9276H83.005ZM89.0356 17.7823H94.0945L92.1224 9.09357H91.0363L89.0356 17.7823Z" fill="black"/>
<path d="M102.302 24.9276V5.49233H107.732L113.592 17.8394H114.078V5.49233H118.593V24.9276H113.22L107.304 12.2947H106.818V24.9276H102.302Z" fill="black"/>
<path d="M120.755 24.9276L125.556 5.49233H133.102L137.932 24.9276H133.388L132.416 21.3549H126.128L125.213 24.9276H120.755ZM126.785 17.7823H131.844L129.872 9.09357H128.786L126.785 17.7823Z" fill="black"/>
<path d="M140.052 24.9276V5.49233H147.654C149.198 5.49233 150.503 5.70193 151.57 6.12112C152.656 6.54031 153.523 7.15004 154.171 7.95032C154.819 8.7506 155.285 9.74141 155.571 10.9228C155.857 12.0851 156 13.4189 156 14.9242C156 16.4294 155.867 17.8013 155.6 19.0399C155.333 20.2593 154.885 21.3168 154.257 22.2124C153.628 23.0889 152.78 23.7653 151.713 24.2417C150.665 24.699 149.36 24.9276 147.797 24.9276H140.052ZM144.568 21.1549H147.511C148.35 21.1549 149.026 21.0024 149.541 20.6976C150.074 20.3737 150.474 19.9354 150.741 19.3828C151.008 18.8112 151.189 18.1443 151.284 17.3821C151.379 16.62 151.427 15.8006 151.427 14.9242C151.427 14.0477 151.37 13.2664 151.256 12.5805C151.16 11.8945 150.97 11.3039 150.684 10.8084C150.417 10.294 150.027 9.90337 149.512 9.63662C148.998 9.36986 148.331 9.23648 147.511 9.23648H144.568V21.1549Z" fill="black"/>
<path d="M14.7079 15.5726L10.1137 22.5742C9.46356 23.5651 10.7721 24.6633 11.6351 23.8511L14.0209 21.606C14.4066 21.243 15.0084 21.2437 15.3933 21.6077L17.8224 23.9048C18.6831 24.7186 19.9939 23.6251 19.3475 22.6325L14.7789 15.6166C14.7598 15.5873 14.7282 15.5443 14.7079 15.5726Z" fill="#64C6AB"/>
<path d="M16.4882 24.268C16.4882 25.2519 15.6911 26.0495 14.708 26.0495C13.7248 26.0495 12.9278 25.2519 12.9278 24.268C12.9278 23.2841 13.7248 22.4865 14.708 22.4865C15.6911 22.4865 16.4882 23.2841 16.4882 24.268Z" fill="#64C6AB"/>
<path d="M14.7079 14.4274C14.7026 14.4362 12.3941 10.918 10.0862 7.3964C9.4369 6.4057 10.7436 5.30998 11.6062 6.12173L14.0209 8.39402C14.4066 8.757 15.0084 8.75627 15.3933 8.39236L17.8762 6.0444C18.736 5.23139 20.0435 6.32027 19.3988 7.31253C17.0962 10.8567 14.7769 14.4186 14.7503 14.4274C14.6973 14.4449 14.7185 14.4098 14.7079 14.4274Z" fill="#64C6AB"/>
<path d="M16.4882 5.73203C16.4882 4.74814 15.6911 3.95054 14.708 3.95054C13.7248 3.95054 12.9278 4.74814 12.9278 5.73203C12.9278 6.71592 13.7248 7.51352 14.708 7.51352C15.6911 7.51352 16.4882 6.71592 16.4882 5.73203Z" fill="#64C6AB"/>
<path d="M15.2801 14.9152C15.2801 14.8422 18.8973 12.4664 22.4638 10.1415C23.4531 9.4967 24.5363 10.7934 23.7276 11.6539L21.3081 14.2287C20.9458 14.6143 20.9465 15.2154 21.3098 15.6001L23.6079 18.0338C24.4211 18.895 23.3268 20.205 22.3346 19.558L15.3684 15.0152C15.3133 14.9793 15.2801 14.981 15.2801 14.9152Z" fill="#64C6AB"/>
<path d="M23.9692 16.6967C24.9524 16.6967 25.7494 15.8991 25.7494 14.9152C25.7494 13.9313 24.9524 13.1337 23.9692 13.1337C22.986 13.1337 22.189 13.9313 22.189 14.9152C22.189 15.8991 22.986 16.6967 23.9692 16.6967Z" fill="#64C6AB"/>
<path d="M14.1145 14.894L7.11818 10.2967C6.12774 9.64589 5.02872 10.9536 5.84028 11.8172L8.08641 14.2075C8.44874 14.5931 8.44801 15.1942 8.08475 15.5789L5.78662 18.0126C4.9734 18.8738 6.06777 20.1838 7.05993 19.5368L14.1145 14.9364C14.133 14.9216 14.1358 14.9127 14.1145 14.894Z" fill="#64C6AB"/>
<path d="M5.42534 16.6755C4.44216 16.6755 3.64513 15.8779 3.64513 14.894C3.64513 13.9101 4.44216 13.1125 5.42534 13.1125C6.40852 13.1125 7.20554 13.9101 7.20554 14.894C7.20554 15.8779 6.40852 16.6755 5.42534 16.6755Z" fill="#64C6AB"/>
<defs>
<linearGradient id="paint0_linear_52_18" x1="31.2207" y1="7.2004" x2="71.5172" y2="34.7908" gradientUnits="userSpaceOnUse">
<stop stop-color="#61C7AD"/>
<stop offset="1" stop-color="#004F9F"/>
</linearGradient>
<linearGradient id="paint1_linear_52_18" x1="31.2207" y1="7.2004" x2="71.5172" y2="34.7908" gradientUnits="userSpaceOnUse">
<stop stop-color="#61C7AD"/>
<stop offset="1" stop-color="#004F9F"/>
</linearGradient>
</defs>
</svg>
