<svg width="173" height="26" viewBox="0 0 173 26" fill="none" xmlns="http://www.w3.org/2000/svg">
<path d="M12.0103 5.83664H12.0794L16.9034 25.0752H23.9118L15.8802 0.925476H8.3973L0 25.0752H6.50927L12.0103 5.83664Z" fill="url(#paint0_linear_202_185)"/>
<path d="M40.3144 11.3708L37.2895 10.0439C36.138 9.55275 35.3718 9.13247 34.9913 8.78302C34.581 8.40524 34.3784 7.90468 34.3784 7.28134C34.3784 5.76077 35.4608 5.00049 37.6305 5.00049C39.4642 5.00049 41.204 5.4066 42.8399 6.21883L43.1563 1.47766C41.5203 0.840158 39.3851 0.519043 36.7606 0.519043C34.1363 0.519043 31.833 1.14238 30.1624 2.38906C28.4326 3.67824 27.5676 5.43966 27.5676 7.67329C27.5676 9.45359 27.9531 10.875 28.7291 11.9328C29.5644 13.0944 30.9878 14.0484 33.0044 14.8039L34.4822 15.3469C35.6337 15.7815 36.395 16.1356 36.7557 16.4143C37.2846 16.8203 37.5514 17.387 37.5514 18.1095C37.5514 19.8474 36.3999 20.7162 34.0918 20.7162C32.0604 20.7162 30.1476 20.2298 28.3584 19.2618L27.9729 24.546C30.37 25.1693 32.6139 25.481 34.7095 25.481C37.7442 25.481 40.1265 24.8058 41.8514 23.4598C43.6703 22.0668 44.5797 20.074 44.5797 17.4815C44.5797 14.6576 43.1563 12.6223 40.3044 11.3756L40.3144 11.3708Z" fill="#70A22C"/>
<path d="M60.9821 11.3708L57.9572 10.0439C56.8057 9.55275 56.0395 9.13247 55.659 8.78302C55.2487 8.40524 55.0462 7.90468 55.0462 7.28134C55.0462 5.76077 56.1286 5.00049 58.2983 5.00049C60.1319 5.00049 61.8717 5.4066 63.5077 6.21883L63.824 1.47766C62.1881 0.840158 60.0529 0.519043 57.4284 0.519043C54.804 0.519043 52.5008 1.14238 50.8302 2.38906C49.1003 3.67824 48.2354 5.43966 48.2354 7.67329C48.2354 9.45359 48.6209 10.875 49.3968 11.9328C50.2321 13.0944 51.6555 14.0484 53.6721 14.8039L55.1499 15.3469C56.3015 15.7815 57.0627 16.1356 57.4235 16.4143C57.9523 16.8203 58.2192 17.387 58.2192 18.1095C58.2192 19.8474 57.0676 20.7162 54.7595 20.7162C52.7281 20.7162 50.8153 20.2298 49.0261 19.2618L48.6406 24.546C51.0378 25.1693 53.2816 25.481 55.3723 25.481C58.407 25.481 60.7893 24.8058 62.5142 23.4598C64.3331 22.0668 65.2425 20.074 65.2425 17.4815C65.2425 14.6576 63.8191 12.6223 60.9672 11.3756L60.9821 11.3708Z" fill="#70A22C"/>
<path d="M68.8983 0.925476H75.6991V25.0752H68.8983V0.925476Z" fill="#70A22C"/>
<path d="M92.1015 11.3708L89.0767 10.0439C87.9251 9.55275 87.159 9.13247 86.7785 8.78302C86.3682 8.40524 86.1656 7.90468 86.1656 7.28134C86.1656 5.76077 87.248 5.00049 89.4177 5.00049C91.2514 5.00049 92.9912 5.4066 94.6272 6.21883L94.9434 1.47766C93.3075 0.840158 91.1723 0.519043 88.5478 0.519043C85.9234 0.519043 83.6202 1.14238 81.9496 2.38906C80.2198 3.67824 79.3548 5.43966 79.3548 7.67329C79.3548 9.45359 79.7403 10.875 80.5163 11.9328C81.3516 13.0944 82.775 14.0484 84.7915 14.8039L86.2694 15.3469C87.421 15.7815 88.1821 16.1356 88.5429 16.4143C89.0718 16.8203 89.3386 17.387 89.3386 18.1095C89.3386 19.8474 88.1871 20.7162 85.8789 20.7162C83.8476 20.7162 81.9348 20.2298 80.1456 19.2618L79.7601 24.546C82.1572 25.1693 84.4011 25.481 86.4918 25.481C89.5265 25.481 91.9088 24.8058 93.6337 23.4598C95.4526 22.0668 96.3619 20.074 96.3619 17.4815C96.3619 14.6576 94.9385 12.6223 92.0867 11.3756L92.1015 11.3708Z" fill="#70A22C"/>
<path d="M100.018 5.83664H105.454V25.0752H112.255V5.83664H117.672V0.925476H100.018V5.83664Z" fill="#70A22C"/>
<path d="M121.328 0.925476H128.129V25.0752H121.328V0.925476Z" fill="#70A22C"/>
<path d="M131.784 25.0752H138.447V15.4039H146.32V10.6203H138.447V5.70914H146.706V0.925476H131.784V25.0752Z" fill="#70A22C"/>
<path d="M164.943 0.925476L161.646 10.2048H161.577L158.097 0.925476H150.362L158.003 16.2917V25.0752H164.809V16.2917L172.43 0.925476H164.943Z" fill="#70A22C"/>
<defs>
<linearGradient id="paint0_linear_202_185" x1="-0.998381" y1="5.88859" x2="17.7282" y2="22.2127" gradientUnits="userSpaceOnUse">
<stop stop-color="#00AEEF"/>
<stop offset="0.04" stop-color="#08AFE4"/>
<stop offset="0.29" stop-color="#37B7AA"/>
<stop offset="0.52" stop-color="#5CBD7B"/>
<stop offset="0.72" stop-color="#76C25A"/>
<stop offset="0.89" stop-color="#87C446"/>
<stop offset="1" stop-color="#70A22C"/>
</linearGradient>
</defs>
</svg>
