<svg width="108" height="107" viewBox="0 0 108 107" fill="none" xmlns="http://www.w3.org/2000/svg">
<rect x="0.5" y="0.49707" width="107" height="106" rx="53" fill="url(#paint0_linear_53_245)"/>
<path d="M53.9999 23.9141C40.9507 23.9141 30.3332 34.5315 30.3332 47.5659C30.2475 66.6324 53.1006 82.4417 53.9999 83.0807C53.9999 83.0807 77.7524 66.6324 77.6666 47.5807C77.6666 34.5315 67.0491 23.9141 53.9999 23.9141ZM53.9999 59.4141C47.462 59.4141 42.1666 54.1186 42.1666 47.5807C42.1666 41.0428 47.462 35.7474 53.9999 35.7474C60.5378 35.7474 65.8332 41.0428 65.8332 47.5807C65.8332 54.1186 60.5378 59.4141 53.9999 59.4141Z" fill="white"/>
<defs>
<linearGradient id="paint0_linear_53_245" x1="23.3427" y1="0.497068" x2="132.027" y2="19.9816" gradientUnits="userSpaceOnUse">
<stop stop-color="#87C446"/>
<stop offset="1" stop-color="#47B995"/>
</linearGradient>
</defs>
</svg>
