<svg width="102" height="102" viewBox="0 0 102 102" fill="none" xmlns="http://www.w3.org/2000/svg">
<path d="M51 59.2345C48.6854 59.2345 46.7047 58.4111 45.0578 56.7642C43.411 55.1174 42.5861 53.1353 42.5833 50.8179C42.5805 48.5005 43.4054 46.5198 45.0578 44.8757C46.7103 43.2317 48.691 42.4068 51 42.4012C53.309 42.3956 55.2911 43.2204 56.9464 44.8757C58.6017 46.531 59.4251 48.5117 59.4167 50.8179C59.4083 53.124 58.5848 55.1062 56.9464 56.7642C55.3079 58.4223 53.3258 59.2458 51 59.2345ZM46.7917 33.9845V12.9429H55.2083V33.9845H46.7917ZM46.7917 88.6929V67.6512H55.2083V88.6929H46.7917ZM67.8333 55.0262V46.6095H88.875V55.0262H67.8333ZM13.125 55.0262V46.6095H34.1667V55.0262H13.125Z" fill="black"/>
</svg>
