<svg width="104" height="105" viewBox="0 0 104 105" fill="none" xmlns="http://www.w3.org/2000/svg">
<path d="M30 41.7345L52 52.8179M30 41.7345V63.9012L52 74.9845M30 41.7345L52 30.6512L74 41.7345M52 52.8179L74 41.7345M52 52.8179V74.9845M52 74.9845L74 63.9012V41.7345M37.7 102.693C25.38 102.693 19.22 102.693 14.512 100.277C10.3726 98.1515 7.00718 94.7606 4.898 90.5899C2.5 85.8462 2.5 79.6395 2.5 67.2262M101.5 67.2262C101.5 79.6395 101.5 85.8462 99.102 90.5899C96.9928 94.7606 93.6274 98.1515 89.488 100.277C84.78 102.693 78.62 102.693 66.3 102.693M66.3 2.94287C78.62 2.94287 84.78 2.94287 89.488 5.35904C93.6274 7.4842 96.9928 10.8751 99.102 15.0459C101.5 19.7895 101.5 25.9962 101.5 38.4095M37.7 2.94287C25.38 2.94287 19.22 2.94287 14.512 5.35904C10.3726 7.4842 7.00718 10.8751 4.898 15.0459C2.5 19.7895 2.5 25.9962 2.5 38.4095" stroke="black" stroke-width="4.5" stroke-linecap="round" stroke-linejoin="round"/>
</svg>
