<svg width="108" height="107" viewBox="0 0 108 107" fill="none" xmlns="http://www.w3.org/2000/svg">
<rect x="0.5" y="0.49707" width="107" height="106" rx="53" fill="url(#paint0_linear_53_238)"/>
<path d="M78.708 29.4978C78.9984 29.7929 79.1939 30.1704 79.2686 30.5806C79.3433 30.9909 79.2937 31.4144 79.1265 31.7954L56.1449 84.2984C55.9843 84.6656 55.7216 84.9772 55.3891 85.1949C55.0565 85.4126 54.6686 85.5269 54.2729 85.5239C53.8773 85.5208 53.4911 85.4005 53.1619 85.1776C52.8326 84.9548 52.5746 84.6392 52.4196 84.2696L44.128 64.6098L24.7621 56.1866C24.3994 56.0282 24.0901 55.7659 23.8719 55.4318C23.6537 55.0977 23.5361 54.7063 23.5335 54.3054C23.5309 53.9045 23.6434 53.5116 23.8573 53.1746C24.0712 52.8376 24.3771 52.5713 24.7377 52.4081L76.4452 29.0729C76.82 28.904 77.2363 28.8542 77.6394 28.93C78.0426 29.0058 78.4178 29.2038 78.708 29.4978Z" fill="white"/>
<defs>
<linearGradient id="paint0_linear_53_238" x1="23.3427" y1="0.497068" x2="132.027" y2="19.9816" gradientUnits="userSpaceOnUse">
<stop stop-color="#87C446"/>
<stop offset="1" stop-color="#47B995"/>
</linearGradient>
</defs>
</svg>
