<svg width="108" height="107" viewBox="0 0 108 107" fill="none" xmlns="http://www.w3.org/2000/svg">
<rect x="0.5" y="0.5" width="107" height="106" rx="53" fill="url(#paint0_linear_96_2016)"/>
<g clip-path="url(#clip0_96_2016)">
<path fill-rule="evenodd" clip-rule="evenodd" d="M52.3035 29.8045C53.2572 29.4477 54.2992 29.4012 55.2808 29.6716L55.6965 29.8045L72.6132 36.1483C73.4709 36.4699 74.2196 37.0287 74.772 37.7595C75.3243 38.4903 75.6577 39.363 75.7331 40.2759L75.75 40.6747V53.6353C75.7499 57.5513 74.6926 61.3947 72.6895 64.7597C70.6865 68.1247 67.8122 70.8865 64.3699 72.7535L63.7271 73.0894L55.6216 77.1422C55.1753 77.365 54.6878 77.4934 54.1896 77.5191C53.6915 77.5449 53.1933 77.4676 52.7264 77.292L52.3784 77.1422L44.2729 73.0894C40.7702 71.3381 37.8054 68.6735 35.6913 65.3769C33.5773 62.0804 32.3925 58.2743 32.2621 54.3603L32.25 53.6353V40.6747C32.25 39.7591 32.5101 38.8623 33 38.0888C33.4898 37.3153 34.1894 36.6968 35.0171 36.3054L35.3868 36.1483L52.3035 29.8045ZM62.2964 45.3534L51.1846 56.4652L46.9119 52.1925C46.4585 51.7394 45.8435 51.4849 45.2025 51.4852C44.5614 51.4854 43.9467 51.7403 43.4935 52.1937C43.0404 52.6472 42.786 53.2621 42.7862 53.9032C42.7864 54.5442 43.0413 55.159 43.4948 55.6121L49.3044 61.4218C49.5513 61.6688 49.8444 61.8647 50.167 61.9984C50.4896 62.132 50.8354 62.2008 51.1846 62.2008C51.5338 62.2008 51.8796 62.132 52.2022 61.9984C52.5248 61.8647 52.8179 61.6688 53.0648 61.4218L65.7136 48.7705C65.9444 48.5476 66.1285 48.2809 66.2552 47.9861C66.3818 47.6912 66.4485 47.3741 66.4513 47.0532C66.4541 46.7324 66.3929 46.4141 66.2714 46.1171C66.1499 45.8201 65.9704 45.5503 65.7435 45.3234C65.5166 45.0965 65.2468 44.9171 64.9498 44.7955C64.6528 44.674 64.3346 44.6129 64.0137 44.6157C63.6928 44.6185 63.3757 44.6851 63.0809 44.8118C62.786 44.9384 62.5193 45.1225 62.2964 45.3534Z" fill="white"/>
</g>
<defs>
<linearGradient id="paint0_linear_96_2016" x1="23.3427" y1="0.499997" x2="132.027" y2="19.9845" gradientUnits="userSpaceOnUse">
<stop stop-color="#87C446"/>
<stop offset="1" stop-color="#47B995"/>
</linearGradient>
<clipPath id="clip0_96_2016">
<rect width="58" height="58" fill="white" transform="translate(25 24.5)"/>
</clipPath>
</defs>
</svg>
