<svg width="68" height="73" viewBox="0 0 68 73" fill="none" xmlns="http://www.w3.org/2000/svg">
<path d="M4.53784 6.59564C3.88925 7.88564 3.57034 9.4838 2.9325 12.673L0.78967 23.3871C0.485979 24.848 0.483627 26.3554 0.782758 27.8172C1.08189 29.279 1.67621 30.6643 2.52933 31.8884C3.38246 33.1125 4.47644 34.1497 5.74431 34.9363C7.01217 35.7229 8.42724 36.2425 9.90289 36.4633C11.3785 36.684 12.8837 36.6013 14.3263 36.2201C15.7688 35.8389 17.1184 35.1674 18.2924 34.2465C19.4664 33.3256 20.4401 32.1749 21.154 30.8646C21.8678 29.5544 22.3066 28.1122 22.4438 26.6265L22.6946 24.154C22.5588 25.7265 22.7525 27.31 23.2634 28.8034C23.7742 30.2968 24.591 31.6672 25.6614 32.8271C26.7319 33.987 28.0326 34.9108 29.4803 35.5395C30.928 36.1683 32.491 36.4881 34.0693 36.4786C35.6476 36.4691 37.2066 36.1304 38.6467 35.4843C40.0867 34.8382 41.3761 33.8987 42.4325 32.7261C43.489 31.5534 44.2891 30.1732 44.782 28.6738C45.2748 27.1743 45.4494 25.5886 45.2947 24.0178L45.5563 26.6265C45.6934 28.1122 46.1322 29.5544 46.8461 30.8646C47.5599 32.1749 48.5336 33.3256 49.7076 34.2465C50.8816 35.1674 52.2312 35.8389 53.6737 36.2201C55.1163 36.6013 56.6215 36.684 58.0971 36.4633C59.5728 36.2425 60.9878 35.7229 62.2557 34.9363C63.5236 34.1497 64.6176 33.1125 65.4707 31.8884C66.3238 30.6643 66.9181 29.279 67.2173 27.8172C67.5164 26.3554 67.514 24.848 67.2103 23.3871L65.0675 12.673C64.4297 9.4838 64.1108 7.88922 63.4622 6.59564C62.7864 5.24844 61.8348 4.05841 60.6693 3.10279C59.5038 2.14716 58.1504 1.44731 56.6968 1.04864C55.2993 0.665223 53.6725 0.665222 50.4188 0.665222H17.5812C14.3275 0.665222 12.7007 0.665223 11.3032 1.04864C9.84965 1.44731 8.49621 2.14716 7.3307 3.10279C6.16518 4.05841 5.21364 5.24844 4.53784 6.59564ZM56.4639 41.8736C59.2637 41.8806 62.0177 41.1634 64.4583 39.7916V43.6652C64.4583 57.178 64.4583 63.9361 60.2587 68.1322C56.8796 71.5149 51.845 72.1706 42.9583 72.2996V59.7902C42.9583 56.4398 42.9583 54.7664 42.2381 53.5194C41.7664 52.7024 41.0879 52.0239 40.2708 51.5521C39.0238 50.8319 37.3504 50.8319 34 50.8319C30.6496 50.8319 28.9762 50.8319 27.7292 51.5521C26.9121 52.0239 26.2337 52.7024 25.7619 53.5194C25.0417 54.7664 25.0417 56.4398 25.0417 59.7902V72.2996C16.155 72.1706 11.1204 71.5113 7.74134 68.1322C3.54167 63.9361 3.54167 57.178 3.54167 43.6652V39.7916C5.9834 41.164 8.7387 41.8813 11.5397 41.8736C15.6808 41.8765 19.6678 40.3032 22.691 37.4732C25.7722 40.3115 29.8108 41.8829 34 41.8736C38.1892 41.8825 42.2276 40.3112 45.309 37.4732C48.3322 40.3032 52.3228 41.8765 56.4639 41.8736Z" fill="#D5D5D5"/>
</svg>
