<svg width="72" height="73" viewBox="0 0 72 73" fill="none" xmlns="http://www.w3.org/2000/svg">
<path d="M29.753 25.0836C29.753 23.8978 30.1046 22.7387 30.7634 21.7527C31.4222 20.7668 32.3586 19.9983 33.4541 19.5445C34.5496 19.0907 35.7551 18.972 36.9181 19.2033C38.0812 19.4347 39.1495 20.0057 39.9879 20.8442C40.8264 21.6827 41.3974 22.751 41.6288 23.914C41.8601 25.077 41.7414 26.2825 41.2876 27.378C40.8338 28.4735 40.0654 29.4099 39.0794 30.0687C38.0934 30.7275 36.9343 31.0791 35.7485 31.0791V33.0776M35.7485 41.3194C35.4835 41.3194 35.2293 41.2142 35.0419 41.0268C34.8545 40.8394 34.7492 40.5852 34.7492 40.3202C34.7492 40.0552 34.8545 39.801 35.0419 39.6136C35.2293 39.4262 35.4835 39.3209 35.7485 39.3209C36.0135 39.3209 36.2677 39.4262 36.4551 39.6136C36.6425 39.801 36.7477 40.0552 36.7477 40.3202C36.7477 40.5852 36.6425 40.8394 36.4551 41.0268C36.2677 41.2142 36.0135 41.3194 35.7485 41.3194Z" stroke="black" stroke-width="3" stroke-linecap="round" stroke-linejoin="round"/>
<path d="M57.7317 62.8408H19.7602C18.1701 62.8408 16.6451 62.2092 15.5207 61.0848C14.3964 59.9604 13.7647 58.4354 13.7647 56.8453C13.7647 55.2552 14.3964 53.7302 15.5207 52.6059C16.6451 51.4815 18.1701 50.8498 19.7602 50.8498H53.7347M53.7347 50.8498C54.7947 50.8498 55.8114 50.4287 56.561 49.6791C57.3105 48.9296 57.7317 47.9129 57.7317 46.8528V14.8769C57.7317 13.8168 57.3105 12.8002 56.561 12.0506C55.8114 11.301 54.7947 10.8799 53.7347 10.8799H19.7602C18.1974 10.8793 16.6962 11.489 15.5763 12.579C14.4564 13.669 13.8064 15.1533 13.7647 16.7155V56.6854M53.7347 50.8498V62.8408" stroke="black" stroke-width="3" stroke-linecap="round" stroke-linejoin="round"/>
</svg>
