<svg width="76" height="77" viewBox="0 0 76 77" fill="none" xmlns="http://www.w3.org/2000/svg">
<g clip-path="url(#clip0_96_1076)">
<path d="M38 41.032C37.3281 41.032 36.6838 41.2989 36.2087 41.774C35.7336 42.2491 35.4667 42.8934 35.4667 43.5653C35.4667 44.2372 35.7336 44.8816 36.2087 45.3567C36.6838 45.8317 37.3281 46.0986 38 46.0986C38.6719 46.0986 39.3163 45.8317 39.7913 45.3567C40.2664 44.8816 40.5333 44.2372 40.5333 43.5653C40.5333 42.8934 40.2664 42.2491 39.7913 41.774C39.3163 41.2989 38.6719 41.032 38 41.032Z" fill="#D5D5D5"/>
<path fill-rule="evenodd" clip-rule="evenodd" d="M60.8 31.8663L40.5333 21.7329V15.6985H55.7333V0.498535H35.4667V21.7329L15.2 31.8663V41.0319H5.06667V71.4319H0V76.4985H30.4V56.2319H45.6V76.4985H76V71.4319H70.9333V41.0319H60.8V31.8663ZM65.8667 71.4319V46.0985H60.8V71.4319H65.8667ZM15.2 71.4319H10.1333V46.0985H15.2V71.4319ZM30.4 43.5652C30.4 41.5496 31.2007 39.6165 32.626 38.1912C34.0513 36.7659 35.9844 35.9652 38 35.9652C40.0156 35.9652 41.9487 36.7659 43.374 38.1912C44.7993 39.6165 45.6 41.5496 45.6 43.5652C45.6 45.5808 44.7993 47.5139 43.374 48.9392C41.9487 50.3645 40.0156 51.1652 38 51.1652C35.9844 51.1652 34.0513 50.3645 32.626 48.9392C31.2007 47.5139 30.4 45.5808 30.4 43.5652Z" fill="#D5D5D5"/>
<path d="M40.5333 76.4986V61.2986H35.4667V76.4986H40.5333Z" fill="#D5D5D5"/>
</g>
<defs>
<clipPath id="clip0_96_1076">
<rect width="76" height="76" fill="white" transform="translate(0 0.498535)"/>
</clipPath>
</defs>
</svg>
