<svg width="108" height="107" viewBox="0 0 108 107" fill="none" xmlns="http://www.w3.org/2000/svg">
<rect x="0.5" y="0.49707" width="107" height="106" rx="53" fill="url(#paint0_linear_53_251)"/>
<path d="M48.6667 56.1634C54.5577 56.1634 59.3333 51.3878 59.3333 45.4967C59.3333 39.6057 54.5577 34.8301 48.6667 34.8301C42.7756 34.8301 38 39.6057 38 45.4967C38 51.3878 42.7756 56.1634 48.6667 56.1634Z" fill="white"/>
<path d="M65.7065 62.9907C61.2265 60.6974 55.4132 58.8307 48.6665 58.8307C41.9198 58.8307 36.1065 60.6974 31.6265 62.9907C30.3253 63.6609 29.2353 64.6785 28.4774 65.9307C27.7196 67.1828 27.3235 68.6205 27.3332 70.0841V77.4974H69.9998V70.0841C69.9998 67.0974 68.3732 64.3507 65.7065 62.9907ZM75.4665 27.9241L71.7065 24.1641C62.3465 33.5241 62.3465 48.7241 71.7065 58.1107L75.4665 54.3507C68.1865 47.0441 68.1865 35.2041 75.4665 27.9241Z" fill="white"/>
<path d="M83.0135 35.47L79.2535 31.71C76.7559 34.2114 75.353 37.6018 75.353 41.1366C75.353 44.6715 76.7559 48.0619 79.2535 50.5633L83.0135 46.8033C81.5151 45.2981 80.6738 43.2606 80.6738 41.1366C80.6738 39.0127 81.5151 36.9752 83.0135 35.47Z" fill="white"/>
<defs>
<linearGradient id="paint0_linear_53_251" x1="23.3427" y1="0.497068" x2="132.027" y2="19.9816" gradientUnits="userSpaceOnUse">
<stop stop-color="#87C446"/>
<stop offset="1" stop-color="#47B995"/>
</linearGradient>
</defs>
</svg>
