<svg width="108" height="106" viewBox="0 0 108 106" fill="none" xmlns="http://www.w3.org/2000/svg">
<rect x="0.5" width="107" height="106" rx="53" fill="url(#paint0_linear_96_2025)"/>
<path d="M57 44H52.47C50.58 44 48.72 44.9 47.7 46.1L45 38H36.39L29.22 59H34.29L36.51 53H45V65H30C26.7 65 24 62.3 24 59V38C24 34.7 26.7 32 30 32H51C54.3 32 57 34.7 57 38V44ZM43.53 50H37.47L40.47 41.21L43.53 50ZM54 47H75C78.3 47 81 49.7 81 53V74C81 77.3 78.3 80 75 80H54C50.7 80 48 77.3 48 74V53C48 49.7 50.7 47 54 47ZM75.75 62V58.76H66.24V52.25H62.76V58.76H53.25V62H57.09C57.42 64.55 58.77 67.55 60.93 69.86C58.32 70.94 55.26 71.72 54 71.72C53.97 71.78 54.66 74.63 54.6 76.1C57.12 76.1 61.23 74.6 64.44 72.65C67.71 74.6 71.88 76.1 74.46 76.1C74.4 74.63 75.06 71.78 75.06 71.72C73.77 71.72 70.59 70.91 67.92 69.83C70.02 67.52 71.34 64.52 71.67 62H75.75ZM64.32 67.79C62.82 66.41 61.77 64.4 61.29 62H67.56C67.05 64.4 66.03 66.41 64.56 67.79L64.44 67.88C64.44 67.88 64.35 67.82 64.32 67.79Z" fill="white"/>
<defs>
<linearGradient id="paint0_linear_96_2025" x1="23.3427" y1="-2.77099e-06" x2="132.027" y2="19.4845" gradientUnits="userSpaceOnUse">
<stop stop-color="#87C446"/>
<stop offset="1" stop-color="#47B995"/>
</linearGradient>
</defs>
</svg>
