<svg width="430" height="521" viewBox="0 0 430 521" fill="none" xmlns="http://www.w3.org/2000/svg">
<path d="M386.908 2.01702C393.321 3.17858 399.678 4.83532 405.635 7.52032C417.053 12.6427 425.865 21.6879 428.757 34.0655C431.726 46.7097 428.967 60.1727 424.78 72.2075C416.064 97.3055 401.676 120.709 384.377 140.76C367.039 160.869 346.143 177.95 322.887 190.766C300.373 203.182 275.252 210.151 253.119 223.29C242.499 229.593 232.641 237.534 225.904 248.007C218.92 258.881 216.046 271.544 216.16 284.379C216.37 310.486 226.399 335.298 229.368 361.062C230.738 373.002 230.51 385.284 226.78 396.824C222.878 408.916 215.228 419.409 205.541 427.521C182.951 446.449 152.634 450.714 124.068 449.21C97.8054 447.839 62.9972 441.802 48.9142 470.671C40.9972 486.857 42.7291 503.995 46.6115 521L44.7844 521C40.3882 500.91 38.7706 478.992 51.9783 462.178C69.1635 440.317 99.9559 446.068 124.068 447.325C154.328 448.924 187.042 443.897 209.29 421.503C218.786 411.963 225.143 399.928 227.293 386.617C229.387 373.611 227.807 360.32 225.333 347.485C220.709 323.396 211.878 298.832 214.809 273.981C217.626 250.178 233.041 232.773 253.138 221.062C274.852 208.418 299.326 201.487 321.346 189.433C345.268 176.351 366.64 158.736 384.263 137.942C401.733 117.338 416.844 92.6972 424.552 66.6471C428.567 53.0508 430.47 37.1313 422.858 24.3729C415.207 11.5573 400.287 6.33971 386.356 3.80706C375.242 1.90283 363.975 1.35052 352.728 2.18841C306.825 5.59698 264.804 30.8664 233.003 63.0672C198.214 98.3338 175.719 143.541 157.164 188.938C147.667 212.189 139.103 235.782 130.177 259.242C121.861 281.141 113.753 303.573 102.03 323.949C91.7153 341.83 77.6323 359.177 58.4679 367.937C42.4626 375.23 22.9938 377.058 6.41765 370.584C-11.1862 363.709 -22.0911 347.657 -23.4613 328.938C-25.098 306.563 -15.297 285.178 -4.79175 266.079C7.02661 244.58 21.1477 221.862 20.1771 196.383C19.3398 174.275 6.17016 154.699 -11.1292 141.693C-45.6517 115.758 -93.6674 118.366 -129.084 141.103C-147.449 152.909 -161.97 169.952 -170.135 190.271C-179.441 213.503 -180.754 239.21 -177.366 263.794C-170.097 316.655 -141.283 362.776 -120.825 411.106C-106.209 445.649 -95.266 483.905 -99.567 521L-101.204 521C-101.128 520.391 -101.051 519.762 -100.994 519.134C-95.3611 463.911 -121.795 412.249 -144.69 363.9C-165.967 318.96 -186.482 270.497 -179.669 219.634C-176.738 197.697 -168.365 176.579 -153.711 159.803C-140.731 144.931 -123.641 133.791 -105.029 127.354C-66.9476 114.177 -22.4147 122.251 4.41928 153.671C17.4556 168.924 24.1547 188.328 21.4142 208.361C18.1218 232.564 3.86746 253.377 -7.24674 274.515C-17.8661 294.738 -27.1344 320.731 -18.5133 343.296C-10.7866 363.481 9.50072 373.116 30.2257 372.564C79.4403 371.231 103.267 322.254 119.101 282.531C137.676 235.954 153.167 188.005 175.681 143.084C196.863 100.809 224.705 62.077 263.605 34.4654C299.269 9.17706 343.003 -5.54279 386.832 1.95995L386.908 2.01702Z" fill="#80C34E"/>
</svg>
