<svg width="152" height="220" viewBox="0 0 152 220" fill="none" xmlns="http://www.w3.org/2000/svg">
<mask id="path-1-outside-1_96_490" maskUnits="userSpaceOnUse" x="-2.39027" y="-1.2148" width="202.797" height="243.48" fill="black">
<rect fill="white" x="-2.39027" y="-1.2148" width="202.797" height="243.48"/>
<path d="M150.372 29.2552C150.372 29.2552 150.374 29.3051 150.371 29.3272C150.281 32.2195 149.883 35.0824 149.148 37.8712C141.818 65.5685 111.47 76.0521 91.9713 93.3343C83.3072 101.013 73.2711 112.762 75.9834 125.373C78.5162 137.219 91.3678 136.178 100.714 135.965C104.94 135.873 109.442 135.945 113.3 137.913C117.532 140.077 119.987 144.267 120.506 148.908C121.181 154.844 118.79 160.455 115.916 165.495C112.499 171.505 108.675 177.345 104.619 182.941C90.4624 202.434 69.9837 219.553 44.5077 218.631C32.1816 218.181 21.843 212.761 13.1427 204.192C9.19143 200.308 5.48684 195.975 1.58812 191.873L2.1528 191.05C7.6596 196.86 12.7781 203.131 19.0294 208.156C28.6358 215.882 40.6303 218.781 52.7829 217.272C79.5356 213.96 97.9715 192.511 111.437 170.982C115.02 165.244 119.192 159.073 119.611 152.108C119.964 146.212 117.326 140.432 111.595 138.221C103.12 134.952 93.6598 138.694 85.0119 136.189C75.8609 133.534 73.3223 124.262 75.3267 115.782C78.158 103.813 88.2392 94.5642 97.6489 87.4094C117.739 72.1312 148.51 58.5356 149.393 29.2494C149.427 24.9872 148.573 20.7815 146.838 16.8682C143.873 10.1489 138.382 4.61594 131.356 2.6308L131.881 1.86503C143.079 5.3067 150.429 17.0664 150.372 29.2552Z"/>
</mask>
<path d="M150.372 29.2552C150.372 29.2552 150.374 29.3051 150.371 29.3272C150.281 32.2195 149.883 35.0824 149.148 37.8712C141.818 65.5685 111.47 76.0521 91.9713 93.3343C83.3072 101.013 73.2711 112.762 75.9834 125.373C78.5162 137.219 91.3678 136.178 100.714 135.965C104.94 135.873 109.442 135.945 113.3 137.913C117.532 140.077 119.987 144.267 120.506 148.908C121.181 154.844 118.79 160.455 115.916 165.495C112.499 171.505 108.675 177.345 104.619 182.941C90.4624 202.434 69.9837 219.553 44.5077 218.631C32.1816 218.181 21.843 212.761 13.1427 204.192C9.19143 200.308 5.48684 195.975 1.58812 191.873L2.1528 191.05C7.6596 196.86 12.7781 203.131 19.0294 208.156C28.6358 215.882 40.6303 218.781 52.7829 217.272C79.5356 213.96 97.9715 192.511 111.437 170.982C115.02 165.244 119.192 159.073 119.611 152.108C119.964 146.212 117.326 140.432 111.595 138.221C103.12 134.952 93.6598 138.694 85.0119 136.189C75.8609 133.534 73.3223 124.262 75.3267 115.782C78.158 103.813 88.2392 94.5642 97.6489 87.4094C117.739 72.1312 148.51 58.5356 149.393 29.2494C149.427 24.9872 148.573 20.7815 146.838 16.8682C143.873 10.1489 138.382 4.61594 131.356 2.6308L131.881 1.86503C143.079 5.3067 150.429 17.0664 150.372 29.2552Z" fill="#80C34E"/>
<path d="M150.372 29.2552L149.372 29.2505L149.372 29.2749L149.373 29.2994L150.372 29.2552ZM150.371 29.3272L149.38 29.1912L149.373 29.2434L149.372 29.2961L150.371 29.3272ZM149.148 37.8712L150.115 38.1271L150.115 38.1261L149.148 37.8712ZM91.9713 93.3343L92.6346 94.0827L92.6346 94.0827L91.9713 93.3343ZM75.9834 125.373L76.9613 125.164L76.961 125.163L75.9834 125.373ZM100.714 135.965L100.692 134.965L100.691 134.965L100.714 135.965ZM113.3 137.913L113.755 137.023L113.754 137.022L113.3 137.913ZM120.506 148.908L119.512 149.02L119.513 149.022L120.506 148.908ZM115.916 165.495L115.048 164.999L115.047 165L115.916 165.495ZM104.619 182.941L105.428 183.529L105.429 183.528L104.619 182.941ZM44.5077 218.631L44.4712 219.631L44.4716 219.631L44.5077 218.631ZM13.1427 204.192L13.8444 203.479L13.8437 203.479L13.1427 204.192ZM1.58812 191.873L0.763416 191.308L0.305553 191.975L0.863253 192.562L1.58812 191.873ZM2.1528 191.05L2.87862 190.362L2.02771 189.464L1.3281 190.484L2.1528 191.05ZM19.0294 208.156L19.6561 207.377L19.656 207.377L19.0294 208.156ZM52.7829 217.272L52.66 216.28L52.6597 216.28L52.7829 217.272ZM111.437 170.982L112.285 171.513L112.285 171.512L111.437 170.982ZM119.611 152.108L120.609 152.168L120.609 152.168L119.611 152.108ZM111.595 138.221L111.235 139.154L111.235 139.154L111.595 138.221ZM85.0119 136.189L84.7332 137.15L84.7337 137.15L85.0119 136.189ZM75.3267 115.782L74.3536 115.552L74.3535 115.552L75.3267 115.782ZM97.6489 87.4094L98.2541 88.2054L98.2542 88.2054L97.6489 87.4094ZM149.393 29.2494L150.392 29.2796L150.392 29.2685L150.393 29.2575L149.393 29.2494ZM146.838 16.8682L145.924 17.272L145.924 17.2733L146.838 16.8682ZM131.356 2.6308L130.532 2.06523L129.744 3.21427L131.084 3.59312L131.356 2.6308ZM131.881 1.86503L132.175 0.909168L131.473 0.693171L131.057 1.29946L131.881 1.86503ZM150.372 29.2552C149.373 29.2994 149.373 29.2993 149.373 29.2993C149.373 29.2993 149.373 29.2993 149.373 29.2992C149.373 29.2992 149.373 29.2991 149.373 29.2991C149.373 29.299 149.373 29.2989 149.373 29.2988C149.373 29.2986 149.373 29.2984 149.373 29.2982C149.373 29.2979 149.373 29.2976 149.373 29.2973C149.373 29.2968 149.373 29.2963 149.373 29.296C149.373 29.2954 149.373 29.2951 149.373 29.2951C149.373 29.295 149.373 29.295 149.373 29.2951C149.373 29.2951 149.373 29.2951 149.373 29.2951C149.373 29.2951 149.373 29.295 149.373 29.2949C149.373 29.2948 149.373 29.2946 149.373 29.2942C149.373 29.2941 149.373 29.2883 149.373 29.2784C149.373 29.2752 149.374 29.2397 149.38 29.1912L151.362 29.4633C151.375 29.3684 151.373 29.2795 151.373 29.2715C151.372 29.2554 151.372 29.2414 151.372 29.2315C151.371 29.2264 151.371 29.2221 151.371 29.2187C151.371 29.2169 151.371 29.2154 151.371 29.2141C151.371 29.2135 151.371 29.2129 151.371 29.2123C151.371 29.2121 151.371 29.2118 151.371 29.2116C151.371 29.2115 151.371 29.2114 151.371 29.2112C151.371 29.2112 151.371 29.2111 151.371 29.2111C151.371 29.211 151.371 29.211 151.371 29.211C151.371 29.211 151.371 29.2109 150.372 29.2552ZM149.372 29.2961C149.284 32.1173 148.896 34.9048 148.181 37.6163L150.115 38.1261C150.871 35.26 151.278 32.3217 151.371 29.3583L149.372 29.2961ZM148.181 37.6154C144.602 51.1405 135.397 60.5149 124.521 68.7098C119.078 72.8107 113.263 76.5834 107.541 80.4432C101.836 84.2916 96.2357 88.2184 91.308 92.586L92.6346 94.0827C97.4562 89.8092 102.962 85.9446 108.66 82.1013C114.341 78.2692 120.227 74.4495 125.725 70.3071C136.729 62.0153 146.364 52.2993 150.115 38.1271L148.181 37.6154ZM91.3081 92.5859C86.9396 96.4573 82.1795 101.393 78.8515 106.993C75.5218 112.596 73.5784 118.947 75.0057 125.583L76.961 125.163C75.676 119.188 77.3946 113.359 80.5708 108.015C83.7489 102.667 88.3388 97.8897 92.6346 94.0827L91.3081 92.5859ZM75.0055 125.582C75.678 128.727 77.0519 131.074 78.926 132.793C80.7896 134.501 83.0913 135.536 85.5474 136.16C90.4119 137.396 96.1351 137.069 100.737 136.965L100.691 134.965C95.9468 135.073 90.571 135.373 86.04 134.222C83.7982 133.652 81.828 132.74 80.2775 131.318C78.7375 129.907 77.5552 127.942 76.9613 125.164L75.0055 125.582ZM100.736 136.965C104.975 136.872 109.238 136.964 112.845 138.804L113.754 137.022C109.646 134.927 104.905 134.873 100.692 134.965L100.736 136.965ZM112.844 138.803C116.729 140.789 119.024 144.652 119.512 149.02L121.5 148.797C120.95 143.881 118.336 139.365 113.755 137.023L112.844 138.803ZM119.513 149.022C120.15 154.626 117.898 160.001 115.048 164.999L116.785 165.99C119.681 160.91 122.213 155.062 121.5 148.795L119.513 149.022ZM115.047 165C111.65 170.974 107.847 176.784 103.81 182.354L105.429 183.528C109.504 177.907 113.348 172.035 116.786 165.989L115.047 165ZM103.81 182.354C89.7233 201.75 69.5189 218.535 44.5439 217.632L44.4716 219.631C70.4485 220.57 91.2015 203.118 105.428 183.529L103.81 182.354ZM44.5443 217.632C32.5186 217.192 22.4064 211.913 13.8444 203.479L12.441 204.904C21.2796 213.61 31.8446 219.169 44.4712 219.631L44.5443 217.632ZM13.8437 203.479C9.89941 199.601 6.26958 195.347 2.31298 191.184L0.863253 192.562C4.70411 196.603 8.48346 201.014 12.4417 204.905L13.8437 203.479ZM2.41282 192.439L2.9775 191.615L1.3281 190.484L0.763416 191.308L2.41282 192.439ZM1.42699 191.738C6.865 197.475 12.0813 203.854 18.4029 208.936L19.656 207.377C13.4748 202.408 8.45421 196.245 2.87862 190.362L1.42699 191.738ZM18.4027 208.935C28.2421 216.849 40.5146 219.803 52.9061 218.265L52.6597 216.28C40.7461 217.759 29.0296 214.916 19.6561 207.377L18.4027 208.935ZM52.9058 218.265C80.1452 214.892 98.7986 193.074 112.285 171.513L110.589 170.452C97.1445 191.947 78.9261 213.028 52.66 216.28L52.9058 218.265ZM112.285 171.512C115.817 165.855 120.171 159.443 120.609 152.168L118.612 152.048C118.212 158.702 114.224 164.632 110.589 170.453L112.285 171.512ZM120.609 152.168C120.981 145.967 118.201 139.698 111.955 137.288L111.235 139.154C116.45 141.166 118.948 146.457 118.612 152.048L120.609 152.168ZM111.955 137.288C107.496 135.568 102.81 135.706 98.321 135.919C93.7633 136.136 89.4211 136.425 85.2901 135.229L84.7337 137.15C89.2506 138.458 93.9626 138.129 98.4158 137.917C102.938 137.703 107.22 137.605 111.235 139.154L111.955 137.288ZM85.2906 135.229C81.0254 133.991 78.3301 131.235 76.9106 127.789C75.4787 124.312 75.3349 120.095 76.2999 116.012L74.3535 115.552C73.3141 119.95 73.4374 124.608 75.0614 128.551C76.6979 132.524 79.8473 135.732 84.7332 137.15L85.2906 135.229ZM76.2999 116.012C79.0423 104.419 88.8493 95.3566 98.2541 88.2054L97.0436 86.6134C87.629 93.7719 77.2737 103.207 74.3536 115.552L76.2999 116.012ZM98.2542 88.2054C103.248 84.4076 108.901 80.7178 114.647 76.8225C120.375 72.9389 126.174 68.8637 131.38 64.337C141.795 55.2797 149.939 44.3193 150.392 29.2796L148.393 29.2193C147.964 43.4658 140.281 53.9462 130.068 62.8278C124.959 67.2706 119.244 71.2894 113.524 75.1671C107.822 79.0331 102.095 82.7722 97.0436 86.6134L98.2542 88.2054ZM150.393 29.2575C150.428 24.8556 149.546 20.5088 147.753 16.463L145.924 17.2733C147.6 21.0543 148.426 25.1188 148.393 29.2414L150.393 29.2575ZM147.753 16.4644C144.692 9.52961 138.996 3.75023 131.628 1.66848L131.084 3.59312C137.768 5.48163 143.053 10.7683 145.924 17.272L147.753 16.4644ZM132.181 3.19637L132.706 2.43061L131.057 1.29946L130.532 2.06523L132.181 3.19637ZM131.588 2.8209C142.286 6.10923 149.427 17.4158 149.372 29.2505L151.372 29.2598C151.43 16.717 143.871 4.50417 132.175 0.909168L131.588 2.8209Z" fill="#80C34E" mask="url(#path-1-outside-1_96_490)"/>
</svg>
